<?xml version="1.0" encoding="utf-8" standalone="no"?>
<!DOCTYPE svg PUBLIC "-//W3C//DTD SVG 1.1//EN"
  "http://www.w3.org/Graphics/SVG/1.1/DTD/svg11.dtd">
<svg xmlns:xlink="http://www.w3.org/1999/xlink" width="856.8pt" height="496.637812pt" viewBox="0 0 856.8 496.637812" xmlns="http://www.w3.org/2000/svg" version="1.1">
 <metadata>
  <rdf:RDF xmlns:dc="http://purl.org/dc/elements/1.1/" xmlns:cc="http://creativecommons.org/ns#" xmlns:rdf="http://www.w3.org/1999/02/22-rdf-syntax-ns#">
   <cc:Work>
    <dc:type rdf:resource="http://purl.org/dc/dcmitype/StillImage"/>
    <dc:date>2026-05-23T05:02:10.841031</dc:date>
    <dc:format>image/svg+xml</dc:format>
    <dc:creator>
     <cc:Agent>
      <dc:title>Matplotlib v3.10.8, https://matplotlib.org/</dc:title>
     </cc:Agent>
    </dc:creator>
   </cc:Work>
  </rdf:RDF>
 </metadata>
 <defs>
  <style type="text/css">*{stroke-linejoin: round; stroke-linecap: butt}</style>
 </defs>
 <g id="figure_1">
  <g id="patch_1">
   <path d="M 0 496.637812 
L 856.8 496.637812 
L 856.8 0 
L 0 0 
z
" style="fill: #ffffff"/>
  </g>
  <g id="axes_1">
   <g id="patch_2">
    <path d="M 42.3 123.609241 
L 217.8 123.609241 
L 217.8 43.792098 
L 42.3 43.792098 
z
" clip-path="url(#p46c431e4a8)" style="fill: #ffcdd2; opacity: 0.8; stroke: #c62828; stroke-width: 2; stroke-linejoin: miter"/>
   </g>
   <g id="patch_3">
    <path d="M 252.9 123.609241 
L 428.4 123.609241 
L 428.4 43.792098 
L 252.9 43.792098 
z
" clip-path="url(#p46c431e4a8)" style="fill: #ffcdd2; opacity: 0.8; stroke: #c62828; stroke-width: 2; stroke-linejoin: miter"/>
   </g>
   <g id="patch_4">
    <path d="M 463.5 123.609241 
L 639 123.609241 
L 639 43.792098 
L 463.5 43.792098 
z
" clip-path="url(#p46c431e4a8)" style="fill: #ffcdd2; opacity: 0.8; stroke: #c62828; stroke-width: 2; stroke-linejoin: miter"/>
   </g>
   <g id="patch_5">
    <path d="M 674.1 123.609241 
L 828.54 123.609241 
L 828.54 43.792098 
L 674.1 43.792098 
z
" clip-path="url(#p46c431e4a8)" style="fill: #ffcdd2; opacity: 0.8; stroke: #c62828; stroke-width: 2; stroke-linejoin: miter"/>
   </g>
   <g id="patch_6">
    <path d="M 28.26 289.894955 
L 224.82 289.894955 
L 224.82 190.123527 
L 28.26 190.123527 
z
" clip-path="url(#p46c431e4a8)" style="fill: #c8e6c9; opacity: 0.8; stroke: #2e7d32; stroke-width: 2; stroke-linejoin: miter"/>
   </g>
   <g id="patch_7">
    <path d="M 238.86 289.894955 
L 435.42 289.894955 
L 435.42 190.123527 
L 238.86 190.123527 
z
" clip-path="url(#p46c431e4a8)" style="fill: #c8e6c9; opacity: 0.8; stroke: #2e7d32; stroke-width: 2; stroke-linejoin: miter"/>
   </g>
   <g id="patch_8">
    <path d="M 449.46 289.894955 
L 646.02 289.894955 
L 646.02 190.123527 
L 449.46 190.123527 
z
" clip-path="url(#p46c431e4a8)" style="fill: #c8e6c9; opacity: 0.8; stroke: #2e7d32; stroke-width: 2; stroke-linejoin: miter"/>
   </g>
   <g id="patch_9">
    <path d="M 660.06 289.894955 
L 828.54 289.894955 
L 828.54 190.123527 
L 660.06 190.123527 
z
" clip-path="url(#p46c431e4a8)" style="fill: #c8e6c9; opacity: 0.8; stroke: #2e7d32; stroke-width: 2; stroke-linejoin: miter"/>
   </g>
   <g id="patch_10">
    <path d="M 147.6 456.18067 
L 709.2 456.18067 
L 709.2 336.454955 
L 147.6 336.454955 
z
" clip-path="url(#p46c431e4a8)" style="fill: #e3f2fd; opacity: 0.9; stroke: #1565c0; stroke-width: 3; stroke-linejoin: miter"/>
   </g>
   <g id="text_1">
    <!-- P1: Zombies are -->
    <g style="fill: #c62828" transform="translate(88.841953 81.145092) scale(0.09 -0.09)">
     <defs>
      <path id="DejaVuSans-Bold-50" d="M 588 4666 
L 2584 4666 
Q 3475 4666 3951 4270 
Q 4428 3875 4428 3144 
Q 4428 2409 3951 2014 
Q 3475 1619 2584 1619 
L 1791 1619 
L 1791 0 
L 588 0 
L 588 4666 
z
M 1791 3794 
L 1791 2491 
L 2456 2491 
Q 2806 2491 2997 2661 
Q 3188 2831 3188 3144 
Q 3188 3456 2997 3625 
Q 2806 3794 2456 3794 
L 1791 3794 
z
" transform="scale(0.015625)"/>
      <path id="DejaVuSans-Bold-31" d="M 750 831 
L 1813 831 
L 1813 3847 
L 722 3622 
L 722 4441 
L 1806 4666 
L 2950 4666 
L 2950 831 
L 4013 831 
L 4013 0 
L 750 0 
L 750 831 
z
" transform="scale(0.015625)"/>
      <path id="DejaVuSans-Bold-3a" d="M 716 3500 
L 1844 3500 
L 1844 2291 
L 716 2291 
L 716 3500 
z
M 716 1209 
L 1844 1209 
L 1844 0 
L 716 0 
L 716 1209 
z
" transform="scale(0.015625)"/>
      <path id="DejaVuSans-Bold-20" transform="scale(0.015625)"/>
      <path id="DejaVuSans-Bold-5a" d="M 359 4666 
L 4281 4666 
L 4281 3938 
L 1778 909 
L 4353 909 
L 4353 0 
L 288 0 
L 288 728 
L 2791 3756 
L 359 3756 
L 359 4666 
z
" transform="scale(0.015625)"/>
      <path id="DejaVuSans-Bold-6f" d="M 2203 2784 
Q 1831 2784 1636 2517 
Q 1441 2250 1441 1747 
Q 1441 1244 1636 976 
Q 1831 709 2203 709 
Q 2569 709 2762 976 
Q 2956 1244 2956 1747 
Q 2956 2250 2762 2517 
Q 2569 2784 2203 2784 
z
M 2203 3584 
Q 3106 3584 3614 3096 
Q 4122 2609 4122 1747 
Q 4122 884 3614 396 
Q 3106 -91 2203 -91 
Q 1297 -91 786 396 
Q 275 884 275 1747 
Q 275 2609 786 3096 
Q 1297 3584 2203 3584 
z
" transform="scale(0.015625)"/>
      <path id="DejaVuSans-Bold-6d" d="M 3781 2919 
Q 3994 3244 4286 3414 
Q 4578 3584 4928 3584 
Q 5531 3584 5847 3212 
Q 6163 2841 6163 2131 
L 6163 0 
L 5038 0 
L 5038 1825 
Q 5041 1866 5042 1909 
Q 5044 1953 5044 2034 
Q 5044 2406 4934 2573 
Q 4825 2741 4581 2741 
Q 4263 2741 4089 2478 
Q 3916 2216 3909 1719 
L 3909 0 
L 2784 0 
L 2784 1825 
Q 2784 2406 2684 2573 
Q 2584 2741 2328 2741 
Q 2006 2741 1831 2477 
Q 1656 2213 1656 1722 
L 1656 0 
L 531 0 
L 531 3500 
L 1656 3500 
L 1656 2988 
Q 1863 3284 2130 3434 
Q 2397 3584 2719 3584 
Q 3081 3584 3359 3409 
Q 3638 3234 3781 2919 
z
" transform="scale(0.015625)"/>
      <path id="DejaVuSans-Bold-62" d="M 2400 722 
Q 2759 722 2948 984 
Q 3138 1247 3138 1747 
Q 3138 2247 2948 2509 
Q 2759 2772 2400 2772 
Q 2041 2772 1848 2508 
Q 1656 2244 1656 1747 
Q 1656 1250 1848 986 
Q 2041 722 2400 722 
z
M 1656 2988 
Q 1888 3294 2169 3439 
Q 2450 3584 2816 3584 
Q 3463 3584 3878 3070 
Q 4294 2556 4294 1747 
Q 4294 938 3878 423 
Q 3463 -91 2816 -91 
Q 2450 -91 2169 54 
Q 1888 200 1656 506 
L 1656 0 
L 538 0 
L 538 4863 
L 1656 4863 
L 1656 2988 
z
" transform="scale(0.015625)"/>
      <path id="DejaVuSans-Bold-69" d="M 538 3500 
L 1656 3500 
L 1656 0 
L 538 0 
L 538 3500 
z
M 538 4863 
L 1656 4863 
L 1656 3950 
L 538 3950 
L 538 4863 
z
" transform="scale(0.015625)"/>
      <path id="DejaVuSans-Bold-65" d="M 4031 1759 
L 4031 1441 
L 1416 1441 
Q 1456 1047 1700 850 
Q 1944 653 2381 653 
Q 2734 653 3104 758 
Q 3475 863 3866 1075 
L 3866 213 
Q 3469 63 3072 -14 
Q 2675 -91 2278 -91 
Q 1328 -91 801 392 
Q 275 875 275 1747 
Q 275 2603 792 3093 
Q 1309 3584 2216 3584 
Q 3041 3584 3536 3087 
Q 4031 2591 4031 1759 
z
M 2881 2131 
Q 2881 2450 2695 2645 
Q 2509 2841 2209 2841 
Q 1884 2841 1681 2658 
Q 1478 2475 1428 2131 
L 2881 2131 
z
" transform="scale(0.015625)"/>
      <path id="DejaVuSans-Bold-73" d="M 3272 3391 
L 3272 2541 
Q 2913 2691 2578 2766 
Q 2244 2841 1947 2841 
Q 1628 2841 1473 2761 
Q 1319 2681 1319 2516 
Q 1319 2381 1436 2309 
Q 1553 2238 1856 2203 
L 2053 2175 
Q 2913 2066 3209 1816 
Q 3506 1566 3506 1031 
Q 3506 472 3093 190 
Q 2681 -91 1863 -91 
Q 1516 -91 1145 -36 
Q 775 19 384 128 
L 384 978 
Q 719 816 1070 734 
Q 1422 653 1784 653 
Q 2113 653 2278 743 
Q 2444 834 2444 1013 
Q 2444 1163 2330 1236 
Q 2216 1309 1875 1350 
L 1678 1375 
Q 931 1469 631 1722 
Q 331 1975 331 2491 
Q 331 3047 712 3315 
Q 1094 3584 1881 3584 
Q 2191 3584 2531 3537 
Q 2872 3491 3272 3391 
z
" transform="scale(0.015625)"/>
      <path id="DejaVuSans-Bold-61" d="M 2106 1575 
Q 1756 1575 1579 1456 
Q 1403 1338 1403 1106 
Q 1403 894 1545 773 
Q 1688 653 1941 653 
Q 2256 653 2472 879 
Q 2688 1106 2688 1447 
L 2688 1575 
L 2106 1575 
z
M 3816 1997 
L 3816 0 
L 2688 0 
L 2688 519 
Q 2463 200 2181 54 
Q 1900 -91 1497 -91 
Q 953 -91 614 226 
Q 275 544 275 1050 
Q 275 1666 698 1953 
Q 1122 2241 2028 2241 
L 2688 2241 
L 2688 2328 
Q 2688 2594 2478 2717 
Q 2269 2841 1825 2841 
Q 1466 2841 1156 2769 
Q 847 2697 581 2553 
L 581 3406 
Q 941 3494 1303 3539 
Q 1666 3584 2028 3584 
Q 2975 3584 3395 3211 
Q 3816 2838 3816 1997 
z
" transform="scale(0.015625)"/>
      <path id="DejaVuSans-Bold-72" d="M 3138 2547 
Q 2991 2616 2845 2648 
Q 2700 2681 2553 2681 
Q 2122 2681 1889 2404 
Q 1656 2128 1656 1613 
L 1656 0 
L 538 0 
L 538 3500 
L 1656 3500 
L 1656 2925 
Q 1872 3269 2151 3426 
Q 2431 3584 2822 3584 
Q 2878 3584 2943 3579 
Q 3009 3575 3134 3559 
L 3138 2547 
z
" transform="scale(0.015625)"/>
     </defs>
     <use xlink:href="#DejaVuSans-Bold-50"/>
     <use xlink:href="#DejaVuSans-Bold-31" transform="translate(73.291016 0)"/>
     <use xlink:href="#DejaVuSans-Bold-3a" transform="translate(142.871094 0)"/>
     <use xlink:href="#DejaVuSans-Bold-20" transform="translate(182.861328 0)"/>
     <use xlink:href="#DejaVuSans-Bold-5a" transform="translate(217.675781 0)"/>
     <use xlink:href="#DejaVuSans-Bold-6f" transform="translate(290.185547 0)"/>
     <use xlink:href="#DejaVuSans-Bold-6d" transform="translate(358.886719 0)"/>
     <use xlink:href="#DejaVuSans-Bold-62" transform="translate(463.085938 0)"/>
     <use xlink:href="#DejaVuSans-Bold-69" transform="translate(534.667969 0)"/>
     <use xlink:href="#DejaVuSans-Bold-65" transform="translate(568.945312 0)"/>
     <use xlink:href="#DejaVuSans-Bold-73" transform="translate(636.767578 0)"/>
     <use xlink:href="#DejaVuSans-Bold-20" transform="translate(696.289062 0)"/>
     <use xlink:href="#DejaVuSans-Bold-61" transform="translate(731.103516 0)"/>
     <use xlink:href="#DejaVuSans-Bold-72" transform="translate(798.583984 0)"/>
     <use xlink:href="#DejaVuSans-Bold-65" transform="translate(847.900391 0)"/>
    </g>
    <!-- conceivable -->
    <g style="fill: #c62828" transform="translate(100.038516 91.223123) scale(0.09 -0.09)">
     <defs>
      <path id="DejaVuSans-Bold-63" d="M 3366 3391 
L 3366 2478 
Q 3138 2634 2908 2709 
Q 2678 2784 2431 2784 
Q 1963 2784 1702 2511 
Q 1441 2238 1441 1747 
Q 1441 1256 1702 982 
Q 1963 709 2431 709 
Q 2694 709 2930 787 
Q 3166 866 3366 1019 
L 3366 103 
Q 3103 6 2833 -42 
Q 2563 -91 2291 -91 
Q 1344 -91 809 395 
Q 275 881 275 1747 
Q 275 2613 809 3098 
Q 1344 3584 2291 3584 
Q 2566 3584 2833 3536 
Q 3100 3488 3366 3391 
z
" transform="scale(0.015625)"/>
      <path id="DejaVuSans-Bold-6e" d="M 4056 2131 
L 4056 0 
L 2931 0 
L 2931 347 
L 2931 1631 
Q 2931 2084 2911 2256 
Q 2891 2428 2841 2509 
Q 2775 2619 2662 2680 
Q 2550 2741 2406 2741 
Q 2056 2741 1856 2470 
Q 1656 2200 1656 1722 
L 1656 0 
L 538 0 
L 538 3500 
L 1656 3500 
L 1656 2988 
Q 1909 3294 2193 3439 
Q 2478 3584 2822 3584 
Q 3428 3584 3742 3212 
Q 4056 2841 4056 2131 
z
" transform="scale(0.015625)"/>
      <path id="DejaVuSans-Bold-76" d="M 97 3500 
L 1216 3500 
L 2088 1081 
L 2956 3500 
L 4078 3500 
L 2700 0 
L 1472 0 
L 97 3500 
z
" transform="scale(0.015625)"/>
      <path id="DejaVuSans-Bold-6c" d="M 538 4863 
L 1656 4863 
L 1656 0 
L 538 0 
L 538 4863 
z
" transform="scale(0.015625)"/>
     </defs>
     <use xlink:href="#DejaVuSans-Bold-63"/>
     <use xlink:href="#DejaVuSans-Bold-6f" transform="translate(59.277344 0)"/>
     <use xlink:href="#DejaVuSans-Bold-6e" transform="translate(127.978516 0)"/>
     <use xlink:href="#DejaVuSans-Bold-63" transform="translate(199.169922 0)"/>
     <use xlink:href="#DejaVuSans-Bold-65" transform="translate(258.447266 0)"/>
     <use xlink:href="#DejaVuSans-Bold-69" transform="translate(326.269531 0)"/>
     <use xlink:href="#DejaVuSans-Bold-76" transform="translate(360.546875 0)"/>
     <use xlink:href="#DejaVuSans-Bold-61" transform="translate(425.732422 0)"/>
     <use xlink:href="#DejaVuSans-Bold-62" transform="translate(493.212891 0)"/>
     <use xlink:href="#DejaVuSans-Bold-6c" transform="translate(564.794922 0)"/>
     <use xlink:href="#DejaVuSans-Bold-65" transform="translate(599.072266 0)"/>
    </g>
   </g>
   <g id="text_2">
    <!-- P2: Conceivable -->
    <g style="fill: #c62828" transform="translate(300.208359 81.145092) scale(0.09 -0.09)">
     <defs>
      <path id="DejaVuSans-Bold-32" d="M 1844 884 
L 3897 884 
L 3897 0 
L 506 0 
L 506 884 
L 2209 2388 
Q 2438 2594 2547 2791 
Q 2656 2988 2656 3200 
Q 2656 3528 2436 3728 
Q 2216 3928 1850 3928 
Q 1569 3928 1234 3808 
Q 900 3688 519 3450 
L 519 4475 
Q 925 4609 1322 4679 
Q 1719 4750 2100 4750 
Q 2938 4750 3402 4381 
Q 3866 4013 3866 3353 
Q 3866 2972 3669 2642 
Q 3472 2313 2841 1759 
L 1844 884 
z
" transform="scale(0.015625)"/>
      <path id="DejaVuSans-Bold-43" d="M 4288 256 
Q 3956 84 3597 -3 
Q 3238 -91 2847 -91 
Q 1681 -91 1000 561 
Q 319 1213 319 2328 
Q 319 3447 1000 4098 
Q 1681 4750 2847 4750 
Q 3238 4750 3597 4662 
Q 3956 4575 4288 4403 
L 4288 3438 
Q 3953 3666 3628 3772 
Q 3303 3878 2944 3878 
Q 2300 3878 1931 3465 
Q 1563 3053 1563 2328 
Q 1563 1606 1931 1193 
Q 2300 781 2944 781 
Q 3303 781 3628 887 
Q 3953 994 4288 1222 
L 4288 256 
z
" transform="scale(0.015625)"/>
     </defs>
     <use xlink:href="#DejaVuSans-Bold-50"/>
     <use xlink:href="#DejaVuSans-Bold-32" transform="translate(73.291016 0)"/>
     <use xlink:href="#DejaVuSans-Bold-3a" transform="translate(142.871094 0)"/>
     <use xlink:href="#DejaVuSans-Bold-20" transform="translate(182.861328 0)"/>
     <use xlink:href="#DejaVuSans-Bold-43" transform="translate(217.675781 0)"/>
     <use xlink:href="#DejaVuSans-Bold-6f" transform="translate(291.064453 0)"/>
     <use xlink:href="#DejaVuSans-Bold-6e" transform="translate(359.765625 0)"/>
     <use xlink:href="#DejaVuSans-Bold-63" transform="translate(430.957031 0)"/>
     <use xlink:href="#DejaVuSans-Bold-65" transform="translate(490.234375 0)"/>
     <use xlink:href="#DejaVuSans-Bold-69" transform="translate(558.056641 0)"/>
     <use xlink:href="#DejaVuSans-Bold-76" transform="translate(592.333984 0)"/>
     <use xlink:href="#DejaVuSans-Bold-61" transform="translate(657.519531 0)"/>
     <use xlink:href="#DejaVuSans-Bold-62" transform="translate(725 0)"/>
     <use xlink:href="#DejaVuSans-Bold-6c" transform="translate(796.582031 0)"/>
     <use xlink:href="#DejaVuSans-Bold-65" transform="translate(830.859375 0)"/>
    </g>
    <!-- → Possible -->
    <g style="fill: #c62828" transform="translate(314.207578 91.223123) scale(0.09 -0.09)">
     <defs>
      <path id="DejaVuSans-Bold-2192" d="M 5050 2225 
L 5050 1788 
L 3822 559 
L 3369 1013 
L 3988 1631 
L 366 1631 
L 366 2381 
L 3988 2381 
L 3369 3000 
L 3822 3453 
L 5050 2225 
z
" transform="scale(0.015625)"/>
     </defs>
     <use xlink:href="#DejaVuSans-Bold-2192"/>
     <use xlink:href="#DejaVuSans-Bold-20" transform="translate(83.789062 0)"/>
     <use xlink:href="#DejaVuSans-Bold-50" transform="translate(118.603516 0)"/>
     <use xlink:href="#DejaVuSans-Bold-6f" transform="translate(191.894531 0)"/>
     <use xlink:href="#DejaVuSans-Bold-73" transform="translate(260.595703 0)"/>
     <use xlink:href="#DejaVuSans-Bold-73" transform="translate(320.117188 0)"/>
     <use xlink:href="#DejaVuSans-Bold-69" transform="translate(379.638672 0)"/>
     <use xlink:href="#DejaVuSans-Bold-62" transform="translate(413.916016 0)"/>
     <use xlink:href="#DejaVuSans-Bold-6c" transform="translate(485.498047 0)"/>
     <use xlink:href="#DejaVuSans-Bold-65" transform="translate(519.775391 0)"/>
    </g>
   </g>
   <g id="text_3">
    <!-- P3: Possible → -->
    <g style="fill: #c62828" transform="translate(515.012344 81.109935) scale(0.09 -0.09)">
     <defs>
      <path id="DejaVuSans-Bold-33" d="M 2981 2516 
Q 3453 2394 3698 2092 
Q 3944 1791 3944 1325 
Q 3944 631 3412 270 
Q 2881 -91 1863 -91 
Q 1503 -91 1142 -33 
Q 781 25 428 141 
L 428 1069 
Q 766 900 1098 814 
Q 1431 728 1753 728 
Q 2231 728 2486 893 
Q 2741 1059 2741 1369 
Q 2741 1688 2480 1852 
Q 2219 2016 1709 2016 
L 1228 2016 
L 1228 2791 
L 1734 2791 
Q 2188 2791 2409 2933 
Q 2631 3075 2631 3366 
Q 2631 3634 2415 3781 
Q 2200 3928 1806 3928 
Q 1516 3928 1219 3862 
Q 922 3797 628 3669 
L 628 4550 
Q 984 4650 1334 4700 
Q 1684 4750 2022 4750 
Q 2931 4750 3382 4451 
Q 3834 4153 3834 3553 
Q 3834 3144 3618 2883 
Q 3403 2622 2981 2516 
z
" transform="scale(0.015625)"/>
     </defs>
     <use xlink:href="#DejaVuSans-Bold-50"/>
     <use xlink:href="#DejaVuSans-Bold-33" transform="translate(73.291016 0)"/>
     <use xlink:href="#DejaVuSans-Bold-3a" transform="translate(142.871094 0)"/>
     <use xlink:href="#DejaVuSans-Bold-20" transform="translate(182.861328 0)"/>
     <use xlink:href="#DejaVuSans-Bold-50" transform="translate(217.675781 0)"/>
     <use xlink:href="#DejaVuSans-Bold-6f" transform="translate(290.966797 0)"/>
     <use xlink:href="#DejaVuSans-Bold-73" transform="translate(359.667969 0)"/>
     <use xlink:href="#DejaVuSans-Bold-73" transform="translate(419.189453 0)"/>
     <use xlink:href="#DejaVuSans-Bold-69" transform="translate(478.710938 0)"/>
     <use xlink:href="#DejaVuSans-Bold-62" transform="translate(512.988281 0)"/>
     <use xlink:href="#DejaVuSans-Bold-6c" transform="translate(584.570312 0)"/>
     <use xlink:href="#DejaVuSans-Bold-65" transform="translate(618.847656 0)"/>
     <use xlink:href="#DejaVuSans-Bold-20" transform="translate(686.669922 0)"/>
     <use xlink:href="#DejaVuSans-Bold-2192" transform="translate(721.484375 0)"/>
    </g>
    <!-- Non-physical -->
    <g style="fill: #c62828" transform="translate(518.495625 91.187967) scale(0.09 -0.09)">
     <defs>
      <path id="DejaVuSans-Bold-4e" d="M 588 4666 
L 1931 4666 
L 3628 1466 
L 3628 4666 
L 4769 4666 
L 4769 0 
L 3425 0 
L 1728 3200 
L 1728 0 
L 588 0 
L 588 4666 
z
" transform="scale(0.015625)"/>
      <path id="DejaVuSans-Bold-2d" d="M 347 2297 
L 2309 2297 
L 2309 1388 
L 347 1388 
L 347 2297 
z
" transform="scale(0.015625)"/>
      <path id="DejaVuSans-Bold-70" d="M 1656 506 
L 1656 -1331 
L 538 -1331 
L 538 3500 
L 1656 3500 
L 1656 2988 
Q 1888 3294 2169 3439 
Q 2450 3584 2816 3584 
Q 3463 3584 3878 3070 
Q 4294 2556 4294 1747 
Q 4294 938 3878 423 
Q 3463 -91 2816 -91 
Q 2450 -91 2169 54 
Q 1888 200 1656 506 
z
M 2400 2772 
Q 2041 2772 1848 2508 
Q 1656 2244 1656 1747 
Q 1656 1250 1848 986 
Q 2041 722 2400 722 
Q 2759 722 2948 984 
Q 3138 1247 3138 1747 
Q 3138 2247 2948 2509 
Q 2759 2772 2400 2772 
z
" transform="scale(0.015625)"/>
      <path id="DejaVuSans-Bold-68" d="M 4056 2131 
L 4056 0 
L 2931 0 
L 2931 347 
L 2931 1625 
Q 2931 2084 2911 2256 
Q 2891 2428 2841 2509 
Q 2775 2619 2662 2680 
Q 2550 2741 2406 2741 
Q 2056 2741 1856 2470 
Q 1656 2200 1656 1722 
L 1656 0 
L 538 0 
L 538 4863 
L 1656 4863 
L 1656 2988 
Q 1909 3294 2193 3439 
Q 2478 3584 2822 3584 
Q 3428 3584 3742 3212 
Q 4056 2841 4056 2131 
z
" transform="scale(0.015625)"/>
      <path id="DejaVuSans-Bold-79" d="M 78 3500 
L 1197 3500 
L 2138 1125 
L 2938 3500 
L 4056 3500 
L 2584 -331 
Q 2363 -916 2067 -1148 
Q 1772 -1381 1288 -1381 
L 641 -1381 
L 641 -647 
L 991 -647 
Q 1275 -647 1404 -556 
Q 1534 -466 1606 -231 
L 1638 -134 
L 78 3500 
z
" transform="scale(0.015625)"/>
     </defs>
     <use xlink:href="#DejaVuSans-Bold-4e"/>
     <use xlink:href="#DejaVuSans-Bold-6f" transform="translate(83.691406 0)"/>
     <use xlink:href="#DejaVuSans-Bold-6e" transform="translate(152.392578 0)"/>
     <use xlink:href="#DejaVuSans-Bold-2d" transform="translate(223.583984 0)"/>
     <use xlink:href="#DejaVuSans-Bold-70" transform="translate(265.087891 0)"/>
     <use xlink:href="#DejaVuSans-Bold-68" transform="translate(336.669922 0)"/>
     <use xlink:href="#DejaVuSans-Bold-79" transform="translate(407.861328 0)"/>
     <use xlink:href="#DejaVuSans-Bold-73" transform="translate(473.046875 0)"/>
     <use xlink:href="#DejaVuSans-Bold-69" transform="translate(532.568359 0)"/>
     <use xlink:href="#DejaVuSans-Bold-63" transform="translate(566.845703 0)"/>
     <use xlink:href="#DejaVuSans-Bold-61" transform="translate(626.123047 0)"/>
     <use xlink:href="#DejaVuSans-Bold-6c" transform="translate(693.603516 0)"/>
    </g>
   </g>
   <g id="text_4">
    <!-- C: Physicalism -->
    <g style="fill: #c62828" transform="translate(714.838359 81.109935) scale(0.09 -0.09)">
     <use xlink:href="#DejaVuSans-Bold-43"/>
     <use xlink:href="#DejaVuSans-Bold-3a" transform="translate(73.388672 0)"/>
     <use xlink:href="#DejaVuSans-Bold-20" transform="translate(113.378906 0)"/>
     <use xlink:href="#DejaVuSans-Bold-50" transform="translate(148.193359 0)"/>
     <use xlink:href="#DejaVuSans-Bold-68" transform="translate(221.484375 0)"/>
     <use xlink:href="#DejaVuSans-Bold-79" transform="translate(292.675781 0)"/>
     <use xlink:href="#DejaVuSans-Bold-73" transform="translate(357.861328 0)"/>
     <use xlink:href="#DejaVuSans-Bold-69" transform="translate(417.382812 0)"/>
     <use xlink:href="#DejaVuSans-Bold-63" transform="translate(451.660156 0)"/>
     <use xlink:href="#DejaVuSans-Bold-61" transform="translate(510.9375 0)"/>
     <use xlink:href="#DejaVuSans-Bold-6c" transform="translate(578.417969 0)"/>
     <use xlink:href="#DejaVuSans-Bold-69" transform="translate(612.695312 0)"/>
     <use xlink:href="#DejaVuSans-Bold-73" transform="translate(646.972656 0)"/>
     <use xlink:href="#DejaVuSans-Bold-6d" transform="translate(706.494141 0)"/>
    </g>
    <!-- is false -->
    <g style="fill: #c62828" transform="translate(733.265156 91.258279) scale(0.09 -0.09)">
     <defs>
      <path id="DejaVuSans-Bold-66" d="M 2841 4863 
L 2841 4128 
L 2222 4128 
Q 1984 4128 1890 4042 
Q 1797 3956 1797 3744 
L 1797 3500 
L 2753 3500 
L 2753 2700 
L 1797 2700 
L 1797 0 
L 678 0 
L 678 2700 
L 122 2700 
L 122 3500 
L 678 3500 
L 678 3744 
Q 678 4316 997 4589 
Q 1316 4863 1984 4863 
L 2841 4863 
z
" transform="scale(0.015625)"/>
     </defs>
     <use xlink:href="#DejaVuSans-Bold-69"/>
     <use xlink:href="#DejaVuSans-Bold-73" transform="translate(34.277344 0)"/>
     <use xlink:href="#DejaVuSans-Bold-20" transform="translate(93.798828 0)"/>
     <use xlink:href="#DejaVuSans-Bold-66" transform="translate(128.613281 0)"/>
     <use xlink:href="#DejaVuSans-Bold-61" transform="translate(172.119141 0)"/>
     <use xlink:href="#DejaVuSans-Bold-6c" transform="translate(239.599609 0)"/>
     <use xlink:href="#DejaVuSans-Bold-73" transform="translate(273.876953 0)"/>
     <use xlink:href="#DejaVuSans-Bold-65" transform="translate(333.398438 0)"/>
    </g>
   </g>
   <g id="patch_11">
    <path d="M 219.80094 83.70067 
Q 235.350468 83.70067 248.663928 83.70067 
" style="fill: none; stroke: #c62828; stroke-width: 2; stroke-linecap: round"/>
    <path d="M 244.663928 81.70067 
L 248.663928 83.70067 
L 244.663928 85.70067 
" style="fill: none; stroke: #c62828; stroke-width: 2; stroke-linecap: round"/>
   </g>
   <g id="patch_12">
    <path d="M 430.40094 83.70067 
Q 445.950468 83.70067 459.263928 83.70067 
" style="fill: none; stroke: #c62828; stroke-width: 2; stroke-linecap: round"/>
    <path d="M 455.263928 81.70067 
L 459.263928 83.70067 
L 455.263928 85.70067 
" style="fill: none; stroke: #c62828; stroke-width: 2; stroke-linecap: round"/>
   </g>
   <g id="patch_13">
    <path d="M 641.00094 83.70067 
Q 656.550468 83.70067 669.863928 83.70067 
" style="fill: none; stroke: #c62828; stroke-width: 2; stroke-linecap: round"/>
    <path d="M 665.863928 81.70067 
L 669.863928 83.70067 
L 665.863928 85.70067 
" style="fill: none; stroke: #c62828; stroke-width: 2; stroke-linecap: round"/>
   </g>
   <g id="text_5">
    <!-- R1: Causal Info -->
    <g style="fill: #2e7d32" transform="translate(92.535 228.748116) scale(0.08 -0.08)">
     <defs>
      <path id="DejaVuSans-Bold-52" d="M 2297 2597 
Q 2675 2597 2839 2737 
Q 3003 2878 3003 3200 
Q 3003 3519 2839 3656 
Q 2675 3794 2297 3794 
L 1791 3794 
L 1791 2597 
L 2297 2597 
z
M 1791 1766 
L 1791 0 
L 588 0 
L 588 4666 
L 2425 4666 
Q 3347 4666 3776 4356 
Q 4206 4047 4206 3378 
Q 4206 2916 3982 2619 
Q 3759 2322 3309 2181 
Q 3556 2125 3751 1926 
Q 3947 1728 4147 1325 
L 4800 0 
L 3519 0 
L 2950 1159 
Q 2778 1509 2601 1637 
Q 2425 1766 2131 1766 
L 1791 1766 
z
" transform="scale(0.015625)"/>
      <path id="DejaVuSans-Bold-75" d="M 500 1363 
L 500 3500 
L 1625 3500 
L 1625 3150 
Q 1625 2866 1622 2436 
Q 1619 2006 1619 1863 
Q 1619 1441 1641 1255 
Q 1663 1069 1716 984 
Q 1784 875 1895 815 
Q 2006 756 2150 756 
Q 2500 756 2700 1025 
Q 2900 1294 2900 1772 
L 2900 3500 
L 4019 3500 
L 4019 0 
L 2900 0 
L 2900 506 
Q 2647 200 2364 54 
Q 2081 -91 1741 -91 
Q 1134 -91 817 281 
Q 500 653 500 1363 
z
" transform="scale(0.015625)"/>
      <path id="DejaVuSans-Bold-49" d="M 588 4666 
L 1791 4666 
L 1791 0 
L 588 0 
L 588 4666 
z
" transform="scale(0.015625)"/>
     </defs>
     <use xlink:href="#DejaVuSans-Bold-52"/>
     <use xlink:href="#DejaVuSans-Bold-31" transform="translate(77.001953 0)"/>
     <use xlink:href="#DejaVuSans-Bold-3a" transform="translate(146.582031 0)"/>
     <use xlink:href="#DejaVuSans-Bold-20" transform="translate(186.572266 0)"/>
     <use xlink:href="#DejaVuSans-Bold-43" transform="translate(221.386719 0)"/>
     <use xlink:href="#DejaVuSans-Bold-61" transform="translate(294.775391 0)"/>
     <use xlink:href="#DejaVuSans-Bold-75" transform="translate(362.255859 0)"/>
     <use xlink:href="#DejaVuSans-Bold-73" transform="translate(433.447266 0)"/>
     <use xlink:href="#DejaVuSans-Bold-61" transform="translate(492.96875 0)"/>
     <use xlink:href="#DejaVuSans-Bold-6c" transform="translate(560.449219 0)"/>
     <use xlink:href="#DejaVuSans-Bold-20" transform="translate(594.726562 0)"/>
     <use xlink:href="#DejaVuSans-Bold-49" transform="translate(629.541016 0)"/>
     <use xlink:href="#DejaVuSans-Bold-6e" transform="translate(666.748047 0)"/>
     <use xlink:href="#DejaVuSans-Bold-66" transform="translate(737.939453 0)"/>
     <use xlink:href="#DejaVuSans-Bold-6f" transform="translate(781.445312 0)"/>
    </g>
    <!-- Identity -->
    <g style="fill: #2e7d32" transform="translate(108.825625 237.706366) scale(0.08 -0.08)">
     <defs>
      <path id="DejaVuSans-Bold-64" d="M 2919 2988 
L 2919 4863 
L 4044 4863 
L 4044 0 
L 2919 0 
L 2919 506 
Q 2688 197 2409 53 
Q 2131 -91 1766 -91 
Q 1119 -91 703 423 
Q 288 938 288 1747 
Q 288 2556 703 3070 
Q 1119 3584 1766 3584 
Q 2128 3584 2408 3439 
Q 2688 3294 2919 2988 
z
M 2181 722 
Q 2541 722 2730 984 
Q 2919 1247 2919 1747 
Q 2919 2247 2730 2509 
Q 2541 2772 2181 2772 
Q 1825 2772 1636 2509 
Q 1447 2247 1447 1747 
Q 1447 1247 1636 984 
Q 1825 722 2181 722 
z
" transform="scale(0.015625)"/>
      <path id="DejaVuSans-Bold-74" d="M 1759 4494 
L 1759 3500 
L 2913 3500 
L 2913 2700 
L 1759 2700 
L 1759 1216 
Q 1759 972 1856 886 
Q 1953 800 2241 800 
L 2816 800 
L 2816 0 
L 1856 0 
Q 1194 0 917 276 
Q 641 553 641 1216 
L 641 2700 
L 84 2700 
L 84 3500 
L 641 3500 
L 641 4494 
L 1759 4494 
z
" transform="scale(0.015625)"/>
     </defs>
     <use xlink:href="#DejaVuSans-Bold-49"/>
     <use xlink:href="#DejaVuSans-Bold-64" transform="translate(37.207031 0)"/>
     <use xlink:href="#DejaVuSans-Bold-65" transform="translate(108.789062 0)"/>
     <use xlink:href="#DejaVuSans-Bold-6e" transform="translate(176.611328 0)"/>
     <use xlink:href="#DejaVuSans-Bold-74" transform="translate(247.802734 0)"/>
     <use xlink:href="#DejaVuSans-Bold-69" transform="translate(295.605469 0)"/>
     <use xlink:href="#DejaVuSans-Bold-74" transform="translate(329.882812 0)"/>
     <use xlink:href="#DejaVuSans-Bold-79" transform="translate(377.685547 0)"/>
    </g>
    <!-- Φ(Z)=Φ(C) → Z is -->
    <g style="fill: #2e7d32" transform="translate(89.05625 246.727116) scale(0.08 -0.08)">
     <defs>
      <path id="DejaVuSans-Bold-3a6" d="M 2119 3213 
Q 1975 3153 1866 3059 
Q 1563 2800 1563 2328 
Q 1563 1847 1866 1600 
Q 1972 1506 2119 1447 
L 2119 3213 
z
M 3322 1447 
Q 3469 1506 3575 1600 
Q 3878 1884 3878 2328 
Q 3878 2788 3575 3059 
Q 3472 3153 3322 3213 
L 3322 1447 
z
M 2119 506 
Q 1416 606 956 963 
Q 319 1456 319 2328 
Q 319 3203 956 3697 
Q 1416 4053 2119 4153 
L 2119 4666 
L 3322 4666 
L 3322 4153 
Q 4025 4053 4481 3697 
Q 5119 3203 5119 2328 
Q 5119 1456 4481 963 
Q 4025 609 3322 506 
L 3322 0 
L 2119 0 
L 2119 506 
z
" transform="scale(0.015625)"/>
      <path id="DejaVuSans-Bold-28" d="M 2413 -844 
L 1484 -844 
Q 1006 -72 778 623 
Q 550 1319 550 2003 
Q 550 2688 779 3389 
Q 1009 4091 1484 4856 
L 2413 4856 
Q 2013 4116 1813 3408 
Q 1613 2700 1613 2009 
Q 1613 1319 1811 609 
Q 2009 -100 2413 -844 
z
" transform="scale(0.015625)"/>
      <path id="DejaVuSans-Bold-29" d="M 513 -844 
Q 913 -100 1113 609 
Q 1313 1319 1313 2009 
Q 1313 2700 1113 3408 
Q 913 4116 513 4856 
L 1441 4856 
Q 1916 4091 2145 3389 
Q 2375 2688 2375 2003 
Q 2375 1319 2147 623 
Q 1919 -72 1441 -844 
L 513 -844 
z
" transform="scale(0.015625)"/>
      <path id="DejaVuSans-Bold-3d" d="M 678 3084 
L 4684 3084 
L 4684 2350 
L 678 2350 
L 678 3084 
z
M 678 1663 
L 4684 1663 
L 4684 922 
L 678 922 
L 678 1663 
z
" transform="scale(0.015625)"/>
     </defs>
     <use xlink:href="#DejaVuSans-Bold-3a6"/>
     <use xlink:href="#DejaVuSans-Bold-28" transform="translate(85.009766 0)"/>
     <use xlink:href="#DejaVuSans-Bold-5a" transform="translate(130.712891 0)"/>
     <use xlink:href="#DejaVuSans-Bold-29" transform="translate(203.222656 0)"/>
     <use xlink:href="#DejaVuSans-Bold-3d" transform="translate(248.925781 0)"/>
     <use xlink:href="#DejaVuSans-Bold-3a6" transform="translate(332.714844 0)"/>
     <use xlink:href="#DejaVuSans-Bold-28" transform="translate(417.724609 0)"/>
     <use xlink:href="#DejaVuSans-Bold-43" transform="translate(463.427734 0)"/>
     <use xlink:href="#DejaVuSans-Bold-29" transform="translate(536.816406 0)"/>
     <use xlink:href="#DejaVuSans-Bold-20" transform="translate(582.519531 0)"/>
     <use xlink:href="#DejaVuSans-Bold-2192" transform="translate(617.333984 0)"/>
     <use xlink:href="#DejaVuSans-Bold-20" transform="translate(701.123047 0)"/>
     <use xlink:href="#DejaVuSans-Bold-5a" transform="translate(735.9375 0)"/>
     <use xlink:href="#DejaVuSans-Bold-20" transform="translate(808.447266 0)"/>
     <use xlink:href="#DejaVuSans-Bold-69" transform="translate(843.261719 0)"/>
     <use xlink:href="#DejaVuSans-Bold-73" transform="translate(877.539062 0)"/>
    </g>
    <!-- conscious -->
    <g style="fill: #2e7d32" transform="translate(104.47375 255.685366) scale(0.08 -0.08)">
     <use xlink:href="#DejaVuSans-Bold-63"/>
     <use xlink:href="#DejaVuSans-Bold-6f" transform="translate(59.277344 0)"/>
     <use xlink:href="#DejaVuSans-Bold-6e" transform="translate(127.978516 0)"/>
     <use xlink:href="#DejaVuSans-Bold-73" transform="translate(199.169922 0)"/>
     <use xlink:href="#DejaVuSans-Bold-63" transform="translate(258.691406 0)"/>
     <use xlink:href="#DejaVuSans-Bold-69" transform="translate(317.96875 0)"/>
     <use xlink:href="#DejaVuSans-Bold-6f" transform="translate(352.246094 0)"/>
     <use xlink:href="#DejaVuSans-Bold-75" transform="translate(420.947266 0)"/>
     <use xlink:href="#DejaVuSans-Bold-73" transform="translate(492.138672 0)"/>
    </g>
   </g>
   <g id="text_6">
    <!-- R2: Information -->
    <g style="fill: #2e7d32" transform="translate(301.7425 228.748116) scale(0.08 -0.08)">
     <use xlink:href="#DejaVuSans-Bold-52"/>
     <use xlink:href="#DejaVuSans-Bold-32" transform="translate(77.001953 0)"/>
     <use xlink:href="#DejaVuSans-Bold-3a" transform="translate(146.582031 0)"/>
     <use xlink:href="#DejaVuSans-Bold-20" transform="translate(186.572266 0)"/>
     <use xlink:href="#DejaVuSans-Bold-49" transform="translate(221.386719 0)"/>
     <use xlink:href="#DejaVuSans-Bold-6e" transform="translate(258.59375 0)"/>
     <use xlink:href="#DejaVuSans-Bold-66" transform="translate(329.785156 0)"/>
     <use xlink:href="#DejaVuSans-Bold-6f" transform="translate(373.291016 0)"/>
     <use xlink:href="#DejaVuSans-Bold-72" transform="translate(441.992188 0)"/>
     <use xlink:href="#DejaVuSans-Bold-6d" transform="translate(491.308594 0)"/>
     <use xlink:href="#DejaVuSans-Bold-61" transform="translate(595.507812 0)"/>
     <use xlink:href="#DejaVuSans-Bold-74" transform="translate(662.988281 0)"/>
     <use xlink:href="#DejaVuSans-Bold-69" transform="translate(710.791016 0)"/>
     <use xlink:href="#DejaVuSans-Bold-6f" transform="translate(745.068359 0)"/>
     <use xlink:href="#DejaVuSans-Bold-6e" transform="translate(813.769531 0)"/>
    </g>
    <!-- Closure -->
    <g style="fill: #2e7d32" transform="translate(320.17125 237.706366) scale(0.08 -0.08)">
     <use xlink:href="#DejaVuSans-Bold-43"/>
     <use xlink:href="#DejaVuSans-Bold-6c" transform="translate(73.388672 0)"/>
     <use xlink:href="#DejaVuSans-Bold-6f" transform="translate(107.666016 0)"/>
     <use xlink:href="#DejaVuSans-Bold-73" transform="translate(176.367188 0)"/>
     <use xlink:href="#DejaVuSans-Bold-75" transform="translate(235.888672 0)"/>
     <use xlink:href="#DejaVuSans-Bold-72" transform="translate(307.080078 0)"/>
     <use xlink:href="#DejaVuSans-Bold-65" transform="translate(356.396484 0)"/>
    </g>
    <!-- Cannot subtract I -->
    <g style="fill: #2e7d32" transform="translate(297.91875 246.664616) scale(0.08 -0.08)">
     <use xlink:href="#DejaVuSans-Bold-43"/>
     <use xlink:href="#DejaVuSans-Bold-61" transform="translate(73.388672 0)"/>
     <use xlink:href="#DejaVuSans-Bold-6e" transform="translate(140.869141 0)"/>
     <use xlink:href="#DejaVuSans-Bold-6e" transform="translate(212.060547 0)"/>
     <use xlink:href="#DejaVuSans-Bold-6f" transform="translate(283.251953 0)"/>
     <use xlink:href="#DejaVuSans-Bold-74" transform="translate(351.953125 0)"/>
     <use xlink:href="#DejaVuSans-Bold-20" transform="translate(399.755859 0)"/>
     <use xlink:href="#DejaVuSans-Bold-73" transform="translate(434.570312 0)"/>
     <use xlink:href="#DejaVuSans-Bold-75" transform="translate(494.091797 0)"/>
     <use xlink:href="#DejaVuSans-Bold-62" transform="translate(565.283203 0)"/>
     <use xlink:href="#DejaVuSans-Bold-74" transform="translate(636.865234 0)"/>
     <use xlink:href="#DejaVuSans-Bold-72" transform="translate(684.667969 0)"/>
     <use xlink:href="#DejaVuSans-Bold-61" transform="translate(733.984375 0)"/>
     <use xlink:href="#DejaVuSans-Bold-63" transform="translate(801.464844 0)"/>
     <use xlink:href="#DejaVuSans-Bold-74" transform="translate(860.742188 0)"/>
     <use xlink:href="#DejaVuSans-Bold-20" transform="translate(908.544922 0)"/>
     <use xlink:href="#DejaVuSans-Bold-49" transform="translate(943.359375 0)"/>
    </g>
    <!-- without changing S -->
    <g style="fill: #2e7d32" transform="translate(293.43 255.622866) scale(0.08 -0.08)">
     <defs>
      <path id="DejaVuSans-Bold-77" d="M 225 3500 
L 1313 3500 
L 1900 1088 
L 2491 3500 
L 3425 3500 
L 4013 1113 
L 4603 3500 
L 5691 3500 
L 4769 0 
L 3547 0 
L 2956 2406 
L 2369 0 
L 1147 0 
L 225 3500 
z
" transform="scale(0.015625)"/>
      <path id="DejaVuSans-Bold-67" d="M 2919 594 
Q 2688 288 2409 144 
Q 2131 0 1766 0 
Q 1125 0 706 504 
Q 288 1009 288 1791 
Q 288 2575 706 3076 
Q 1125 3578 1766 3578 
Q 2131 3578 2409 3434 
Q 2688 3291 2919 2981 
L 2919 3500 
L 4044 3500 
L 4044 353 
Q 4044 -491 3511 -936 
Q 2978 -1381 1966 -1381 
Q 1638 -1381 1331 -1331 
Q 1025 -1281 716 -1178 
L 716 -306 
Q 1009 -475 1290 -558 
Q 1572 -641 1856 -641 
Q 2406 -641 2662 -400 
Q 2919 -159 2919 353 
L 2919 594 
z
M 2181 2772 
Q 1834 2772 1640 2515 
Q 1447 2259 1447 1791 
Q 1447 1309 1634 1061 
Q 1822 813 2181 813 
Q 2531 813 2725 1069 
Q 2919 1325 2919 1791 
Q 2919 2259 2725 2515 
Q 2531 2772 2181 2772 
z
" transform="scale(0.015625)"/>
      <path id="DejaVuSans-Bold-53" d="M 3834 4519 
L 3834 3531 
Q 3450 3703 3084 3790 
Q 2719 3878 2394 3878 
Q 1963 3878 1756 3759 
Q 1550 3641 1550 3391 
Q 1550 3203 1689 3098 
Q 1828 2994 2194 2919 
L 2706 2816 
Q 3484 2659 3812 2340 
Q 4141 2022 4141 1434 
Q 4141 663 3683 286 
Q 3225 -91 2284 -91 
Q 1841 -91 1394 -6 
Q 947 78 500 244 
L 500 1259 
Q 947 1022 1364 901 
Q 1781 781 2169 781 
Q 2563 781 2772 912 
Q 2981 1044 2981 1288 
Q 2981 1506 2839 1625 
Q 2697 1744 2272 1838 
L 1806 1941 
Q 1106 2091 782 2419 
Q 459 2747 459 3303 
Q 459 4000 909 4375 
Q 1359 4750 2203 4750 
Q 2588 4750 2994 4692 
Q 3400 4634 3834 4519 
z
" transform="scale(0.015625)"/>
     </defs>
     <use xlink:href="#DejaVuSans-Bold-77"/>
     <use xlink:href="#DejaVuSans-Bold-69" transform="translate(92.382812 0)"/>
     <use xlink:href="#DejaVuSans-Bold-74" transform="translate(126.660156 0)"/>
     <use xlink:href="#DejaVuSans-Bold-68" transform="translate(174.462891 0)"/>
     <use xlink:href="#DejaVuSans-Bold-6f" transform="translate(245.654297 0)"/>
     <use xlink:href="#DejaVuSans-Bold-75" transform="translate(314.355469 0)"/>
     <use xlink:href="#DejaVuSans-Bold-74" transform="translate(385.546875 0)"/>
     <use xlink:href="#DejaVuSans-Bold-20" transform="translate(433.349609 0)"/>
     <use xlink:href="#DejaVuSans-Bold-63" transform="translate(468.164062 0)"/>
     <use xlink:href="#DejaVuSans-Bold-68" transform="translate(527.441406 0)"/>
     <use xlink:href="#DejaVuSans-Bold-61" transform="translate(598.632812 0)"/>
     <use xlink:href="#DejaVuSans-Bold-6e" transform="translate(666.113281 0)"/>
     <use xlink:href="#DejaVuSans-Bold-67" transform="translate(737.304688 0)"/>
     <use xlink:href="#DejaVuSans-Bold-69" transform="translate(808.886719 0)"/>
     <use xlink:href="#DejaVuSans-Bold-6e" transform="translate(843.164062 0)"/>
     <use xlink:href="#DejaVuSans-Bold-67" transform="translate(914.355469 0)"/>
     <use xlink:href="#DejaVuSans-Bold-20" transform="translate(985.9375 0)"/>
     <use xlink:href="#DejaVuSans-Bold-53" transform="translate(1020.751953 0)"/>
    </g>
   </g>
   <g id="text_7">
    <!-- R3: Compression -->
    <g style="fill: #2e7d32" transform="translate(509.75625 228.615866) scale(0.08 -0.08)">
     <use xlink:href="#DejaVuSans-Bold-52"/>
     <use xlink:href="#DejaVuSans-Bold-33" transform="translate(77.001953 0)"/>
     <use xlink:href="#DejaVuSans-Bold-3a" transform="translate(146.582031 0)"/>
     <use xlink:href="#DejaVuSans-Bold-20" transform="translate(186.572266 0)"/>
     <use xlink:href="#DejaVuSans-Bold-43" transform="translate(221.386719 0)"/>
     <use xlink:href="#DejaVuSans-Bold-6f" transform="translate(294.775391 0)"/>
     <use xlink:href="#DejaVuSans-Bold-6d" transform="translate(363.476562 0)"/>
     <use xlink:href="#DejaVuSans-Bold-70" transform="translate(467.675781 0)"/>
     <use xlink:href="#DejaVuSans-Bold-72" transform="translate(539.257812 0)"/>
     <use xlink:href="#DejaVuSans-Bold-65" transform="translate(588.574219 0)"/>
     <use xlink:href="#DejaVuSans-Bold-73" transform="translate(656.396484 0)"/>
     <use xlink:href="#DejaVuSans-Bold-73" transform="translate(715.917969 0)"/>
     <use xlink:href="#DejaVuSans-Bold-69" transform="translate(775.439453 0)"/>
     <use xlink:href="#DejaVuSans-Bold-6f" transform="translate(809.716797 0)"/>
     <use xlink:href="#DejaVuSans-Bold-6e" transform="translate(878.417969 0)"/>
    </g>
    <!-- Argument -->
    <g style="fill: #2e7d32" transform="translate(525.320625 237.574116) scale(0.08 -0.08)">
     <defs>
      <path id="DejaVuSans-Bold-41" d="M 3419 850 
L 1538 850 
L 1241 0 
L 31 0 
L 1759 4666 
L 3194 4666 
L 4922 0 
L 3713 0 
L 3419 850 
z
M 1838 1716 
L 3116 1716 
L 2478 3572 
L 1838 1716 
z
" transform="scale(0.015625)"/>
     </defs>
     <use xlink:href="#DejaVuSans-Bold-41"/>
     <use xlink:href="#DejaVuSans-Bold-72" transform="translate(77.392578 0)"/>
     <use xlink:href="#DejaVuSans-Bold-67" transform="translate(126.708984 0)"/>
     <use xlink:href="#DejaVuSans-Bold-75" transform="translate(198.291016 0)"/>
     <use xlink:href="#DejaVuSans-Bold-6d" transform="translate(269.482422 0)"/>
     <use xlink:href="#DejaVuSans-Bold-65" transform="translate(373.681641 0)"/>
     <use xlink:href="#DejaVuSans-Bold-6e" transform="translate(441.503906 0)"/>
     <use xlink:href="#DejaVuSans-Bold-74" transform="translate(512.695312 0)"/>
    </g>
    <!-- K(R|Φ) &lt; K(R) -->
    <g style="fill: #2e7d32" transform="translate(517.07 246.636866) scale(0.08 -0.08)">
     <defs>
      <path id="DejaVuSans-Bold-4b" d="M 588 4666 
L 1791 4666 
L 1791 2963 
L 3525 4666 
L 4922 4666 
L 2675 2456 
L 5153 0 
L 3647 0 
L 1791 1838 
L 1791 0 
L 588 0 
L 588 4666 
z
" transform="scale(0.015625)"/>
      <path id="DejaVuSans-Bold-7c" d="M 1522 4891 
L 1522 -1509 
L 813 -1509 
L 813 4891 
L 1522 4891 
z
" transform="scale(0.015625)"/>
      <path id="DejaVuSans-Bold-3c" d="M 4684 3041 
L 1672 2003 
L 4684 972 
L 4684 191 
L 678 1638 
L 678 2375 
L 4684 3822 
L 4684 3041 
z
" transform="scale(0.015625)"/>
     </defs>
     <use xlink:href="#DejaVuSans-Bold-4b"/>
     <use xlink:href="#DejaVuSans-Bold-28" transform="translate(77.490234 0)"/>
     <use xlink:href="#DejaVuSans-Bold-52" transform="translate(123.193359 0)"/>
     <use xlink:href="#DejaVuSans-Bold-7c" transform="translate(200.195312 0)"/>
     <use xlink:href="#DejaVuSans-Bold-3a6" transform="translate(236.71875 0)"/>
     <use xlink:href="#DejaVuSans-Bold-29" transform="translate(321.728516 0)"/>
     <use xlink:href="#DejaVuSans-Bold-20" transform="translate(367.431641 0)"/>
     <use xlink:href="#DejaVuSans-Bold-3c" transform="translate(402.246094 0)"/>
     <use xlink:href="#DejaVuSans-Bold-20" transform="translate(486.035156 0)"/>
     <use xlink:href="#DejaVuSans-Bold-4b" transform="translate(520.849609 0)"/>
     <use xlink:href="#DejaVuSans-Bold-28" transform="translate(598.339844 0)"/>
     <use xlink:href="#DejaVuSans-Bold-52" transform="translate(644.042969 0)"/>
     <use xlink:href="#DejaVuSans-Bold-29" transform="translate(721.044922 0)"/>
    </g>
    <!-- Reports need Φ -->
    <g style="fill: #2e7d32" transform="translate(512.748125 255.817616) scale(0.08 -0.08)">
     <use xlink:href="#DejaVuSans-Bold-52"/>
     <use xlink:href="#DejaVuSans-Bold-65" transform="translate(77.001953 0)"/>
     <use xlink:href="#DejaVuSans-Bold-70" transform="translate(144.824219 0)"/>
     <use xlink:href="#DejaVuSans-Bold-6f" transform="translate(216.40625 0)"/>
     <use xlink:href="#DejaVuSans-Bold-72" transform="translate(285.107422 0)"/>
     <use xlink:href="#DejaVuSans-Bold-74" transform="translate(334.423828 0)"/>
     <use xlink:href="#DejaVuSans-Bold-73" transform="translate(382.226562 0)"/>
     <use xlink:href="#DejaVuSans-Bold-20" transform="translate(441.748047 0)"/>
     <use xlink:href="#DejaVuSans-Bold-6e" transform="translate(476.5625 0)"/>
     <use xlink:href="#DejaVuSans-Bold-65" transform="translate(547.753906 0)"/>
     <use xlink:href="#DejaVuSans-Bold-65" transform="translate(615.576172 0)"/>
     <use xlink:href="#DejaVuSans-Bold-64" transform="translate(683.398438 0)"/>
     <use xlink:href="#DejaVuSans-Bold-20" transform="translate(754.980469 0)"/>
     <use xlink:href="#DejaVuSans-Bold-3a6" transform="translate(789.794922 0)"/>
    </g>
   </g>
   <g id="text_8">
    <!-- R4: Exclusion -->
    <g style="fill: #2e7d32" transform="translate(714.195 228.748116) scale(0.08 -0.08)">
     <defs>
      <path id="DejaVuSans-Bold-34" d="M 2356 3675 
L 1038 1722 
L 2356 1722 
L 2356 3675 
z
M 2156 4666 
L 3494 4666 
L 3494 1722 
L 4159 1722 
L 4159 850 
L 3494 850 
L 3494 0 
L 2356 0 
L 2356 850 
L 288 850 
L 288 1881 
L 2156 4666 
z
" transform="scale(0.015625)"/>
      <path id="DejaVuSans-Bold-45" d="M 588 4666 
L 3834 4666 
L 3834 3756 
L 1791 3756 
L 1791 2888 
L 3713 2888 
L 3713 1978 
L 1791 1978 
L 1791 909 
L 3903 909 
L 3903 0 
L 588 0 
L 588 4666 
z
" transform="scale(0.015625)"/>
      <path id="DejaVuSans-Bold-78" d="M 1422 1791 
L 159 3500 
L 1344 3500 
L 2059 2463 
L 2784 3500 
L 3969 3500 
L 2706 1797 
L 4031 0 
L 2847 0 
L 2059 1106 
L 1281 0 
L 97 0 
L 1422 1791 
z
" transform="scale(0.015625)"/>
     </defs>
     <use xlink:href="#DejaVuSans-Bold-52"/>
     <use xlink:href="#DejaVuSans-Bold-34" transform="translate(77.001953 0)"/>
     <use xlink:href="#DejaVuSans-Bold-3a" transform="translate(146.582031 0)"/>
     <use xlink:href="#DejaVuSans-Bold-20" transform="translate(186.572266 0)"/>
     <use xlink:href="#DejaVuSans-Bold-45" transform="translate(221.386719 0)"/>
     <use xlink:href="#DejaVuSans-Bold-78" transform="translate(289.697266 0)"/>
     <use xlink:href="#DejaVuSans-Bold-63" transform="translate(354.199219 0)"/>
     <use xlink:href="#DejaVuSans-Bold-6c" transform="translate(413.476562 0)"/>
     <use xlink:href="#DejaVuSans-Bold-75" transform="translate(447.753906 0)"/>
     <use xlink:href="#DejaVuSans-Bold-73" transform="translate(518.945312 0)"/>
     <use xlink:href="#DejaVuSans-Bold-69" transform="translate(578.466797 0)"/>
     <use xlink:href="#DejaVuSans-Bold-6f" transform="translate(612.744141 0)"/>
     <use xlink:href="#DejaVuSans-Bold-6e" transform="translate(681.445312 0)"/>
    </g>
    <!-- Postulate -->
    <g style="fill: #2e7d32" transform="translate(722.784375 237.706366) scale(0.08 -0.08)">
     <use xlink:href="#DejaVuSans-Bold-50"/>
     <use xlink:href="#DejaVuSans-Bold-6f" transform="translate(73.291016 0)"/>
     <use xlink:href="#DejaVuSans-Bold-73" transform="translate(141.992188 0)"/>
     <use xlink:href="#DejaVuSans-Bold-74" transform="translate(201.513672 0)"/>
     <use xlink:href="#DejaVuSans-Bold-75" transform="translate(249.316406 0)"/>
     <use xlink:href="#DejaVuSans-Bold-6c" transform="translate(320.507812 0)"/>
     <use xlink:href="#DejaVuSans-Bold-61" transform="translate(354.785156 0)"/>
     <use xlink:href="#DejaVuSans-Bold-74" transform="translate(422.265625 0)"/>
     <use xlink:href="#DejaVuSans-Bold-65" transform="translate(470.068359 0)"/>
    </g>
    <!-- MICS fully -->
    <g style="fill: #2e7d32" transform="translate(721.61 246.664616) scale(0.08 -0.08)">
     <defs>
      <path id="DejaVuSans-Bold-4d" d="M 588 4666 
L 2119 4666 
L 3181 2169 
L 4250 4666 
L 5778 4666 
L 5778 0 
L 4641 0 
L 4641 3413 
L 3566 897 
L 2803 897 
L 1728 3413 
L 1728 0 
L 588 0 
L 588 4666 
z
" transform="scale(0.015625)"/>
     </defs>
     <use xlink:href="#DejaVuSans-Bold-4d"/>
     <use xlink:href="#DejaVuSans-Bold-49" transform="translate(99.511719 0)"/>
     <use xlink:href="#DejaVuSans-Bold-43" transform="translate(136.71875 0)"/>
     <use xlink:href="#DejaVuSans-Bold-53" transform="translate(211.982422 0)"/>
     <use xlink:href="#DejaVuSans-Bold-20" transform="translate(284.003906 0)"/>
     <use xlink:href="#DejaVuSans-Bold-66" transform="translate(318.818359 0)"/>
     <use xlink:href="#DejaVuSans-Bold-75" transform="translate(362.324219 0)"/>
     <use xlink:href="#DejaVuSans-Bold-6c" transform="translate(433.515625 0)"/>
     <use xlink:href="#DejaVuSans-Bold-6c" transform="translate(467.792969 0)"/>
     <use xlink:href="#DejaVuSans-Bold-79" transform="translate(502.070312 0)"/>
    </g>
    <!-- determined -->
    <g style="fill: #2e7d32" transform="translate(718.163125 255.685366) scale(0.08 -0.08)">
     <use xlink:href="#DejaVuSans-Bold-64"/>
     <use xlink:href="#DejaVuSans-Bold-65" transform="translate(71.582031 0)"/>
     <use xlink:href="#DejaVuSans-Bold-74" transform="translate(139.404297 0)"/>
     <use xlink:href="#DejaVuSans-Bold-65" transform="translate(187.207031 0)"/>
     <use xlink:href="#DejaVuSans-Bold-72" transform="translate(255.029297 0)"/>
     <use xlink:href="#DejaVuSans-Bold-6d" transform="translate(304.345703 0)"/>
     <use xlink:href="#DejaVuSans-Bold-69" transform="translate(408.544922 0)"/>
     <use xlink:href="#DejaVuSans-Bold-6e" transform="translate(442.822266 0)"/>
     <use xlink:href="#DejaVuSans-Bold-65" transform="translate(514.013672 0)"/>
     <use xlink:href="#DejaVuSans-Bold-64" transform="translate(581.835938 0)"/>
    </g>
   </g>
   <g id="patch_14">
    <path d="M 126.645189 188.130209 
Q 128.294914 156.86802 129.826804 127.838792 
" style="fill: none; stroke-dasharray: 7.4,3.2; stroke-dashoffset: 0; stroke: #2e7d32; stroke-width: 2; stroke-linecap: round"/>
    <path d="M 127.618794 131.72784 
L 129.826804 127.838792 
L 131.613236 131.938629 
" style="fill: none; stroke-dasharray: 7.4,3.2; stroke-dashoffset: 0; stroke: #2e7d32; stroke-width: 2; stroke-linecap: round"/>
   </g>
   <g id="text_9">
    <!-- ✗ -->
    <g style="fill: #2e7d32" transform="translate(121.59125 161.281384) scale(0.16 -0.16)">
     <defs>
      <path id="DejaVuSans-Bold-2717" d="M 3975 4688 
Q 4006 4688 4056 4638 
Q 4109 4588 4166 4506 
Q 4256 4666 4309 4666 
Q 4356 4666 4438 4581 
Q 4488 4528 4488 4463 
Q 4488 4378 4419 4306 
Q 3769 3600 3156 2753 
Q 3409 2134 3856 1388 
Q 3894 1325 3894 1288 
Q 3894 1216 3800 1138 
L 3700 1069 
Q 3713 1031 3713 969 
Q 3713 875 3644 825 
Q 3563 769 3525 769 
Q 3444 769 3381 850 
Q 3006 1331 2606 1981 
Q 2069 1281 1375 113 
Q 1275 -56 1038 -56 
Q 925 -56 913 75 
Q 753 163 753 353 
Q 753 603 788 700 
Q 803 744 888 875 
Q 1525 1869 2238 2700 
Q 1856 3606 1731 4097 
Q 1703 4206 1703 4238 
Q 1703 4281 1759 4363 
Q 1819 4444 1869 4444 
Q 1916 4444 1988 4353 
Q 2016 4406 2056 4444 
Q 2113 4494 2200 4494 
Q 2300 4494 2331 4400 
Q 2500 3875 2775 3400 
Q 3219 3975 3856 4613 
Q 3931 4688 3975 4688 
z
" transform="scale(0.015625)"/>
     </defs>
     <use xlink:href="#DejaVuSans-Bold-2717"/>
    </g>
   </g>
   <g id="patch_15">
    <path d="M 335.234555 189.511526 
Q 233.595627 156.866585 134.08565 124.905433 
" style="fill: none; stroke-dasharray: 7.4,3.2; stroke-dashoffset: 0; stroke: #2e7d32; stroke-width: 2; stroke-linecap: round"/>
    <path d="M 137.282435 128.032822 
L 134.08565 124.905433 
L 138.505632 124.224438 
" style="fill: none; stroke-dasharray: 7.4,3.2; stroke-dashoffset: 0; stroke: #2e7d32; stroke-width: 2; stroke-linecap: round"/>
   </g>
   <g id="text_10">
    <!-- ✗ -->
    <g style="fill: #2e7d32" transform="translate(226.89125 161.281384) scale(0.16 -0.16)">
     <use xlink:href="#DejaVuSans-Bold-2717"/>
    </g>
   </g>
   <g id="patch_16">
    <path d="M 545.834555 189.511526 
Q 444.195627 156.866585 344.68565 124.905433 
" style="fill: none; stroke-dasharray: 7.4,3.2; stroke-dashoffset: 0; stroke: #2e7d32; stroke-width: 2; stroke-linecap: round"/>
    <path d="M 347.882435 128.032822 
L 344.68565 124.905433 
L 349.105632 124.224438 
" style="fill: none; stroke-dasharray: 7.4,3.2; stroke-dashoffset: 0; stroke: #2e7d32; stroke-width: 2; stroke-linecap: round"/>
   </g>
   <g id="text_11">
    <!-- ✗ -->
    <g style="fill: #2e7d32" transform="translate(437.49125 161.281384) scale(0.16 -0.16)">
     <use xlink:href="#DejaVuSans-Bold-2717"/>
    </g>
   </g>
   <g id="patch_17">
    <path d="M 742.325973 189.798243 
Q 542.473238 156.866094 344.826817 124.297506 
" style="fill: none; stroke-dasharray: 7.4,3.2; stroke-dashoffset: 0; stroke: #2e7d32; stroke-width: 2; stroke-linecap: round"/>
    <path d="M 348.448413 126.921251 
L 344.826817 124.297506 
L 349.098771 122.974476 
" style="fill: none; stroke-dasharray: 7.4,3.2; stroke-dashoffset: 0; stroke: #2e7d32; stroke-width: 2; stroke-linecap: round"/>
   </g>
   <g id="text_12">
    <!-- ✗ -->
    <g style="fill: #2e7d32" transform="translate(535.77125 161.281384) scale(0.16 -0.16)">
     <use xlink:href="#DejaVuSans-Bold-2717"/>
    </g>
   </g>
   <g id="text_13">
    <!-- Algorithmic Zombie Impossibility Theorem (AZIT) -->
    <g style="fill: #1565c0" transform="translate(275.660703 399.310156) scale(0.11 -0.11)">
     <defs>
      <path id="DejaVuSans-Bold-54" d="M 31 4666 
L 4331 4666 
L 4331 3756 
L 2784 3756 
L 2784 0 
L 1581 0 
L 1581 3756 
L 31 3756 
L 31 4666 
z
" transform="scale(0.015625)"/>
     </defs>
     <use xlink:href="#DejaVuSans-Bold-41"/>
     <use xlink:href="#DejaVuSans-Bold-6c" transform="translate(77.392578 0)"/>
     <use xlink:href="#DejaVuSans-Bold-67" transform="translate(111.669922 0)"/>
     <use xlink:href="#DejaVuSans-Bold-6f" transform="translate(183.251953 0)"/>
     <use xlink:href="#DejaVuSans-Bold-72" transform="translate(251.953125 0)"/>
     <use xlink:href="#DejaVuSans-Bold-69" transform="translate(301.269531 0)"/>
     <use xlink:href="#DejaVuSans-Bold-74" transform="translate(335.546875 0)"/>
     <use xlink:href="#DejaVuSans-Bold-68" transform="translate(383.349609 0)"/>
     <use xlink:href="#DejaVuSans-Bold-6d" transform="translate(454.541016 0)"/>
     <use xlink:href="#DejaVuSans-Bold-69" transform="translate(558.740234 0)"/>
     <use xlink:href="#DejaVuSans-Bold-63" transform="translate(593.017578 0)"/>
     <use xlink:href="#DejaVuSans-Bold-20" transform="translate(652.294922 0)"/>
     <use xlink:href="#DejaVuSans-Bold-5a" transform="translate(687.109375 0)"/>
     <use xlink:href="#DejaVuSans-Bold-6f" transform="translate(759.619141 0)"/>
     <use xlink:href="#DejaVuSans-Bold-6d" transform="translate(828.320312 0)"/>
     <use xlink:href="#DejaVuSans-Bold-62" transform="translate(932.519531 0)"/>
     <use xlink:href="#DejaVuSans-Bold-69" transform="translate(1004.101562 0)"/>
     <use xlink:href="#DejaVuSans-Bold-65" transform="translate(1038.378906 0)"/>
     <use xlink:href="#DejaVuSans-Bold-20" transform="translate(1106.201172 0)"/>
     <use xlink:href="#DejaVuSans-Bold-49" transform="translate(1141.015625 0)"/>
     <use xlink:href="#DejaVuSans-Bold-6d" transform="translate(1178.222656 0)"/>
     <use xlink:href="#DejaVuSans-Bold-70" transform="translate(1282.421875 0)"/>
     <use xlink:href="#DejaVuSans-Bold-6f" transform="translate(1354.003906 0)"/>
     <use xlink:href="#DejaVuSans-Bold-73" transform="translate(1422.705078 0)"/>
     <use xlink:href="#DejaVuSans-Bold-73" transform="translate(1482.226562 0)"/>
     <use xlink:href="#DejaVuSans-Bold-69" transform="translate(1541.748047 0)"/>
     <use xlink:href="#DejaVuSans-Bold-62" transform="translate(1576.025391 0)"/>
     <use xlink:href="#DejaVuSans-Bold-69" transform="translate(1647.607422 0)"/>
     <use xlink:href="#DejaVuSans-Bold-6c" transform="translate(1681.884766 0)"/>
     <use xlink:href="#DejaVuSans-Bold-69" transform="translate(1716.162109 0)"/>
     <use xlink:href="#DejaVuSans-Bold-74" transform="translate(1750.439453 0)"/>
     <use xlink:href="#DejaVuSans-Bold-79" transform="translate(1798.242188 0)"/>
     <use xlink:href="#DejaVuSans-Bold-20" transform="translate(1863.427734 0)"/>
     <use xlink:href="#DejaVuSans-Bold-54" transform="translate(1898.242188 0)"/>
     <use xlink:href="#DejaVuSans-Bold-68" transform="translate(1966.455078 0)"/>
     <use xlink:href="#DejaVuSans-Bold-65" transform="translate(2037.646484 0)"/>
     <use xlink:href="#DejaVuSans-Bold-6f" transform="translate(2105.46875 0)"/>
     <use xlink:href="#DejaVuSans-Bold-72" transform="translate(2174.169922 0)"/>
     <use xlink:href="#DejaVuSans-Bold-65" transform="translate(2223.486328 0)"/>
     <use xlink:href="#DejaVuSans-Bold-6d" transform="translate(2291.308594 0)"/>
     <use xlink:href="#DejaVuSans-Bold-20" transform="translate(2395.507812 0)"/>
     <use xlink:href="#DejaVuSans-Bold-28" transform="translate(2430.322266 0)"/>
     <use xlink:href="#DejaVuSans-Bold-41" transform="translate(2476.025391 0)"/>
     <use xlink:href="#DejaVuSans-Bold-5a" transform="translate(2553.417969 0)"/>
     <use xlink:href="#DejaVuSans-Bold-49" transform="translate(2625.927734 0)"/>
     <use xlink:href="#DejaVuSans-Bold-54" transform="translate(2663.134766 0)"/>
     <use xlink:href="#DejaVuSans-Bold-29" transform="translate(2731.347656 0)"/>
    </g>
   </g>
   <g id="text_14">
    <!-- PhysicallyIdentical(Z,C) → K(Z)=K(C) → Φ(Z)=Φ(C) → Conscious(Z) → ¬Zombie(Z,C). QED -->
    <g style="fill: #0d47a1" transform="translate(228.062109 435.384107) scale(0.09 -0.09)">
     <defs>
      <path id="DejaVuSans-Oblique-50" d="M 1081 4666 
L 2541 4666 
Q 3178 4666 3512 4369 
Q 3847 4072 3847 3500 
Q 3847 2731 3353 2303 
Q 2859 1875 1966 1875 
L 1172 1875 
L 806 0 
L 172 0 
L 1081 4666 
z
M 1613 4147 
L 1275 2394 
L 2069 2394 
Q 2606 2394 2893 2669 
Q 3181 2944 3181 3456 
Q 3181 3784 2986 3965 
Q 2791 4147 2438 4147 
L 1613 4147 
z
" transform="scale(0.015625)"/>
      <path id="DejaVuSans-Oblique-68" d="M 3566 2113 
L 3156 0 
L 2578 0 
L 2988 2091 
Q 3016 2238 3031 2350 
Q 3047 2463 3047 2528 
Q 3047 2791 2881 2937 
Q 2716 3084 2419 3084 
Q 1956 3084 1617 2771 
Q 1278 2459 1178 1941 
L 800 0 
L 225 0 
L 1172 4863 
L 1747 4863 
L 1375 2950 
Q 1594 3244 1934 3414 
Q 2275 3584 2650 3584 
Q 3113 3584 3367 3334 
Q 3622 3084 3622 2631 
Q 3622 2519 3608 2391 
Q 3594 2263 3566 2113 
z
" transform="scale(0.015625)"/>
      <path id="DejaVuSans-Oblique-79" d="M 1588 -325 
Q 1188 -997 936 -1164 
Q 684 -1331 294 -1331 
L -159 -1331 
L -63 -850 
L 269 -850 
Q 509 -850 678 -719 
Q 847 -588 1056 -206 
L 1234 128 
L 459 3500 
L 1069 3500 
L 1650 819 
L 3256 3500 
L 3859 3500 
L 1588 -325 
z
" transform="scale(0.015625)"/>
      <path id="DejaVuSans-Oblique-73" d="M 3200 3397 
L 3091 2853 
Q 2863 2978 2609 3040 
Q 2356 3103 2088 3103 
Q 1634 3103 1373 2948 
Q 1113 2794 1113 2528 
Q 1113 2219 1719 2053 
Q 1766 2041 1788 2034 
L 1972 1978 
Q 2547 1819 2739 1644 
Q 2931 1469 2931 1166 
Q 2931 609 2489 259 
Q 2047 -91 1331 -91 
Q 1053 -91 747 -37 
Q 441 16 72 128 
L 184 722 
Q 500 559 806 475 
Q 1113 391 1394 391 
Q 1816 391 2080 572 
Q 2344 753 2344 1031 
Q 2344 1331 1650 1516 
L 1591 1531 
L 1394 1581 
Q 956 1697 753 1886 
Q 550 2075 550 2369 
Q 550 2928 970 3256 
Q 1391 3584 2113 3584 
Q 2397 3584 2667 3537 
Q 2938 3491 3200 3397 
z
" transform="scale(0.015625)"/>
      <path id="DejaVuSans-Oblique-69" d="M 1172 4863 
L 1747 4863 
L 1606 4134 
L 1031 4134 
L 1172 4863 
z
M 909 3500 
L 1484 3500 
L 800 0 
L 225 0 
L 909 3500 
z
" transform="scale(0.015625)"/>
      <path id="DejaVuSans-Oblique-63" d="M 3431 3366 
L 3316 2797 
Q 3109 2947 2876 3022 
Q 2644 3097 2394 3097 
Q 2119 3097 1870 3000 
Q 1622 2903 1453 2725 
Q 1184 2453 1037 2087 
Q 891 1722 891 1331 
Q 891 859 1127 628 
Q 1363 397 1844 397 
Q 2081 397 2348 469 
Q 2616 541 2906 684 
L 2797 116 
Q 2547 13 2283 -39 
Q 2019 -91 1741 -91 
Q 1044 -91 669 257 
Q 294 606 294 1253 
Q 294 1797 489 2255 
Q 684 2713 1069 3078 
Q 1331 3328 1684 3456 
Q 2038 3584 2456 3584 
Q 2700 3584 2940 3529 
Q 3181 3475 3431 3366 
z
" transform="scale(0.015625)"/>
      <path id="DejaVuSans-Oblique-61" d="M 3438 1997 
L 3047 0 
L 2472 0 
L 2578 531 
Q 2325 219 2001 64 
Q 1678 -91 1281 -91 
Q 834 -91 548 182 
Q 263 456 263 884 
Q 263 1497 752 1853 
Q 1241 2209 2100 2209 
L 2900 2209 
L 2931 2363 
Q 2938 2388 2941 2417 
Q 2944 2447 2944 2509 
Q 2944 2788 2717 2942 
Q 2491 3097 2081 3097 
Q 1800 3097 1504 3025 
Q 1209 2953 897 2809 
L 997 3341 
Q 1322 3463 1633 3523 
Q 1944 3584 2234 3584 
Q 2853 3584 3176 3315 
Q 3500 3047 3500 2534 
Q 3500 2431 3484 2292 
Q 3469 2153 3438 1997 
z
M 2816 1759 
L 2241 1759 
Q 1534 1759 1195 1570 
Q 856 1381 856 984 
Q 856 709 1029 553 
Q 1203 397 1509 397 
Q 1978 397 2328 733 
Q 2678 1069 2791 1631 
L 2816 1759 
z
" transform="scale(0.015625)"/>
      <path id="DejaVuSans-Oblique-6c" d="M 1172 4863 
L 1747 4863 
L 800 0 
L 225 0 
L 1172 4863 
z
" transform="scale(0.015625)"/>
      <path id="DejaVuSans-Oblique-49" d="M 1081 4666 
L 1716 4666 
L 806 0 
L 172 0 
L 1081 4666 
z
" transform="scale(0.015625)"/>
      <path id="DejaVuSans-Oblique-64" d="M 2675 525 
Q 2444 222 2128 65 
Q 1813 -91 1428 -91 
Q 903 -91 598 267 
Q 294 625 294 1247 
Q 294 1766 478 2236 
Q 663 2706 1013 3078 
Q 1244 3325 1534 3454 
Q 1825 3584 2144 3584 
Q 2481 3584 2739 3421 
Q 2997 3259 3138 2956 
L 3513 4863 
L 4091 4863 
L 3144 0 
L 2566 0 
L 2675 525 
z
M 891 1350 
Q 891 897 1095 644 
Q 1300 391 1663 391 
Q 1931 391 2161 520 
Q 2391 650 2566 903 
Q 2750 1166 2856 1509 
Q 2963 1853 2963 2188 
Q 2963 2622 2758 2865 
Q 2553 3109 2194 3109 
Q 1922 3109 1687 2981 
Q 1453 2853 1288 2613 
Q 1106 2353 998 2009 
Q 891 1666 891 1350 
z
" transform="scale(0.015625)"/>
      <path id="DejaVuSans-Oblique-65" d="M 3078 2063 
Q 3088 2113 3092 2166 
Q 3097 2219 3097 2272 
Q 3097 2653 2873 2875 
Q 2650 3097 2266 3097 
Q 1838 3097 1509 2826 
Q 1181 2556 1013 2059 
L 3078 2063 
z
M 3578 1613 
L 903 1613 
Q 884 1494 878 1425 
Q 872 1356 872 1306 
Q 872 872 1139 634 
Q 1406 397 1894 397 
Q 2269 397 2603 481 
Q 2938 566 3225 728 
L 3116 159 
Q 2806 34 2476 -28 
Q 2147 -91 1806 -91 
Q 1078 -91 686 257 
Q 294 606 294 1247 
Q 294 1794 489 2264 
Q 684 2734 1063 3103 
Q 1306 3334 1642 3459 
Q 1978 3584 2356 3584 
Q 2950 3584 3301 3228 
Q 3653 2872 3653 2272 
Q 3653 2128 3634 1964 
Q 3616 1800 3578 1613 
z
" transform="scale(0.015625)"/>
      <path id="DejaVuSans-Oblique-6e" d="M 3566 2113 
L 3156 0 
L 2578 0 
L 2988 2091 
Q 3016 2238 3031 2350 
Q 3047 2463 3047 2528 
Q 3047 2791 2881 2937 
Q 2716 3084 2419 3084 
Q 1956 3084 1622 2776 
Q 1288 2469 1184 1941 
L 800 0 
L 225 0 
L 903 3500 
L 1478 3500 
L 1363 2950 
Q 1603 3253 1940 3418 
Q 2278 3584 2650 3584 
Q 3113 3584 3367 3334 
Q 3622 3084 3622 2631 
Q 3622 2519 3608 2391 
Q 3594 2263 3566 2113 
z
" transform="scale(0.015625)"/>
      <path id="DejaVuSans-Oblique-74" d="M 2706 3500 
L 2619 3053 
L 1472 3053 
L 1100 1153 
Q 1081 1047 1072 975 
Q 1063 903 1063 863 
Q 1063 663 1183 572 
Q 1303 481 1569 481 
L 2150 481 
L 2053 0 
L 1503 0 
Q 991 0 739 200 
Q 488 400 488 806 
Q 488 878 497 964 
Q 506 1050 525 1153 
L 897 3053 
L 409 3053 
L 500 3500 
L 978 3500 
L 1172 4494 
L 1747 4494 
L 1556 3500 
L 2706 3500 
z
" transform="scale(0.015625)"/>
      <path id="DejaVuSans-Oblique-28" d="M 2731 4856 
Q 1903 3822 1495 2892 
Q 1088 1963 1088 1100 
Q 1088 606 1206 120 
Q 1325 -366 1563 -844 
L 1063 -844 
Q 775 -306 634 201 
Q 494 709 494 1197 
Q 494 2125 923 3036 
Q 1353 3947 2222 4856 
L 2731 4856 
z
" transform="scale(0.015625)"/>
      <path id="DejaVuSans-Oblique-5a" d="M 838 4666 
L 4500 4666 
L 4409 4184 
L 794 531 
L 3769 531 
L 3669 0 
L -141 0 
L -50 481 
L 3566 4134 
L 738 4134 
L 838 4666 
z
" transform="scale(0.015625)"/>
      <path id="DejaVuSans-Oblique-2c" d="M 575 794 
L 1234 794 
L 1131 256 
L 422 -744 
L 19 -744 
L 469 256 
L 575 794 
z
" transform="scale(0.015625)"/>
      <path id="DejaVuSans-Oblique-43" d="M 4447 4306 
L 4319 3641 
Q 4019 3944 3683 4091 
Q 3347 4238 2956 4238 
Q 2422 4238 2017 3981 
Q 1613 3725 1319 3200 
Q 1131 2863 1032 2486 
Q 934 2109 934 1728 
Q 934 1091 1264 756 
Q 1594 422 2222 422 
Q 2656 422 3056 561 
Q 3456 700 3834 978 
L 3688 231 
Q 3316 72 2936 -9 
Q 2556 -91 2175 -91 
Q 1278 -91 773 396 
Q 269 884 269 1753 
Q 269 2309 461 2846 
Q 653 3384 1013 3828 
Q 1394 4300 1883 4525 
Q 2372 4750 3022 4750 
Q 3422 4750 3780 4639 
Q 4138 4528 4447 4306 
z
" transform="scale(0.015625)"/>
      <path id="DejaVuSans-Oblique-29" d="M -397 -844 
Q 434 191 840 1120 
Q 1247 2050 1247 2913 
Q 1247 3406 1130 3892 
Q 1013 4378 775 4856 
L 1275 4856 
Q 1563 4316 1703 3812 
Q 1844 3309 1844 2822 
Q 1844 1891 1411 973 
Q 978 56 116 -844 
L -397 -844 
z
" transform="scale(0.015625)"/>
      <path id="DejaVuSans-Oblique-20" transform="scale(0.015625)"/>
      <path id="DejaVuSans-Oblique-2192" d="M 5050 2147 
L 5050 1866 
L 3822 638 
L 3447 1013 
L 4175 1741 
L 366 1741 
L 366 2272 
L 4175 2272 
L 3447 3000 
L 3822 3375 
L 5050 2147 
z
" transform="scale(0.015625)"/>
      <path id="DejaVuSans-Oblique-4b" d="M 1081 4666 
L 1716 4666 
L 1331 2700 
L 3781 4666 
L 4622 4666 
L 1850 2438 
L 3878 0 
L 3109 0 
L 1247 2272 
L 806 0 
L 172 0 
L 1081 4666 
z
" transform="scale(0.015625)"/>
      <path id="DejaVuSans-Oblique-3d" d="M 678 2906 
L 4684 2906 
L 4684 2381 
L 678 2381 
L 678 2906 
z
M 678 1631 
L 4684 1631 
L 4684 1100 
L 678 1100 
L 678 1631 
z
" transform="scale(0.015625)"/>
      <path id="DejaVuSans-Oblique-3a6" d="M 2463 3644 
Q 1978 3578 1622 3306 
Q 1144 2947 1025 2328 
Q 994 2166 994 2019 
Q 994 1616 1241 1353 
Q 1494 1081 1950 1016 
L 2463 3644 
z
M 2581 1016 
Q 3063 1081 3422 1353 
Q 3891 1713 4013 2328 
Q 4044 2494 4044 2638 
Q 4044 3044 3803 3306 
Q 3547 3578 3094 3644 
L 2581 1016 
z
M 1850 494 
Q 1100 563 688 981 
Q 319 1356 319 1925 
Q 319 2116 359 2328 
Q 522 3175 1213 3678 
Q 1784 4100 2563 4169 
L 2659 4666 
L 3291 4666 
L 3194 4169 
Q 3944 4097 4353 3678 
Q 4719 3300 4719 2731 
Q 4719 2541 4678 2328 
Q 4513 1484 3828 981 
Q 3256 563 2478 491 
L 2384 0 
L 1753 0 
L 1850 494 
z
" transform="scale(0.015625)"/>
      <path id="DejaVuSans-Oblique-6f" d="M 1625 -91 
Q 1009 -91 651 289 
Q 294 669 294 1325 
Q 294 1706 417 2101 
Q 541 2497 738 2766 
Q 1047 3184 1428 3384 
Q 1809 3584 2291 3584 
Q 2888 3584 3255 3212 
Q 3622 2841 3622 2241 
Q 3622 1825 3500 1412 
Q 3378 1000 3181 728 
Q 2875 309 2494 109 
Q 2113 -91 1625 -91 
z
M 891 1344 
Q 891 869 1089 633 
Q 1288 397 1691 397 
Q 2269 397 2648 901 
Q 3028 1406 3028 2181 
Q 3028 2634 2825 2865 
Q 2622 3097 2228 3097 
Q 1903 3097 1650 2945 
Q 1397 2794 1197 2484 
Q 1050 2253 970 1956 
Q 891 1659 891 1344 
z
" transform="scale(0.015625)"/>
      <path id="DejaVuSans-Oblique-75" d="M 428 1388 
L 838 3500 
L 1416 3500 
L 1006 1409 
Q 975 1256 961 1147 
Q 947 1038 947 966 
Q 947 700 1109 554 
Q 1272 409 1569 409 
Q 2031 409 2368 721 
Q 2706 1034 2809 1563 
L 3194 3500 
L 3769 3500 
L 3091 0 
L 2516 0 
L 2631 550 
Q 2388 244 2052 76 
Q 1716 -91 1338 -91 
Q 878 -91 622 161 
Q 366 413 366 863 
Q 366 956 381 1097 
Q 397 1238 428 1388 
z
" transform="scale(0.015625)"/>
      <path id="DejaVuSans-Oblique-ac" d="M 678 2694 
L 4684 2694 
L 4684 897 
L 4159 897 
L 4159 2163 
L 678 2163 
L 678 2694 
z
" transform="scale(0.015625)"/>
      <path id="DejaVuSans-Oblique-6d" d="M 5747 2113 
L 5338 0 
L 4763 0 
L 5166 2094 
Q 5191 2228 5203 2325 
Q 5216 2422 5216 2491 
Q 5216 2772 5059 2928 
Q 4903 3084 4622 3084 
Q 4203 3084 3875 2770 
Q 3547 2456 3450 1953 
L 3066 0 
L 2491 0 
L 2900 2094 
Q 2925 2209 2937 2307 
Q 2950 2406 2950 2484 
Q 2950 2769 2794 2926 
Q 2638 3084 2363 3084 
Q 1938 3084 1609 2770 
Q 1281 2456 1184 1953 
L 800 0 
L 225 0 
L 909 3500 
L 1484 3500 
L 1375 2956 
Q 1609 3263 1923 3423 
Q 2238 3584 2597 3584 
Q 2978 3584 3223 3384 
Q 3469 3184 3519 2828 
Q 3781 3197 4126 3390 
Q 4472 3584 4856 3584 
Q 5306 3584 5551 3325 
Q 5797 3066 5797 2591 
Q 5797 2488 5784 2364 
Q 5772 2241 5747 2113 
z
" transform="scale(0.015625)"/>
      <path id="DejaVuSans-Oblique-62" d="M 3169 2138 
Q 3169 2591 2961 2847 
Q 2753 3103 2388 3103 
Q 2122 3103 1889 2973 
Q 1656 2844 1484 2597 
Q 1303 2338 1198 1995 
Q 1094 1653 1094 1313 
Q 1094 881 1298 636 
Q 1503 391 1863 391 
Q 2134 391 2365 517 
Q 2597 644 2772 891 
Q 2950 1147 3059 1487 
Q 3169 1828 3169 2138 
z
M 1381 2969 
Q 1594 3256 1914 3420 
Q 2234 3584 2584 3584 
Q 3122 3584 3439 3221 
Q 3756 2859 3756 2241 
Q 3756 1734 3570 1259 
Q 3384 784 3041 416 
Q 2816 172 2522 40 
Q 2228 -91 1906 -91 
Q 1566 -91 1316 65 
Q 1066 222 909 531 
L 806 0 
L 231 0 
L 1178 4863 
L 1753 4863 
L 1381 2969 
z
" transform="scale(0.015625)"/>
      <path id="DejaVuSans-Oblique-2e" d="M 525 794 
L 1184 794 
L 1031 0 
L 372 0 
L 525 794 
z
" transform="scale(0.015625)"/>
      <path id="DejaVuSans-Oblique-51" d="M 2309 -84 
Q 2275 -88 2237 -89 
Q 2200 -91 2125 -91 
Q 1250 -91 756 411 
Q 263 913 263 1797 
Q 263 2319 452 2844 
Q 641 3369 978 3788 
Q 1369 4269 1858 4509 
Q 2347 4750 2938 4750 
Q 3794 4750 4287 4245 
Q 4781 3741 4781 2869 
Q 4781 1928 4265 1147 
Q 3750 366 2919 44 
L 3553 -825 
L 2847 -825 
L 2309 -84 
z
M 2919 4238 
Q 2400 4238 2003 3986 
Q 1606 3734 1313 3219 
Q 1125 2891 1026 2522 
Q 928 2153 928 1778 
Q 928 1128 1239 775 
Q 1550 422 2119 422 
Q 2631 422 3032 676 
Q 3434 931 3719 1434 
Q 3909 1772 4009 2142 
Q 4109 2513 4109 2881 
Q 4109 3528 3796 3883 
Q 3484 4238 2919 4238 
z
" transform="scale(0.015625)"/>
      <path id="DejaVuSans-Oblique-45" d="M 1081 4666 
L 4031 4666 
L 3928 4134 
L 1606 4134 
L 1338 2753 
L 3566 2753 
L 3463 2222 
L 1234 2222 
L 909 531 
L 3284 531 
L 3181 0 
L 172 0 
L 1081 4666 
z
" transform="scale(0.015625)"/>
      <path id="DejaVuSans-Oblique-44" d="M 1081 4666 
L 2438 4666 
Q 3519 4666 4070 4208 
Q 4622 3750 4622 2847 
Q 4622 2250 4412 1698 
Q 4203 1147 3834 769 
Q 3463 381 2891 190 
Q 2319 0 1538 0 
L 172 0 
L 1081 4666 
z
M 1613 4147 
L 909 519 
L 1734 519 
Q 2794 519 3375 1128 
Q 3956 1738 3956 2847 
Q 3956 3519 3581 3833 
Q 3206 4147 2406 4147 
L 1613 4147 
z
" transform="scale(0.015625)"/>
     </defs>
     <use xlink:href="#DejaVuSans-Oblique-50"/>
     <use xlink:href="#DejaVuSans-Oblique-68" transform="translate(60.302734 0)"/>
     <use xlink:href="#DejaVuSans-Oblique-79" transform="translate(123.681641 0)"/>
     <use xlink:href="#DejaVuSans-Oblique-73" transform="translate(182.861328 0)"/>
     <use xlink:href="#DejaVuSans-Oblique-69" transform="translate(234.960938 0)"/>
     <use xlink:href="#DejaVuSans-Oblique-63" transform="translate(262.744141 0)"/>
     <use xlink:href="#DejaVuSans-Oblique-61" transform="translate(317.724609 0)"/>
     <use xlink:href="#DejaVuSans-Oblique-6c" transform="translate(379.003906 0)"/>
     <use xlink:href="#DejaVuSans-Oblique-6c" transform="translate(406.787109 0)"/>
     <use xlink:href="#DejaVuSans-Oblique-79" transform="translate(434.570312 0)"/>
     <use xlink:href="#DejaVuSans-Oblique-49" transform="translate(493.75 0)"/>
     <use xlink:href="#DejaVuSans-Oblique-64" transform="translate(523.242188 0)"/>
     <use xlink:href="#DejaVuSans-Oblique-65" transform="translate(586.71875 0)"/>
     <use xlink:href="#DejaVuSans-Oblique-6e" transform="translate(648.242188 0)"/>
     <use xlink:href="#DejaVuSans-Oblique-74" transform="translate(711.621094 0)"/>
     <use xlink:href="#DejaVuSans-Oblique-69" transform="translate(750.830078 0)"/>
     <use xlink:href="#DejaVuSans-Oblique-63" transform="translate(778.613281 0)"/>
     <use xlink:href="#DejaVuSans-Oblique-61" transform="translate(833.59375 0)"/>
     <use xlink:href="#DejaVuSans-Oblique-6c" transform="translate(894.873047 0)"/>
     <use xlink:href="#DejaVuSans-Oblique-28" transform="translate(922.65625 0)"/>
     <use xlink:href="#DejaVuSans-Oblique-5a" transform="translate(961.669922 0)"/>
     <use xlink:href="#DejaVuSans-Oblique-2c" transform="translate(1030.175781 0)"/>
     <use xlink:href="#DejaVuSans-Oblique-43" transform="translate(1061.962891 0)"/>
     <use xlink:href="#DejaVuSans-Oblique-29" transform="translate(1131.787109 0)"/>
     <use xlink:href="#DejaVuSans-Oblique-20" transform="translate(1170.800781 0)"/>
     <use xlink:href="#DejaVuSans-Oblique-2192" transform="translate(1202.587891 0)"/>
     <use xlink:href="#DejaVuSans-Oblique-20" transform="translate(1286.376953 0)"/>
     <use xlink:href="#DejaVuSans-Oblique-4b" transform="translate(1318.164062 0)"/>
     <use xlink:href="#DejaVuSans-Oblique-28" transform="translate(1383.740234 0)"/>
     <use xlink:href="#DejaVuSans-Oblique-5a" transform="translate(1422.753906 0)"/>
     <use xlink:href="#DejaVuSans-Oblique-29" transform="translate(1491.259766 0)"/>
     <use xlink:href="#DejaVuSans-Oblique-3d" transform="translate(1530.273438 0)"/>
     <use xlink:href="#DejaVuSans-Oblique-4b" transform="translate(1614.0625 0)"/>
     <use xlink:href="#DejaVuSans-Oblique-28" transform="translate(1679.638672 0)"/>
     <use xlink:href="#DejaVuSans-Oblique-43" transform="translate(1718.652344 0)"/>
     <use xlink:href="#DejaVuSans-Oblique-29" transform="translate(1788.476562 0)"/>
     <use xlink:href="#DejaVuSans-Oblique-20" transform="translate(1827.490234 0)"/>
     <use xlink:href="#DejaVuSans-Oblique-2192" transform="translate(1859.277344 0)"/>
     <use xlink:href="#DejaVuSans-Oblique-20" transform="translate(1943.066406 0)"/>
     <use xlink:href="#DejaVuSans-Oblique-3a6" transform="translate(1974.853516 0)"/>
     <use xlink:href="#DejaVuSans-Oblique-28" transform="translate(2053.564453 0)"/>
     <use xlink:href="#DejaVuSans-Oblique-5a" transform="translate(2092.578125 0)"/>
     <use xlink:href="#DejaVuSans-Oblique-29" transform="translate(2161.083984 0)"/>
     <use xlink:href="#DejaVuSans-Oblique-3d" transform="translate(2200.097656 0)"/>
     <use xlink:href="#DejaVuSans-Oblique-3a6" transform="translate(2283.886719 0)"/>
     <use xlink:href="#DejaVuSans-Oblique-28" transform="translate(2362.597656 0)"/>
     <use xlink:href="#DejaVuSans-Oblique-43" transform="translate(2401.611328 0)"/>
     <use xlink:href="#DejaVuSans-Oblique-29" transform="translate(2471.435547 0)"/>
     <use xlink:href="#DejaVuSans-Oblique-20" transform="translate(2510.449219 0)"/>
     <use xlink:href="#DejaVuSans-Oblique-2192" transform="translate(2542.236328 0)"/>
     <use xlink:href="#DejaVuSans-Oblique-20" transform="translate(2626.025391 0)"/>
     <use xlink:href="#DejaVuSans-Oblique-43" transform="translate(2657.8125 0)"/>
     <use xlink:href="#DejaVuSans-Oblique-6f" transform="translate(2727.636719 0)"/>
     <use xlink:href="#DejaVuSans-Oblique-6e" transform="translate(2788.818359 0)"/>
     <use xlink:href="#DejaVuSans-Oblique-73" transform="translate(2852.197266 0)"/>
     <use xlink:href="#DejaVuSans-Oblique-63" transform="translate(2904.296875 0)"/>
     <use xlink:href="#DejaVuSans-Oblique-69" transform="translate(2959.277344 0)"/>
     <use xlink:href="#DejaVuSans-Oblique-6f" transform="translate(2987.060547 0)"/>
     <use xlink:href="#DejaVuSans-Oblique-75" transform="translate(3048.242188 0)"/>
     <use xlink:href="#DejaVuSans-Oblique-73" transform="translate(3111.621094 0)"/>
     <use xlink:href="#DejaVuSans-Oblique-28" transform="translate(3163.720703 0)"/>
     <use xlink:href="#DejaVuSans-Oblique-5a" transform="translate(3202.734375 0)"/>
     <use xlink:href="#DejaVuSans-Oblique-29" transform="translate(3271.240234 0)"/>
     <use xlink:href="#DejaVuSans-Oblique-20" transform="translate(3310.253906 0)"/>
     <use xlink:href="#DejaVuSans-Oblique-2192" transform="translate(3342.041016 0)"/>
     <use xlink:href="#DejaVuSans-Oblique-20" transform="translate(3425.830078 0)"/>
     <use xlink:href="#DejaVuSans-Oblique-ac" transform="translate(3457.617188 0)"/>
     <use xlink:href="#DejaVuSans-Oblique-5a" transform="translate(3541.40625 0)"/>
     <use xlink:href="#DejaVuSans-Oblique-6f" transform="translate(3609.912109 0)"/>
     <use xlink:href="#DejaVuSans-Oblique-6d" transform="translate(3671.09375 0)"/>
     <use xlink:href="#DejaVuSans-Oblique-62" transform="translate(3768.505859 0)"/>
     <use xlink:href="#DejaVuSans-Oblique-69" transform="translate(3831.982422 0)"/>
     <use xlink:href="#DejaVuSans-Oblique-65" transform="translate(3859.765625 0)"/>
     <use xlink:href="#DejaVuSans-Oblique-28" transform="translate(3921.289062 0)"/>
     <use xlink:href="#DejaVuSans-Oblique-5a" transform="translate(3960.302734 0)"/>
     <use xlink:href="#DejaVuSans-Oblique-2c" transform="translate(4028.808594 0)"/>
     <use xlink:href="#DejaVuSans-Oblique-43" transform="translate(4060.595703 0)"/>
     <use xlink:href="#DejaVuSans-Oblique-29" transform="translate(4130.419922 0)"/>
     <use xlink:href="#DejaVuSans-Oblique-2e" transform="translate(4169.433594 0)"/>
     <use xlink:href="#DejaVuSans-Oblique-20" transform="translate(4201.220703 0)"/>
     <use xlink:href="#DejaVuSans-Oblique-51" transform="translate(4233.007812 0)"/>
     <use xlink:href="#DejaVuSans-Oblique-45" transform="translate(4311.71875 0)"/>
     <use xlink:href="#DejaVuSans-Oblique-44" transform="translate(4374.902344 0)"/>
    </g>
   </g>
   <g id="text_15">
    <!-- Zombie Argument: Information-Theoretic Rebuttal Structure -->
    <g transform="translate(190.1025 17.837812) scale(0.14 -0.14)">
     <use xlink:href="#DejaVuSans-Bold-5a"/>
     <use xlink:href="#DejaVuSans-Bold-6f" transform="translate(72.509766 0)"/>
     <use xlink:href="#DejaVuSans-Bold-6d" transform="translate(141.210938 0)"/>
     <use xlink:href="#DejaVuSans-Bold-62" transform="translate(245.410156 0)"/>
     <use xlink:href="#DejaVuSans-Bold-69" transform="translate(316.992188 0)"/>
     <use xlink:href="#DejaVuSans-Bold-65" transform="translate(351.269531 0)"/>
     <use xlink:href="#DejaVuSans-Bold-20" transform="translate(419.091797 0)"/>
     <use xlink:href="#DejaVuSans-Bold-41" transform="translate(453.90625 0)"/>
     <use xlink:href="#DejaVuSans-Bold-72" transform="translate(531.298828 0)"/>
     <use xlink:href="#DejaVuSans-Bold-67" transform="translate(580.615234 0)"/>
     <use xlink:href="#DejaVuSans-Bold-75" transform="translate(652.197266 0)"/>
     <use xlink:href="#DejaVuSans-Bold-6d" transform="translate(723.388672 0)"/>
     <use xlink:href="#DejaVuSans-Bold-65" transform="translate(827.587891 0)"/>
     <use xlink:href="#DejaVuSans-Bold-6e" transform="translate(895.410156 0)"/>
     <use xlink:href="#DejaVuSans-Bold-74" transform="translate(966.601562 0)"/>
     <use xlink:href="#DejaVuSans-Bold-3a" transform="translate(1014.404297 0)"/>
     <use xlink:href="#DejaVuSans-Bold-20" transform="translate(1054.394531 0)"/>
     <use xlink:href="#DejaVuSans-Bold-49" transform="translate(1089.208984 0)"/>
     <use xlink:href="#DejaVuSans-Bold-6e" transform="translate(1126.416016 0)"/>
     <use xlink:href="#DejaVuSans-Bold-66" transform="translate(1197.607422 0)"/>
     <use xlink:href="#DejaVuSans-Bold-6f" transform="translate(1241.113281 0)"/>
     <use xlink:href="#DejaVuSans-Bold-72" transform="translate(1309.814453 0)"/>
     <use xlink:href="#DejaVuSans-Bold-6d" transform="translate(1359.130859 0)"/>
     <use xlink:href="#DejaVuSans-Bold-61" transform="translate(1463.330078 0)"/>
     <use xlink:href="#DejaVuSans-Bold-74" transform="translate(1530.810547 0)"/>
     <use xlink:href="#DejaVuSans-Bold-69" transform="translate(1578.613281 0)"/>
     <use xlink:href="#DejaVuSans-Bold-6f" transform="translate(1612.890625 0)"/>
     <use xlink:href="#DejaVuSans-Bold-6e" transform="translate(1681.591797 0)"/>
     <use xlink:href="#DejaVuSans-Bold-2d" transform="translate(1752.783203 0)"/>
     <use xlink:href="#DejaVuSans-Bold-54" transform="translate(1779.537109 0)"/>
     <use xlink:href="#DejaVuSans-Bold-68" transform="translate(1847.75 0)"/>
     <use xlink:href="#DejaVuSans-Bold-65" transform="translate(1918.941406 0)"/>
     <use xlink:href="#DejaVuSans-Bold-6f" transform="translate(1986.763672 0)"/>
     <use xlink:href="#DejaVuSans-Bold-72" transform="translate(2055.464844 0)"/>
     <use xlink:href="#DejaVuSans-Bold-65" transform="translate(2104.78125 0)"/>
     <use xlink:href="#DejaVuSans-Bold-74" transform="translate(2172.603516 0)"/>
     <use xlink:href="#DejaVuSans-Bold-69" transform="translate(2220.40625 0)"/>
     <use xlink:href="#DejaVuSans-Bold-63" transform="translate(2254.683594 0)"/>
     <use xlink:href="#DejaVuSans-Bold-20" transform="translate(2313.960938 0)"/>
     <use xlink:href="#DejaVuSans-Bold-52" transform="translate(2348.775391 0)"/>
     <use xlink:href="#DejaVuSans-Bold-65" transform="translate(2425.777344 0)"/>
     <use xlink:href="#DejaVuSans-Bold-62" transform="translate(2493.599609 0)"/>
     <use xlink:href="#DejaVuSans-Bold-75" transform="translate(2565.181641 0)"/>
     <use xlink:href="#DejaVuSans-Bold-74" transform="translate(2636.373047 0)"/>
     <use xlink:href="#DejaVuSans-Bold-74" transform="translate(2684.175781 0)"/>
     <use xlink:href="#DejaVuSans-Bold-61" transform="translate(2731.978516 0)"/>
     <use xlink:href="#DejaVuSans-Bold-6c" transform="translate(2799.458984 0)"/>
     <use xlink:href="#DejaVuSans-Bold-20" transform="translate(2833.736328 0)"/>
     <use xlink:href="#DejaVuSans-Bold-53" transform="translate(2868.550781 0)"/>
     <use xlink:href="#DejaVuSans-Bold-74" transform="translate(2940.572266 0)"/>
     <use xlink:href="#DejaVuSans-Bold-72" transform="translate(2988.375 0)"/>
     <use xlink:href="#DejaVuSans-Bold-75" transform="translate(3037.691406 0)"/>
     <use xlink:href="#DejaVuSans-Bold-63" transform="translate(3108.882812 0)"/>
     <use xlink:href="#DejaVuSans-Bold-74" transform="translate(3168.160156 0)"/>
     <use xlink:href="#DejaVuSans-Bold-75" transform="translate(3215.962891 0)"/>
     <use xlink:href="#DejaVuSans-Bold-72" transform="translate(3287.154297 0)"/>
     <use xlink:href="#DejaVuSans-Bold-65" transform="translate(3336.470703 0)"/>
    </g>
   </g>
  </g>
 </g>
 <defs>
  <clipPath id="p46c431e4a8">
   <rect x="7.2" y="23.837812" width="842.4" height="465.6"/>
  </clipPath>
 </defs>
</svg>
