6666
85.001474 61.244968 42.503631
92.504551 53.740560 49.993699
97.500619 82.498470 32.499919
94.995872 62.504255 110.003764
73.750320 57.505454 42.502262
89.995842 92.501784 109.995360
86.254251 101.249758 99.999106
104.996705 80.005916 69.999252
86.247927 49.998296 60.002576
113.751768 87.501997 82.502085
100.010363 89.998033 112.497521
102.496062 76.252981 35.005463
102.499449 66.245935 47.496011
111.253148 90.003596 85.002628
64.996780 52.501123 80.000565
72.501058 73.754217 122.501082
81.253285 60.000327 27.501399
72.503055 63.742949 117.498453
103.747724 74.996909 92.498669
101.257234 73.745810 37.504685
107.491857 64.998380 52.500788
102.502837 66.253441 82.503839
68.748313 69.997763 110.004151
87.499074 81.243827 124.994516
97.495551 60.002406 52.500689
111.253341 73.747933 72.500767
112.503027 76.248503 92.502210
98.746797 64.998243 54.998153
79.994214 80.002356 127.497729
98.750060 93.752326 92.502161
97.503220 77.499523 34.997952
62.499614 92.491835 112.492998
107.493600 59.995175 55.001934
73.745619 81.248170 22.506287
68.748276 56.253569 94.995482
103.749006 56.245403 64.998360
73.754066 98.741642 22.502102
105.001150 74.997125 54.993003
113.750349 72.497438 67.501126
80.000106 77.507751 104.998842
102.495048 100.000867 37.501065
116.256577 76.254041 65.001727
80.007080 62.494248 104.996904
71.245517 67.498114 122.493339
72.503073 74.998925 124.992883
79.995086 66.251517 112.504055
70.009662 86.264099 120.002005
106.245212 92.489684 102.501295
63.746066 98.747990 29.997038
77.499319 101.255158 97.500760
79.999232 57.494989 59.991897
74.997647 96.249740 22.508554
85.000630 100.004755 97.497584
79.994266 58.745330 109.996491
93.760299 73.746026 115.004057
62.495631 88.754508 112.501863
107.499242 78.749803 67.496832
98.752158 66.247798 97.494070
82.493816 81.250835 20.007641
93.750774 81.249426 100.001383
78.756319 60.001062 44.998012
76.255353 95.002075 30.007431
88.750887 61.244075 62.493380
103.757988 78.758340 107.499131
88.748146 63.757072 39.994643
79.995671 75.003113 22.498091
97.499975 102.499209 37.501633
101.256810 72.500438 97.503116
93.740080 93.749764 99.995920
59.994103 71.245751 112.498383
113.754432 81.243582 72.500148
72.497657 56.248414 105.004852
88.752604 62.506471 52.499252
81.246633 56.248917 85.001173
67.500854 73.744753 20.000438
77.501104 105.012181 32.509082
92.495871 56.248609 94.992919
87.497142 55.001527 72.505835
99.996472 76.246835 102.489610
104.999213 64.994859 87.497438
86.245757 59.999544 27.491495
98.742901 77.510303 37.493771
76.244693 57.508888 75.014057
68.744331 54.998218 55.001653
67.508365 96.245225 107.498813
96.253761 66.252104 89.998180
88.749352 86.243347 124.998848
61.248711 85.001123 107.497313
86.252282 75.004900 22.500752
103.751702 63.750257 37.500000
89.996509 65.001531 34.999529
97.510128 56.257613 57.501867
96.246308 87.494617 40.005764
76.251271 75.002323 127.491558
90.004488 95.002199 29.994627
72.497718 68.751276 115.000254
93.748586 69.999499 117.498781
90.000738 61.257120 54.987581
91.248854 67.500854 105.001432
78.748200 69.991500 20.001587
