<?xml version="1.0" encoding="utf-8" standalone="no"?>
<!DOCTYPE svg PUBLIC "-//W3C//DTD SVG 1.1//EN"
  "http://www.w3.org/Graphics/SVG/1.1/DTD/svg11.dtd">
<svg xmlns:xlink="http://www.w3.org/1999/xlink" width="997.440356pt" height="422.617656pt" viewBox="0 0 997.440356 422.617656" xmlns="http://www.w3.org/2000/svg" version="1.1">
 <metadata>
  <rdf:RDF xmlns:dc="http://purl.org/dc/elements/1.1/" xmlns:cc="http://creativecommons.org/ns#" xmlns:rdf="http://www.w3.org/1999/02/22-rdf-syntax-ns#">
   <cc:Work>
    <dc:type rdf:resource="http://purl.org/dc/dcmitype/StillImage"/>
    <dc:date>2026-05-23T02:29:13.771451</dc:date>
    <dc:format>image/svg+xml</dc:format>
    <dc:creator>
     <cc:Agent>
      <dc:title>Matplotlib v3.10.8, https://matplotlib.org/</dc:title>
     </cc:Agent>
    </dc:creator>
   </cc:Work>
  </rdf:RDF>
 </metadata>
 <defs>
  <style type="text/css">*{stroke-linejoin: round; stroke-linecap: butt}</style>
 </defs>
 <g id="figure_1">
  <g id="patch_1">
   <path d="M 0 422.617656 
L 997.440356 422.617656 
L 997.440356 0 
L 0 0 
z
" style="fill: #ffffff"/>
  </g>
  <g id="axes_1">
   <g id="patch_2">
    <path d="M 63.523594 382.157969 
L 491.285017 382.157969 
L 491.285017 23.077969 
L 63.523594 23.077969 
z
" style="fill: #ffffff"/>
   </g>
   <g id="FillBetweenPolyCollection_1">
    <defs>
     <path id="mee3e3c7254" d="M 82.967295 -214.08472 
L 82.967295 -111.822671 
L 97.040819 -76.077576 
L 111.794749 -200.304844 
L 123.089138 -110.642741 
L 132.678567 -182.491428 
L 140.456586 -171.22253 
L 148.16294 -130.983543 
L 156.006047 -143.860694 
L 164.036323 -169.570998 
L 171.266196 -208.443266 
L 177.436677 -226.270715 
L 183.594649 -155.13916 
L 189.081473 -122.60463 
L 194.378397 -81.299192 
L 199.315025 -145.67458 
L 203.808888 -56.781506 
L 209.102713 -153.282658 
L 214.233135 -145.744219 
L 219.042598 -147.729792 
L 224.317801 -168.853362 
L 229.175491 -116.212453 
L 233.587913 -184.885573 
L 238.701142 -186.999337 
L 243.641593 -70.811955 
L 248.180431 -146.797958 
L 252.60389 -117.335127 
L 257.138669 -68.521387 
L 261.593255 -136.696106 
L 265.945135 -109.829391 
L 270.546103 -144.219818 
L 275.251117 -208.193442 
L 280.325905 -192.638387 
L 284.987448 -146.005545 
L 289.717538 -178.467083 
L 295.341571 -177.35222 
L 301.549125 -246.330524 
L 307.448634 -168.639042 
L 312.601641 -171.318747 
L 318.326551 -146.48626 
L 325.089537 -167.295781 
L 332.561245 -138.839537 
L 339.954442 -177.705875 
L 346.939195 -168.194892 
L 355.661894 -195.421452 
L 367.455077 -137.69882 
L 379.322859 -140.715797 
L 393.155005 -170.9004 
L 411.995274 -151.691655 
L 471.841316 -206.754065 
L 471.841316 -352.868429 
L 471.841316 -352.868429 
L 411.995274 -310.716153 
L 393.155005 -315.027543 
L 379.322859 -288.501771 
L 367.455077 -269.265799 
L 355.661894 -311.320677 
L 346.939195 -281.96054 
L 339.954442 -333.303603 
L 332.561245 -275.217462 
L 325.089537 -294.916033 
L 318.326551 -268.964195 
L 312.601641 -305.791473 
L 307.448634 -316.898037 
L 301.549125 -383.217869 
L 295.341571 -315.553381 
L 289.717538 -279.011703 
L 284.987448 -309.086909 
L 280.325905 -342.934963 
L 275.251117 -344.446871 
L 270.546103 -293.551767 
L 265.945135 -266.362432 
L 261.593255 -269.897544 
L 257.138669 -218.480905 
L 252.60389 -251.142695 
L 248.180431 -298.46196 
L 243.641593 -212.174802 
L 238.701142 -304.723505 
L 233.587913 -325.31048 
L 229.175491 -244.642652 
L 224.317801 -315.418076 
L 219.042598 -286.076691 
L 214.233135 -272.102925 
L 209.102713 -288.764157 
L 203.808888 -199.277622 
L 199.315025 -284.693254 
L 194.378397 -227.178987 
L 189.081473 -259.575875 
L 183.594649 -305.304341 
L 177.436677 -354.806951 
L 171.266196 -324.276445 
L 164.036323 -325.578542 
L 156.006047 -279.328217 
L 148.16294 -252.337578 
L 140.456586 -318.577113 
L 132.678567 -317.788751 
L 123.089138 -240.487557 
L 111.794749 -327.942794 
L 97.040819 -231.557541 
L 82.967295 -214.08472 
z
" style="stroke: #4682b4; stroke-opacity: 0.3"/>
    </defs>
    <g clip-path="url(#p040607974f)">
     <use xlink:href="#mee3e3c7254" x="0" y="422.617656" style="fill: #4682b4; fill-opacity: 0.3; stroke: #4682b4; stroke-opacity: 0.3"/>
    </g>
   </g>
   <g id="matplotlib.axis_1">
    <g id="xtick_1">
     <g id="line2d_1">
      <path d="M 112.079532 382.157969 
L 112.079532 23.077969 
" clip-path="url(#p040607974f)" style="fill: none; stroke: #b0b0b0; stroke-opacity: 0.3; stroke-width: 0.8; stroke-linecap: square"/>
     </g>
     <g id="line2d_2">
      <defs>
       <path id="m794716a6d9" d="M 0 0 
L 0 3.5 
" style="stroke: #000000; stroke-width: 0.8"/>
      </defs>
      <g>
       <use xlink:href="#m794716a6d9" x="112.079532" y="382.157969" style="stroke: #000000; stroke-width: 0.8"/>
      </g>
     </g>
     <g id="text_1">
      <!-- 10 -->
      <g transform="translate(105.080782 397.51625) scale(0.11 -0.11)">
       <defs>
        <path id="DejaVuSans-31" d="M 794 531 
L 1825 531 
L 1825 4091 
L 703 3866 
L 703 4441 
L 1819 4666 
L 2450 4666 
L 2450 531 
L 3481 531 
L 3481 0 
L 794 0 
L 794 531 
z
" transform="scale(0.015625)"/>
        <path id="DejaVuSans-30" d="M 2034 4250 
Q 1547 4250 1301 3770 
Q 1056 3291 1056 2328 
Q 1056 1369 1301 889 
Q 1547 409 2034 409 
Q 2525 409 2770 889 
Q 3016 1369 3016 2328 
Q 3016 3291 2770 3770 
Q 2525 4250 2034 4250 
z
M 2034 4750 
Q 2819 4750 3233 4129 
Q 3647 3509 3647 2328 
Q 3647 1150 3233 529 
Q 2819 -91 2034 -91 
Q 1250 -91 836 529 
Q 422 1150 422 2328 
Q 422 3509 836 4129 
Q 1250 4750 2034 4750 
z
" transform="scale(0.015625)"/>
       </defs>
       <use xlink:href="#DejaVuSans-31"/>
       <use xlink:href="#DejaVuSans-30" transform="translate(63.623047 0)"/>
      </g>
     </g>
    </g>
    <g id="xtick_2">
     <g id="line2d_3">
      <path d="M 180.190557 382.157969 
L 180.190557 23.077969 
" clip-path="url(#p040607974f)" style="fill: none; stroke: #b0b0b0; stroke-opacity: 0.3; stroke-width: 0.8; stroke-linecap: square"/>
     </g>
     <g id="line2d_4">
      <g>
       <use xlink:href="#m794716a6d9" x="180.190557" y="382.157969" style="stroke: #000000; stroke-width: 0.8"/>
      </g>
     </g>
     <g id="text_2">
      <!-- 20 -->
      <g transform="translate(173.191807 397.51625) scale(0.11 -0.11)">
       <defs>
        <path id="DejaVuSans-32" d="M 1228 531 
L 3431 531 
L 3431 0 
L 469 0 
L 469 531 
Q 828 903 1448 1529 
Q 2069 2156 2228 2338 
Q 2531 2678 2651 2914 
Q 2772 3150 2772 3378 
Q 2772 3750 2511 3984 
Q 2250 4219 1831 4219 
Q 1534 4219 1204 4116 
Q 875 4013 500 3803 
L 500 4441 
Q 881 4594 1212 4672 
Q 1544 4750 1819 4750 
Q 2544 4750 2975 4387 
Q 3406 4025 3406 3419 
Q 3406 3131 3298 2873 
Q 3191 2616 2906 2266 
Q 2828 2175 2409 1742 
Q 1991 1309 1228 531 
z
" transform="scale(0.015625)"/>
       </defs>
       <use xlink:href="#DejaVuSans-32"/>
       <use xlink:href="#DejaVuSans-30" transform="translate(63.623047 0)"/>
      </g>
     </g>
    </g>
    <g id="xtick_3">
     <g id="line2d_5">
      <path d="M 248.301581 382.157969 
L 248.301581 23.077969 
" clip-path="url(#p040607974f)" style="fill: none; stroke: #b0b0b0; stroke-opacity: 0.3; stroke-width: 0.8; stroke-linecap: square"/>
     </g>
     <g id="line2d_6">
      <g>
       <use xlink:href="#m794716a6d9" x="248.301581" y="382.157969" style="stroke: #000000; stroke-width: 0.8"/>
      </g>
     </g>
     <g id="text_3">
      <!-- 30 -->
      <g transform="translate(241.302831 397.51625) scale(0.11 -0.11)">
       <defs>
        <path id="DejaVuSans-33" d="M 2597 2516 
Q 3050 2419 3304 2112 
Q 3559 1806 3559 1356 
Q 3559 666 3084 287 
Q 2609 -91 1734 -91 
Q 1441 -91 1130 -33 
Q 819 25 488 141 
L 488 750 
Q 750 597 1062 519 
Q 1375 441 1716 441 
Q 2309 441 2620 675 
Q 2931 909 2931 1356 
Q 2931 1769 2642 2001 
Q 2353 2234 1838 2234 
L 1294 2234 
L 1294 2753 
L 1863 2753 
Q 2328 2753 2575 2939 
Q 2822 3125 2822 3475 
Q 2822 3834 2567 4026 
Q 2313 4219 1838 4219 
Q 1578 4219 1281 4162 
Q 984 4106 628 3988 
L 628 4550 
Q 988 4650 1302 4700 
Q 1616 4750 1894 4750 
Q 2613 4750 3031 4423 
Q 3450 4097 3450 3541 
Q 3450 3153 3228 2886 
Q 3006 2619 2597 2516 
z
" transform="scale(0.015625)"/>
       </defs>
       <use xlink:href="#DejaVuSans-33"/>
       <use xlink:href="#DejaVuSans-30" transform="translate(63.623047 0)"/>
      </g>
     </g>
    </g>
    <g id="xtick_4">
     <g id="line2d_7">
      <path d="M 316.412605 382.157969 
L 316.412605 23.077969 
" clip-path="url(#p040607974f)" style="fill: none; stroke: #b0b0b0; stroke-opacity: 0.3; stroke-width: 0.8; stroke-linecap: square"/>
     </g>
     <g id="line2d_8">
      <g>
       <use xlink:href="#m794716a6d9" x="316.412605" y="382.157969" style="stroke: #000000; stroke-width: 0.8"/>
      </g>
     </g>
     <g id="text_4">
      <!-- 40 -->
      <g transform="translate(309.413855 397.51625) scale(0.11 -0.11)">
       <defs>
        <path id="DejaVuSans-34" d="M 2419 4116 
L 825 1625 
L 2419 1625 
L 2419 4116 
z
M 2253 4666 
L 3047 4666 
L 3047 1625 
L 3713 1625 
L 3713 1100 
L 3047 1100 
L 3047 0 
L 2419 0 
L 2419 1100 
L 313 1100 
L 313 1709 
L 2253 4666 
z
" transform="scale(0.015625)"/>
       </defs>
       <use xlink:href="#DejaVuSans-34"/>
       <use xlink:href="#DejaVuSans-30" transform="translate(63.623047 0)"/>
      </g>
     </g>
    </g>
    <g id="xtick_5">
     <g id="line2d_9">
      <path d="M 384.523629 382.157969 
L 384.523629 23.077969 
" clip-path="url(#p040607974f)" style="fill: none; stroke: #b0b0b0; stroke-opacity: 0.3; stroke-width: 0.8; stroke-linecap: square"/>
     </g>
     <g id="line2d_10">
      <g>
       <use xlink:href="#m794716a6d9" x="384.523629" y="382.157969" style="stroke: #000000; stroke-width: 0.8"/>
      </g>
     </g>
     <g id="text_5">
      <!-- 50 -->
      <g transform="translate(377.524879 397.51625) scale(0.11 -0.11)">
       <defs>
        <path id="DejaVuSans-35" d="M 691 4666 
L 3169 4666 
L 3169 4134 
L 1269 4134 
L 1269 2991 
Q 1406 3038 1543 3061 
Q 1681 3084 1819 3084 
Q 2600 3084 3056 2656 
Q 3513 2228 3513 1497 
Q 3513 744 3044 326 
Q 2575 -91 1722 -91 
Q 1428 -91 1123 -41 
Q 819 9 494 109 
L 494 744 
Q 775 591 1075 516 
Q 1375 441 1709 441 
Q 2250 441 2565 725 
Q 2881 1009 2881 1497 
Q 2881 1984 2565 2268 
Q 2250 2553 1709 2553 
Q 1456 2553 1204 2497 
Q 953 2441 691 2322 
L 691 4666 
z
" transform="scale(0.015625)"/>
       </defs>
       <use xlink:href="#DejaVuSans-35"/>
       <use xlink:href="#DejaVuSans-30" transform="translate(63.623047 0)"/>
      </g>
     </g>
    </g>
    <g id="xtick_6">
     <g id="line2d_11">
      <path d="M 452.634654 382.157969 
L 452.634654 23.077969 
" clip-path="url(#p040607974f)" style="fill: none; stroke: #b0b0b0; stroke-opacity: 0.3; stroke-width: 0.8; stroke-linecap: square"/>
     </g>
     <g id="line2d_12">
      <g>
       <use xlink:href="#m794716a6d9" x="452.634654" y="382.157969" style="stroke: #000000; stroke-width: 0.8"/>
      </g>
     </g>
     <g id="text_6">
      <!-- 60 -->
      <g transform="translate(445.635904 397.51625) scale(0.11 -0.11)">
       <defs>
        <path id="DejaVuSans-36" d="M 2113 2584 
Q 1688 2584 1439 2293 
Q 1191 2003 1191 1497 
Q 1191 994 1439 701 
Q 1688 409 2113 409 
Q 2538 409 2786 701 
Q 3034 994 3034 1497 
Q 3034 2003 2786 2293 
Q 2538 2584 2113 2584 
z
M 3366 4563 
L 3366 3988 
Q 3128 4100 2886 4159 
Q 2644 4219 2406 4219 
Q 1781 4219 1451 3797 
Q 1122 3375 1075 2522 
Q 1259 2794 1537 2939 
Q 1816 3084 2150 3084 
Q 2853 3084 3261 2657 
Q 3669 2231 3669 1497 
Q 3669 778 3244 343 
Q 2819 -91 2113 -91 
Q 1303 -91 875 529 
Q 447 1150 447 2328 
Q 447 3434 972 4092 
Q 1497 4750 2381 4750 
Q 2619 4750 2861 4703 
Q 3103 4656 3366 4563 
z
" transform="scale(0.015625)"/>
       </defs>
       <use xlink:href="#DejaVuSans-36"/>
       <use xlink:href="#DejaVuSans-30" transform="translate(63.623047 0)"/>
      </g>
     </g>
    </g>
    <g id="text_7">
     <!-- PM2.5 (μg/m³) -->
     <g transform="translate(234.58118 412.922031) scale(0.12 -0.12)">
      <defs>
       <path id="DejaVuSans-50" d="M 1259 4147 
L 1259 2394 
L 2053 2394 
Q 2494 2394 2734 2622 
Q 2975 2850 2975 3272 
Q 2975 3691 2734 3919 
Q 2494 4147 2053 4147 
L 1259 4147 
z
M 628 4666 
L 2053 4666 
Q 2838 4666 3239 4311 
Q 3641 3956 3641 3272 
Q 3641 2581 3239 2228 
Q 2838 1875 2053 1875 
L 1259 1875 
L 1259 0 
L 628 0 
L 628 4666 
z
" transform="scale(0.015625)"/>
       <path id="DejaVuSans-4d" d="M 628 4666 
L 1569 4666 
L 2759 1491 
L 3956 4666 
L 4897 4666 
L 4897 0 
L 4281 0 
L 4281 4097 
L 3078 897 
L 2444 897 
L 1241 4097 
L 1241 0 
L 628 0 
L 628 4666 
z
" transform="scale(0.015625)"/>
       <path id="DejaVuSans-2e" d="M 684 794 
L 1344 794 
L 1344 0 
L 684 0 
L 684 794 
z
" transform="scale(0.015625)"/>
       <path id="DejaVuSans-20" transform="scale(0.015625)"/>
       <path id="DejaVuSans-28" d="M 1984 4856 
Q 1566 4138 1362 3434 
Q 1159 2731 1159 2009 
Q 1159 1288 1364 580 
Q 1569 -128 1984 -844 
L 1484 -844 
Q 1016 -109 783 600 
Q 550 1309 550 2009 
Q 550 2706 781 3412 
Q 1013 4119 1484 4856 
L 1984 4856 
z
" transform="scale(0.015625)"/>
       <path id="DejaVuSans-3bc" d="M 544 -1331 
L 544 3500 
L 1119 3500 
L 1119 1325 
Q 1119 872 1334 640 
Q 1550 409 1972 409 
Q 2434 409 2667 671 
Q 2900 934 2900 1459 
L 2900 3500 
L 3475 3500 
L 3475 806 
Q 3475 619 3529 530 
Q 3584 441 3700 441 
Q 3728 441 3778 458 
Q 3828 475 3916 513 
L 3916 50 
Q 3788 -22 3673 -56 
Q 3559 -91 3450 -91 
Q 3234 -91 3106 31 
Q 2978 153 2931 403 
Q 2775 156 2548 32 
Q 2322 -91 2016 -91 
Q 1697 -91 1473 31 
Q 1250 153 1119 397 
L 1119 -1331 
L 544 -1331 
z
" transform="scale(0.015625)"/>
       <path id="DejaVuSans-67" d="M 2906 1791 
Q 2906 2416 2648 2759 
Q 2391 3103 1925 3103 
Q 1463 3103 1205 2759 
Q 947 2416 947 1791 
Q 947 1169 1205 825 
Q 1463 481 1925 481 
Q 2391 481 2648 825 
Q 2906 1169 2906 1791 
z
M 3481 434 
Q 3481 -459 3084 -895 
Q 2688 -1331 1869 -1331 
Q 1566 -1331 1297 -1286 
Q 1028 -1241 775 -1147 
L 775 -588 
Q 1028 -725 1275 -790 
Q 1522 -856 1778 -856 
Q 2344 -856 2625 -561 
Q 2906 -266 2906 331 
L 2906 616 
Q 2728 306 2450 153 
Q 2172 0 1784 0 
Q 1141 0 747 490 
Q 353 981 353 1791 
Q 353 2603 747 3093 
Q 1141 3584 1784 3584 
Q 2172 3584 2450 3431 
Q 2728 3278 2906 2969 
L 2906 3500 
L 3481 3500 
L 3481 434 
z
" transform="scale(0.015625)"/>
       <path id="DejaVuSans-2f" d="M 1625 4666 
L 2156 4666 
L 531 -594 
L 0 -594 
L 1625 4666 
z
" transform="scale(0.015625)"/>
       <path id="DejaVuSans-6d" d="M 3328 2828 
Q 3544 3216 3844 3400 
Q 4144 3584 4550 3584 
Q 5097 3584 5394 3201 
Q 5691 2819 5691 2113 
L 5691 0 
L 5113 0 
L 5113 2094 
Q 5113 2597 4934 2840 
Q 4756 3084 4391 3084 
Q 3944 3084 3684 2787 
Q 3425 2491 3425 1978 
L 3425 0 
L 2847 0 
L 2847 2094 
Q 2847 2600 2669 2842 
Q 2491 3084 2119 3084 
Q 1678 3084 1418 2786 
Q 1159 2488 1159 1978 
L 1159 0 
L 581 0 
L 581 3500 
L 1159 3500 
L 1159 2956 
Q 1356 3278 1631 3431 
Q 1906 3584 2284 3584 
Q 2666 3584 2933 3390 
Q 3200 3197 3328 2828 
z
" transform="scale(0.015625)"/>
       <path id="DejaVuSans-b3" d="M 1638 3500 
Q 1925 3444 2083 3273 
Q 2241 3103 2241 2847 
Q 2241 2459 1944 2250 
Q 1647 2041 1094 2041 
Q 916 2041 720 2073 
Q 525 2106 306 2169 
L 306 2547 
Q 469 2463 655 2422 
Q 841 2381 1050 2381 
Q 1391 2381 1578 2504 
Q 1766 2628 1766 2847 
Q 1766 3078 1592 3197 
Q 1419 3316 1081 3316 
L 813 3316 
L 813 3653 
L 1106 3653 
Q 1400 3653 1551 3751 
Q 1703 3850 1703 4038 
Q 1703 4219 1547 4314 
Q 1391 4409 1094 4409 
Q 969 4409 809 4381 
Q 650 4353 397 4281 
L 397 4641 
Q 625 4694 825 4722 
Q 1025 4750 1197 4750 
Q 1647 4750 1911 4565 
Q 2175 4381 2175 4072 
Q 2175 3856 2034 3706 
Q 1894 3556 1638 3500 
z
" transform="scale(0.015625)"/>
       <path id="DejaVuSans-29" d="M 513 4856 
L 1013 4856 
Q 1481 4119 1714 3412 
Q 1947 2706 1947 2009 
Q 1947 1309 1714 600 
Q 1481 -109 1013 -844 
L 513 -844 
Q 928 -128 1133 580 
Q 1338 1288 1338 2009 
Q 1338 2731 1133 3434 
Q 928 4138 513 4856 
z
" transform="scale(0.015625)"/>
      </defs>
      <use xlink:href="#DejaVuSans-50"/>
      <use xlink:href="#DejaVuSans-4d" transform="translate(60.302734 0)"/>
      <use xlink:href="#DejaVuSans-32" transform="translate(146.582031 0)"/>
      <use xlink:href="#DejaVuSans-2e" transform="translate(210.205078 0)"/>
      <use xlink:href="#DejaVuSans-35" transform="translate(241.992188 0)"/>
      <use xlink:href="#DejaVuSans-20" transform="translate(305.615234 0)"/>
      <use xlink:href="#DejaVuSans-28" transform="translate(337.402344 0)"/>
      <use xlink:href="#DejaVuSans-3bc" transform="translate(376.416016 0)"/>
      <use xlink:href="#DejaVuSans-67" transform="translate(440.039062 0)"/>
      <use xlink:href="#DejaVuSans-2f" transform="translate(503.515625 0)"/>
      <use xlink:href="#DejaVuSans-6d" transform="translate(537.207031 0)"/>
      <use xlink:href="#DejaVuSans-b3" transform="translate(634.619141 0)"/>
      <use xlink:href="#DejaVuSans-29" transform="translate(674.707031 0)"/>
     </g>
    </g>
   </g>
   <g id="matplotlib.axis_2">
    <g id="ytick_1">
     <g id="line2d_13">
      <path d="M 63.523594 369.760573 
L 491.285017 369.760573 
" clip-path="url(#p040607974f)" style="fill: none; stroke: #b0b0b0; stroke-opacity: 0.3; stroke-width: 0.8; stroke-linecap: square"/>
     </g>
     <g id="line2d_14">
      <defs>
       <path id="m104f0e63f4" d="M 0 0 
L -3.5 0 
" style="stroke: #000000; stroke-width: 0.8"/>
      </defs>
      <g>
       <use xlink:href="#m104f0e63f4" x="63.523594" y="369.760573" style="stroke: #000000; stroke-width: 0.8"/>
      </g>
     </g>
     <g id="text_8">
      <!-- −0.04 -->
      <g transform="translate(22.81375 373.939713) scale(0.11 -0.11)">
       <defs>
        <path id="DejaVuSans-2212" d="M 678 2272 
L 4684 2272 
L 4684 1741 
L 678 1741 
L 678 2272 
z
" transform="scale(0.015625)"/>
       </defs>
       <use xlink:href="#DejaVuSans-2212"/>
       <use xlink:href="#DejaVuSans-30" transform="translate(83.789062 0)"/>
       <use xlink:href="#DejaVuSans-2e" transform="translate(147.412109 0)"/>
       <use xlink:href="#DejaVuSans-30" transform="translate(179.199219 0)"/>
       <use xlink:href="#DejaVuSans-34" transform="translate(242.822266 0)"/>
      </g>
     </g>
    </g>
    <g id="ytick_2">
     <g id="line2d_15">
      <path d="M 63.523594 325.442425 
L 491.285017 325.442425 
" clip-path="url(#p040607974f)" style="fill: none; stroke: #b0b0b0; stroke-opacity: 0.3; stroke-width: 0.8; stroke-linecap: square"/>
     </g>
     <g id="line2d_16">
      <g>
       <use xlink:href="#m104f0e63f4" x="63.523594" y="325.442425" style="stroke: #000000; stroke-width: 0.8"/>
      </g>
     </g>
     <g id="text_9">
      <!-- −0.02 -->
      <g transform="translate(22.81375 329.621566) scale(0.11 -0.11)">
       <use xlink:href="#DejaVuSans-2212"/>
       <use xlink:href="#DejaVuSans-30" transform="translate(83.789062 0)"/>
       <use xlink:href="#DejaVuSans-2e" transform="translate(147.412109 0)"/>
       <use xlink:href="#DejaVuSans-30" transform="translate(179.199219 0)"/>
       <use xlink:href="#DejaVuSans-32" transform="translate(242.822266 0)"/>
      </g>
     </g>
    </g>
    <g id="ytick_3">
     <g id="line2d_17">
      <path d="M 63.523594 281.124278 
L 491.285017 281.124278 
" clip-path="url(#p040607974f)" style="fill: none; stroke: #b0b0b0; stroke-opacity: 0.3; stroke-width: 0.8; stroke-linecap: square"/>
     </g>
     <g id="line2d_18">
      <g>
       <use xlink:href="#m104f0e63f4" x="63.523594" y="281.124278" style="stroke: #000000; stroke-width: 0.8"/>
      </g>
     </g>
     <g id="text_10">
      <!-- 0.00 -->
      <g transform="translate(32.031406 285.303419) scale(0.11 -0.11)">
       <use xlink:href="#DejaVuSans-30"/>
       <use xlink:href="#DejaVuSans-2e" transform="translate(63.623047 0)"/>
       <use xlink:href="#DejaVuSans-30" transform="translate(95.410156 0)"/>
       <use xlink:href="#DejaVuSans-30" transform="translate(159.033203 0)"/>
      </g>
     </g>
    </g>
    <g id="ytick_4">
     <g id="line2d_19">
      <path d="M 63.523594 236.806131 
L 491.285017 236.806131 
" clip-path="url(#p040607974f)" style="fill: none; stroke: #b0b0b0; stroke-opacity: 0.3; stroke-width: 0.8; stroke-linecap: square"/>
     </g>
     <g id="line2d_20">
      <g>
       <use xlink:href="#m104f0e63f4" x="63.523594" y="236.806131" style="stroke: #000000; stroke-width: 0.8"/>
      </g>
     </g>
     <g id="text_11">
      <!-- 0.02 -->
      <g transform="translate(32.031406 240.985271) scale(0.11 -0.11)">
       <use xlink:href="#DejaVuSans-30"/>
       <use xlink:href="#DejaVuSans-2e" transform="translate(63.623047 0)"/>
       <use xlink:href="#DejaVuSans-30" transform="translate(95.410156 0)"/>
       <use xlink:href="#DejaVuSans-32" transform="translate(159.033203 0)"/>
      </g>
     </g>
    </g>
    <g id="ytick_5">
     <g id="line2d_21">
      <path d="M 63.523594 192.487983 
L 491.285017 192.487983 
" clip-path="url(#p040607974f)" style="fill: none; stroke: #b0b0b0; stroke-opacity: 0.3; stroke-width: 0.8; stroke-linecap: square"/>
     </g>
     <g id="line2d_22">
      <g>
       <use xlink:href="#m104f0e63f4" x="63.523594" y="192.487983" style="stroke: #000000; stroke-width: 0.8"/>
      </g>
     </g>
     <g id="text_12">
      <!-- 0.04 -->
      <g transform="translate(32.031406 196.667124) scale(0.11 -0.11)">
       <use xlink:href="#DejaVuSans-30"/>
       <use xlink:href="#DejaVuSans-2e" transform="translate(63.623047 0)"/>
       <use xlink:href="#DejaVuSans-30" transform="translate(95.410156 0)"/>
       <use xlink:href="#DejaVuSans-34" transform="translate(159.033203 0)"/>
      </g>
     </g>
    </g>
    <g id="ytick_6">
     <g id="line2d_23">
      <path d="M 63.523594 148.169836 
L 491.285017 148.169836 
" clip-path="url(#p040607974f)" style="fill: none; stroke: #b0b0b0; stroke-opacity: 0.3; stroke-width: 0.8; stroke-linecap: square"/>
     </g>
     <g id="line2d_24">
      <g>
       <use xlink:href="#m104f0e63f4" x="63.523594" y="148.169836" style="stroke: #000000; stroke-width: 0.8"/>
      </g>
     </g>
     <g id="text_13">
      <!-- 0.06 -->
      <g transform="translate(32.031406 152.348977) scale(0.11 -0.11)">
       <use xlink:href="#DejaVuSans-30"/>
       <use xlink:href="#DejaVuSans-2e" transform="translate(63.623047 0)"/>
       <use xlink:href="#DejaVuSans-30" transform="translate(95.410156 0)"/>
       <use xlink:href="#DejaVuSans-36" transform="translate(159.033203 0)"/>
      </g>
     </g>
    </g>
    <g id="ytick_7">
     <g id="line2d_25">
      <path d="M 63.523594 103.851689 
L 491.285017 103.851689 
" clip-path="url(#p040607974f)" style="fill: none; stroke: #b0b0b0; stroke-opacity: 0.3; stroke-width: 0.8; stroke-linecap: square"/>
     </g>
     <g id="line2d_26">
      <g>
       <use xlink:href="#m104f0e63f4" x="63.523594" y="103.851689" style="stroke: #000000; stroke-width: 0.8"/>
      </g>
     </g>
     <g id="text_14">
      <!-- 0.08 -->
      <g transform="translate(32.031406 108.030829) scale(0.11 -0.11)">
       <defs>
        <path id="DejaVuSans-38" d="M 2034 2216 
Q 1584 2216 1326 1975 
Q 1069 1734 1069 1313 
Q 1069 891 1326 650 
Q 1584 409 2034 409 
Q 2484 409 2743 651 
Q 3003 894 3003 1313 
Q 3003 1734 2745 1975 
Q 2488 2216 2034 2216 
z
M 1403 2484 
Q 997 2584 770 2862 
Q 544 3141 544 3541 
Q 544 4100 942 4425 
Q 1341 4750 2034 4750 
Q 2731 4750 3128 4425 
Q 3525 4100 3525 3541 
Q 3525 3141 3298 2862 
Q 3072 2584 2669 2484 
Q 3125 2378 3379 2068 
Q 3634 1759 3634 1313 
Q 3634 634 3220 271 
Q 2806 -91 2034 -91 
Q 1263 -91 848 271 
Q 434 634 434 1313 
Q 434 1759 690 2068 
Q 947 2378 1403 2484 
z
M 1172 3481 
Q 1172 3119 1398 2916 
Q 1625 2713 2034 2713 
Q 2441 2713 2670 2916 
Q 2900 3119 2900 3481 
Q 2900 3844 2670 4047 
Q 2441 4250 2034 4250 
Q 1625 4250 1398 4047 
Q 1172 3844 1172 3481 
z
" transform="scale(0.015625)"/>
       </defs>
       <use xlink:href="#DejaVuSans-30"/>
       <use xlink:href="#DejaVuSans-2e" transform="translate(63.623047 0)"/>
       <use xlink:href="#DejaVuSans-30" transform="translate(95.410156 0)"/>
       <use xlink:href="#DejaVuSans-38" transform="translate(159.033203 0)"/>
      </g>
     </g>
    </g>
    <g id="ytick_8">
     <g id="line2d_27">
      <path d="M 63.523594 59.533542 
L 491.285017 59.533542 
" clip-path="url(#p040607974f)" style="fill: none; stroke: #b0b0b0; stroke-opacity: 0.3; stroke-width: 0.8; stroke-linecap: square"/>
     </g>
     <g id="line2d_28">
      <g>
       <use xlink:href="#m104f0e63f4" x="63.523594" y="59.533542" style="stroke: #000000; stroke-width: 0.8"/>
      </g>
     </g>
     <g id="text_15">
      <!-- 0.10 -->
      <g transform="translate(32.031406 63.712682) scale(0.11 -0.11)">
       <use xlink:href="#DejaVuSans-30"/>
       <use xlink:href="#DejaVuSans-2e" transform="translate(63.623047 0)"/>
       <use xlink:href="#DejaVuSans-31" transform="translate(95.410156 0)"/>
       <use xlink:href="#DejaVuSans-30" transform="translate(159.033203 0)"/>
      </g>
     </g>
    </g>
    <g id="text_16">
     <!-- log(RR) relative to median -->
     <g transform="translate(16.318125 281.650156) rotate(-90) scale(0.12 -0.12)">
      <defs>
       <path id="DejaVuSans-6c" d="M 603 4863 
L 1178 4863 
L 1178 0 
L 603 0 
L 603 4863 
z
" transform="scale(0.015625)"/>
       <path id="DejaVuSans-6f" d="M 1959 3097 
Q 1497 3097 1228 2736 
Q 959 2375 959 1747 
Q 959 1119 1226 758 
Q 1494 397 1959 397 
Q 2419 397 2687 759 
Q 2956 1122 2956 1747 
Q 2956 2369 2687 2733 
Q 2419 3097 1959 3097 
z
M 1959 3584 
Q 2709 3584 3137 3096 
Q 3566 2609 3566 1747 
Q 3566 888 3137 398 
Q 2709 -91 1959 -91 
Q 1206 -91 779 398 
Q 353 888 353 1747 
Q 353 2609 779 3096 
Q 1206 3584 1959 3584 
z
" transform="scale(0.015625)"/>
       <path id="DejaVuSans-52" d="M 2841 2188 
Q 3044 2119 3236 1894 
Q 3428 1669 3622 1275 
L 4263 0 
L 3584 0 
L 2988 1197 
Q 2756 1666 2539 1819 
Q 2322 1972 1947 1972 
L 1259 1972 
L 1259 0 
L 628 0 
L 628 4666 
L 2053 4666 
Q 2853 4666 3247 4331 
Q 3641 3997 3641 3322 
Q 3641 2881 3436 2590 
Q 3231 2300 2841 2188 
z
M 1259 4147 
L 1259 2491 
L 2053 2491 
Q 2509 2491 2742 2702 
Q 2975 2913 2975 3322 
Q 2975 3731 2742 3939 
Q 2509 4147 2053 4147 
L 1259 4147 
z
" transform="scale(0.015625)"/>
       <path id="DejaVuSans-72" d="M 2631 2963 
Q 2534 3019 2420 3045 
Q 2306 3072 2169 3072 
Q 1681 3072 1420 2755 
Q 1159 2438 1159 1844 
L 1159 0 
L 581 0 
L 581 3500 
L 1159 3500 
L 1159 2956 
Q 1341 3275 1631 3429 
Q 1922 3584 2338 3584 
Q 2397 3584 2469 3576 
Q 2541 3569 2628 3553 
L 2631 2963 
z
" transform="scale(0.015625)"/>
       <path id="DejaVuSans-65" d="M 3597 1894 
L 3597 1613 
L 953 1613 
Q 991 1019 1311 708 
Q 1631 397 2203 397 
Q 2534 397 2845 478 
Q 3156 559 3463 722 
L 3463 178 
Q 3153 47 2828 -22 
Q 2503 -91 2169 -91 
Q 1331 -91 842 396 
Q 353 884 353 1716 
Q 353 2575 817 3079 
Q 1281 3584 2069 3584 
Q 2775 3584 3186 3129 
Q 3597 2675 3597 1894 
z
M 3022 2063 
Q 3016 2534 2758 2815 
Q 2500 3097 2075 3097 
Q 1594 3097 1305 2825 
Q 1016 2553 972 2059 
L 3022 2063 
z
" transform="scale(0.015625)"/>
       <path id="DejaVuSans-61" d="M 2194 1759 
Q 1497 1759 1228 1600 
Q 959 1441 959 1056 
Q 959 750 1161 570 
Q 1363 391 1709 391 
Q 2188 391 2477 730 
Q 2766 1069 2766 1631 
L 2766 1759 
L 2194 1759 
z
M 3341 1997 
L 3341 0 
L 2766 0 
L 2766 531 
Q 2569 213 2275 61 
Q 1981 -91 1556 -91 
Q 1019 -91 701 211 
Q 384 513 384 1019 
Q 384 1609 779 1909 
Q 1175 2209 1959 2209 
L 2766 2209 
L 2766 2266 
Q 2766 2663 2505 2880 
Q 2244 3097 1772 3097 
Q 1472 3097 1187 3025 
Q 903 2953 641 2809 
L 641 3341 
Q 956 3463 1253 3523 
Q 1550 3584 1831 3584 
Q 2591 3584 2966 3190 
Q 3341 2797 3341 1997 
z
" transform="scale(0.015625)"/>
       <path id="DejaVuSans-74" d="M 1172 4494 
L 1172 3500 
L 2356 3500 
L 2356 3053 
L 1172 3053 
L 1172 1153 
Q 1172 725 1289 603 
Q 1406 481 1766 481 
L 2356 481 
L 2356 0 
L 1766 0 
Q 1100 0 847 248 
Q 594 497 594 1153 
L 594 3053 
L 172 3053 
L 172 3500 
L 594 3500 
L 594 4494 
L 1172 4494 
z
" transform="scale(0.015625)"/>
       <path id="DejaVuSans-69" d="M 603 3500 
L 1178 3500 
L 1178 0 
L 603 0 
L 603 3500 
z
M 603 4863 
L 1178 4863 
L 1178 4134 
L 603 4134 
L 603 4863 
z
" transform="scale(0.015625)"/>
       <path id="DejaVuSans-76" d="M 191 3500 
L 800 3500 
L 1894 563 
L 2988 3500 
L 3597 3500 
L 2284 0 
L 1503 0 
L 191 3500 
z
" transform="scale(0.015625)"/>
       <path id="DejaVuSans-64" d="M 2906 2969 
L 2906 4863 
L 3481 4863 
L 3481 0 
L 2906 0 
L 2906 525 
Q 2725 213 2448 61 
Q 2172 -91 1784 -91 
Q 1150 -91 751 415 
Q 353 922 353 1747 
Q 353 2572 751 3078 
Q 1150 3584 1784 3584 
Q 2172 3584 2448 3432 
Q 2725 3281 2906 2969 
z
M 947 1747 
Q 947 1113 1208 752 
Q 1469 391 1925 391 
Q 2381 391 2643 752 
Q 2906 1113 2906 1747 
Q 2906 2381 2643 2742 
Q 2381 3103 1925 3103 
Q 1469 3103 1208 2742 
Q 947 2381 947 1747 
z
" transform="scale(0.015625)"/>
       <path id="DejaVuSans-6e" d="M 3513 2113 
L 3513 0 
L 2938 0 
L 2938 2094 
Q 2938 2591 2744 2837 
Q 2550 3084 2163 3084 
Q 1697 3084 1428 2787 
Q 1159 2491 1159 1978 
L 1159 0 
L 581 0 
L 581 3500 
L 1159 3500 
L 1159 2956 
Q 1366 3272 1645 3428 
Q 1925 3584 2291 3584 
Q 2894 3584 3203 3211 
Q 3513 2838 3513 2113 
z
" transform="scale(0.015625)"/>
      </defs>
      <use xlink:href="#DejaVuSans-6c"/>
      <use xlink:href="#DejaVuSans-6f" transform="translate(27.783203 0)"/>
      <use xlink:href="#DejaVuSans-67" transform="translate(88.964844 0)"/>
      <use xlink:href="#DejaVuSans-28" transform="translate(152.441406 0)"/>
      <use xlink:href="#DejaVuSans-52" transform="translate(191.455078 0)"/>
      <use xlink:href="#DejaVuSans-52" transform="translate(260.9375 0)"/>
      <use xlink:href="#DejaVuSans-29" transform="translate(330.419922 0)"/>
      <use xlink:href="#DejaVuSans-20" transform="translate(369.433594 0)"/>
      <use xlink:href="#DejaVuSans-72" transform="translate(401.220703 0)"/>
      <use xlink:href="#DejaVuSans-65" transform="translate(440.083984 0)"/>
      <use xlink:href="#DejaVuSans-6c" transform="translate(501.607422 0)"/>
      <use xlink:href="#DejaVuSans-61" transform="translate(529.390625 0)"/>
      <use xlink:href="#DejaVuSans-74" transform="translate(590.669922 0)"/>
      <use xlink:href="#DejaVuSans-69" transform="translate(629.878906 0)"/>
      <use xlink:href="#DejaVuSans-76" transform="translate(657.662109 0)"/>
      <use xlink:href="#DejaVuSans-65" transform="translate(716.841797 0)"/>
      <use xlink:href="#DejaVuSans-20" transform="translate(778.365234 0)"/>
      <use xlink:href="#DejaVuSans-74" transform="translate(810.152344 0)"/>
      <use xlink:href="#DejaVuSans-6f" transform="translate(849.361328 0)"/>
      <use xlink:href="#DejaVuSans-20" transform="translate(910.542969 0)"/>
      <use xlink:href="#DejaVuSans-6d" transform="translate(942.330078 0)"/>
      <use xlink:href="#DejaVuSans-65" transform="translate(1039.742188 0)"/>
      <use xlink:href="#DejaVuSans-64" transform="translate(1101.265625 0)"/>
      <use xlink:href="#DejaVuSans-69" transform="translate(1164.742188 0)"/>
      <use xlink:href="#DejaVuSans-61" transform="translate(1192.525391 0)"/>
      <use xlink:href="#DejaVuSans-6e" transform="translate(1253.804688 0)"/>
     </g>
    </g>
   </g>
   <g id="line2d_29">
    <path d="M 82.967295 229.92359 
L 86.895315 228.40479 
L 90.823336 226.946444 
L 94.751356 225.547116 
L 98.679376 224.20537 
L 102.607397 222.919771 
L 106.535417 221.688882 
L 110.463438 220.511268 
L 114.391458 219.385492 
L 118.319479 218.310121 
L 122.247499 217.283716 
L 126.175519 216.304843 
L 130.10354 215.372066 
L 134.03156 214.48395 
L 137.959581 213.639057 
L 141.887601 212.835954 
L 145.815621 212.073203 
L 149.743642 211.349369 
L 153.671662 210.663016 
L 157.599683 210.012709 
L 161.527703 209.397012 
L 165.455724 208.814488 
L 169.383744 208.263703 
L 173.311764 207.74322 
L 177.239785 207.251604 
L 181.167805 206.787418 
L 185.095826 206.349228 
L 189.023846 205.935596 
L 192.951866 205.545089 
L 196.879887 205.176269 
L 200.807907 204.827701 
L 204.735928 204.497949 
L 208.663948 204.185577 
L 212.591969 203.889151 
L 216.519989 203.607232 
L 220.448009 203.338388 
L 224.37603 203.08118 
L 228.30405 202.834174 
L 232.232071 202.595933 
L 236.160091 202.365023 
L 240.088111 202.140007 
L 244.016132 201.919449 
L 247.944152 201.701913 
L 251.872173 201.485965 
L 255.800193 201.270168 
L 259.728214 201.053086 
L 263.656234 200.833283 
L 267.584254 200.609324 
L 271.512275 200.379774 
L 275.440295 200.143195 
L 279.368316 199.898153 
L 283.296336 199.643211 
L 287.224356 199.376935 
L 291.152377 199.097887 
L 295.080397 198.804633 
L 299.008418 198.495736 
L 302.936438 198.169761 
L 306.864459 197.825272 
L 310.792479 197.460833 
L 314.720499 197.075009 
L 318.64852 196.666363 
L 322.57654 196.23346 
L 326.504561 195.774865 
L 330.432581 195.28914 
L 334.360601 194.774851 
L 338.288622 194.230562 
L 342.216642 193.654837 
L 346.144663 193.04624 
L 350.072683 192.403336 
L 354.000704 191.724688 
L 357.928724 191.008861 
L 361.856744 190.25442 
L 365.784765 189.459927 
L 369.712785 188.623948 
L 373.640806 187.745047 
L 377.568826 186.821788 
L 381.496846 185.852735 
L 385.424867 184.836453 
L 389.352887 183.771505 
L 393.280908 182.656456 
L 397.208928 181.489871 
L 401.136949 180.270312 
L 405.064969 178.996345 
L 408.992989 177.666534 
L 412.92101 176.279444 
L 416.84903 174.833637 
L 420.777051 173.327679 
L 424.705071 171.760133 
L 428.633091 170.129564 
L 432.561112 168.434537 
L 436.489132 166.673615 
L 440.417153 164.845362 
L 444.345173 162.948343 
L 448.273194 160.981123 
L 452.201214 158.942264 
L 456.129234 156.830332 
L 460.057255 154.643891 
L 463.985275 152.381504 
L 467.913296 150.041737 
L 471.841316 147.623153 
" clip-path="url(#p040607974f)" style="fill: none; stroke: #0000ff; stroke-width: 2; stroke-linecap: square"/>
   </g>
   <g id="line2d_30">
    <path d="M 63.523594 281.124278 
L 491.285017 281.124278 
" clip-path="url(#p040607974f)" style="fill: none; stroke-dasharray: 5.55,2.4; stroke-dashoffset: 0; stroke: #ff0000; stroke-opacity: 0.5; stroke-width: 1.5"/>
   </g>
   <g id="patch_3">
    <path d="M 63.523594 382.157969 
L 63.523594 23.077969 
" style="fill: none; stroke: #000000; stroke-width: 0.8; stroke-linejoin: miter; stroke-linecap: square"/>
   </g>
   <g id="patch_4">
    <path d="M 491.285017 382.157969 
L 491.285017 23.077969 
" style="fill: none; stroke: #000000; stroke-width: 0.8; stroke-linejoin: miter; stroke-linecap: square"/>
   </g>
   <g id="patch_5">
    <path d="M 63.523594 382.157969 
L 491.285017 382.157969 
" style="fill: none; stroke: #000000; stroke-width: 0.8; stroke-linejoin: miter; stroke-linecap: square"/>
   </g>
   <g id="patch_6">
    <path d="M 63.523594 23.077969 
L 491.285017 23.077969 
" style="fill: none; stroke: #000000; stroke-width: 0.8; stroke-linejoin: miter; stroke-linecap: square"/>
   </g>
   <g id="PathCollection_1">
    <defs>
     <path id="mfd26ced331" d="M 0 1.936492 
C 0.513564 1.936492 1.006162 1.732451 1.369306 1.369306 
C 1.732451 1.006162 1.936492 0.513564 1.936492 0 
C 1.936492 -0.513564 1.732451 -1.006162 1.369306 -1.369306 
C 1.006162 -1.732451 0.513564 -1.936492 0 -1.936492 
C -0.513564 -1.936492 -1.006162 -1.732451 -1.369306 -1.369306 
C -1.732451 -1.006162 -1.936492 -0.513564 -1.936492 0 
C -1.936492 0.513564 -1.732451 1.006162 -1.369306 1.369306 
C -1.006162 1.732451 -0.513564 1.936492 0 1.936492 
z
" style="stroke: #4682b4; stroke-opacity: 0.7"/>
    </defs>
    <g clip-path="url(#p040607974f)">
     <use xlink:href="#mfd26ced331" x="82.967295" y="259.663961" style="fill: #4682b4; fill-opacity: 0.7; stroke: #4682b4; stroke-opacity: 0.7"/>
     <use xlink:href="#mfd26ced331" x="97.040819" y="268.800098" style="fill: #4682b4; fill-opacity: 0.7; stroke: #4682b4; stroke-opacity: 0.7"/>
     <use xlink:href="#mfd26ced331" x="111.794749" y="158.493837" style="fill: #4682b4; fill-opacity: 0.7; stroke: #4682b4; stroke-opacity: 0.7"/>
     <use xlink:href="#mfd26ced331" x="123.089138" y="247.052507" style="fill: #4682b4; fill-opacity: 0.7; stroke: #4682b4; stroke-opacity: 0.7"/>
     <use xlink:href="#mfd26ced331" x="132.678567" y="172.477567" style="fill: #4682b4; fill-opacity: 0.7; stroke: #4682b4; stroke-opacity: 0.7"/>
     <use xlink:href="#mfd26ced331" x="140.456586" y="177.717835" style="fill: #4682b4; fill-opacity: 0.7; stroke: #4682b4; stroke-opacity: 0.7"/>
     <use xlink:href="#mfd26ced331" x="148.16294" y="230.957096" style="fill: #4682b4; fill-opacity: 0.7; stroke: #4682b4; stroke-opacity: 0.7"/>
     <use xlink:href="#mfd26ced331" x="156.006047" y="211.0232" style="fill: #4682b4; fill-opacity: 0.7; stroke: #4682b4; stroke-opacity: 0.7"/>
     <use xlink:href="#mfd26ced331" x="164.036323" y="175.042886" style="fill: #4682b4; fill-opacity: 0.7; stroke: #4682b4; stroke-opacity: 0.7"/>
     <use xlink:href="#mfd26ced331" x="171.266196" y="156.257801" style="fill: #4682b4; fill-opacity: 0.7; stroke: #4682b4; stroke-opacity: 0.7"/>
     <use xlink:href="#mfd26ced331" x="177.436677" y="132.078824" style="fill: #4682b4; fill-opacity: 0.7; stroke: #4682b4; stroke-opacity: 0.7"/>
     <use xlink:href="#mfd26ced331" x="183.594649" y="192.395906" style="fill: #4682b4; fill-opacity: 0.7; stroke: #4682b4; stroke-opacity: 0.7"/>
     <use xlink:href="#mfd26ced331" x="189.081473" y="231.527404" style="fill: #4682b4; fill-opacity: 0.7; stroke: #4682b4; stroke-opacity: 0.7"/>
     <use xlink:href="#mfd26ced331" x="194.378397" y="268.378567" style="fill: #4682b4; fill-opacity: 0.7; stroke: #4682b4; stroke-opacity: 0.7"/>
     <use xlink:href="#mfd26ced331" x="199.315025" y="207.433739" style="fill: #4682b4; fill-opacity: 0.7; stroke: #4682b4; stroke-opacity: 0.7"/>
     <use xlink:href="#mfd26ced331" x="203.808888" y="294.588092" style="fill: #4682b4; fill-opacity: 0.7; stroke: #4682b4; stroke-opacity: 0.7"/>
     <use xlink:href="#mfd26ced331" x="209.102713" y="201.594249" style="fill: #4682b4; fill-opacity: 0.7; stroke: #4682b4; stroke-opacity: 0.7"/>
     <use xlink:href="#mfd26ced331" x="214.233135" y="213.694084" style="fill: #4682b4; fill-opacity: 0.7; stroke: #4682b4; stroke-opacity: 0.7"/>
     <use xlink:href="#mfd26ced331" x="219.042598" y="205.714414" style="fill: #4682b4; fill-opacity: 0.7; stroke: #4682b4; stroke-opacity: 0.7"/>
     <use xlink:href="#mfd26ced331" x="224.317801" y="180.481937" style="fill: #4682b4; fill-opacity: 0.7; stroke: #4682b4; stroke-opacity: 0.7"/>
     <use xlink:href="#mfd26ced331" x="229.175491" y="242.190104" style="fill: #4682b4; fill-opacity: 0.7; stroke: #4682b4; stroke-opacity: 0.7"/>
     <use xlink:href="#mfd26ced331" x="233.587913" y="167.51963" style="fill: #4682b4; fill-opacity: 0.7; stroke: #4682b4; stroke-opacity: 0.7"/>
     <use xlink:href="#mfd26ced331" x="238.701142" y="176.756235" style="fill: #4682b4; fill-opacity: 0.7; stroke: #4682b4; stroke-opacity: 0.7"/>
     <use xlink:href="#mfd26ced331" x="243.641593" y="281.124278" style="fill: #4682b4; fill-opacity: 0.7; stroke: #4682b4; stroke-opacity: 0.7"/>
     <use xlink:href="#mfd26ced331" x="248.180431" y="199.987697" style="fill: #4682b4; fill-opacity: 0.7; stroke: #4682b4; stroke-opacity: 0.7"/>
     <use xlink:href="#mfd26ced331" x="252.60389" y="238.378745" style="fill: #4682b4; fill-opacity: 0.7; stroke: #4682b4; stroke-opacity: 0.7"/>
     <use xlink:href="#mfd26ced331" x="257.138669" y="279.11651" style="fill: #4682b4; fill-opacity: 0.7; stroke: #4682b4; stroke-opacity: 0.7"/>
     <use xlink:href="#mfd26ced331" x="261.593255" y="219.320832" style="fill: #4682b4; fill-opacity: 0.7; stroke: #4682b4; stroke-opacity: 0.7"/>
     <use xlink:href="#mfd26ced331" x="265.945135" y="234.521745" style="fill: #4682b4; fill-opacity: 0.7; stroke: #4682b4; stroke-opacity: 0.7"/>
     <use xlink:href="#mfd26ced331" x="270.546103" y="203.731864" style="fill: #4682b4; fill-opacity: 0.7; stroke: #4682b4; stroke-opacity: 0.7"/>
     <use xlink:href="#mfd26ced331" x="275.251117" y="146.2975" style="fill: #4682b4; fill-opacity: 0.7; stroke: #4682b4; stroke-opacity: 0.7"/>
     <use xlink:href="#mfd26ced331" x="280.325905" y="154.830982" style="fill: #4682b4; fill-opacity: 0.7; stroke: #4682b4; stroke-opacity: 0.7"/>
     <use xlink:href="#mfd26ced331" x="284.987448" y="195.071429" style="fill: #4682b4; fill-opacity: 0.7; stroke: #4682b4; stroke-opacity: 0.7"/>
     <use xlink:href="#mfd26ced331" x="289.717538" y="193.878263" style="fill: #4682b4; fill-opacity: 0.7; stroke: #4682b4; stroke-opacity: 0.7"/>
     <use xlink:href="#mfd26ced331" x="295.341571" y="176.164856" style="fill: #4682b4; fill-opacity: 0.7; stroke: #4682b4; stroke-opacity: 0.7"/>
     <use xlink:href="#mfd26ced331" x="301.549125" y="107.84346" style="fill: #4682b4; fill-opacity: 0.7; stroke: #4682b4; stroke-opacity: 0.7"/>
     <use xlink:href="#mfd26ced331" x="307.448634" y="179.849117" style="fill: #4682b4; fill-opacity: 0.7; stroke: #4682b4; stroke-opacity: 0.7"/>
     <use xlink:href="#mfd26ced331" x="312.601641" y="184.062546" style="fill: #4682b4; fill-opacity: 0.7; stroke: #4682b4; stroke-opacity: 0.7"/>
     <use xlink:href="#mfd26ced331" x="318.326551" y="214.892429" style="fill: #4682b4; fill-opacity: 0.7; stroke: #4682b4; stroke-opacity: 0.7"/>
     <use xlink:href="#mfd26ced331" x="325.089537" y="191.511749" style="fill: #4682b4; fill-opacity: 0.7; stroke: #4682b4; stroke-opacity: 0.7"/>
     <use xlink:href="#mfd26ced331" x="332.561245" y="215.589157" style="fill: #4682b4; fill-opacity: 0.7; stroke: #4682b4; stroke-opacity: 0.7"/>
     <use xlink:href="#mfd26ced331" x="339.954442" y="167.112917" style="fill: #4682b4; fill-opacity: 0.7; stroke: #4682b4; stroke-opacity: 0.7"/>
     <use xlink:href="#mfd26ced331" x="346.939195" y="197.53994" style="fill: #4682b4; fill-opacity: 0.7; stroke: #4682b4; stroke-opacity: 0.7"/>
     <use xlink:href="#mfd26ced331" x="355.661894" y="169.246591" style="fill: #4682b4; fill-opacity: 0.7; stroke: #4682b4; stroke-opacity: 0.7"/>
     <use xlink:href="#mfd26ced331" x="367.455077" y="219.135347" style="fill: #4682b4; fill-opacity: 0.7; stroke: #4682b4; stroke-opacity: 0.7"/>
     <use xlink:href="#mfd26ced331" x="379.322859" y="208.008872" style="fill: #4682b4; fill-opacity: 0.7; stroke: #4682b4; stroke-opacity: 0.7"/>
     <use xlink:href="#mfd26ced331" x="393.155005" y="179.653685" style="fill: #4682b4; fill-opacity: 0.7; stroke: #4682b4; stroke-opacity: 0.7"/>
     <use xlink:href="#mfd26ced331" x="411.995274" y="191.413752" style="fill: #4682b4; fill-opacity: 0.7; stroke: #4682b4; stroke-opacity: 0.7"/>
     <use xlink:href="#mfd26ced331" x="471.841316" y="142.806409" style="fill: #4682b4; fill-opacity: 0.7; stroke: #4682b4; stroke-opacity: 0.7"/>
    </g>
   </g>
   <g id="text_17">
    <!-- Exposure-Response Function: PM2.5 → All-cause Mortality -->
    <g transform="translate(90.016415 17.077969) scale(0.13 -0.13)">
     <defs>
      <path id="DejaVuSans-45" d="M 628 4666 
L 3578 4666 
L 3578 4134 
L 1259 4134 
L 1259 2753 
L 3481 2753 
L 3481 2222 
L 1259 2222 
L 1259 531 
L 3634 531 
L 3634 0 
L 628 0 
L 628 4666 
z
" transform="scale(0.015625)"/>
      <path id="DejaVuSans-78" d="M 3513 3500 
L 2247 1797 
L 3578 0 
L 2900 0 
L 1881 1375 
L 863 0 
L 184 0 
L 1544 1831 
L 300 3500 
L 978 3500 
L 1906 2253 
L 2834 3500 
L 3513 3500 
z
" transform="scale(0.015625)"/>
      <path id="DejaVuSans-70" d="M 1159 525 
L 1159 -1331 
L 581 -1331 
L 581 3500 
L 1159 3500 
L 1159 2969 
Q 1341 3281 1617 3432 
Q 1894 3584 2278 3584 
Q 2916 3584 3314 3078 
Q 3713 2572 3713 1747 
Q 3713 922 3314 415 
Q 2916 -91 2278 -91 
Q 1894 -91 1617 61 
Q 1341 213 1159 525 
z
M 3116 1747 
Q 3116 2381 2855 2742 
Q 2594 3103 2138 3103 
Q 1681 3103 1420 2742 
Q 1159 2381 1159 1747 
Q 1159 1113 1420 752 
Q 1681 391 2138 391 
Q 2594 391 2855 752 
Q 3116 1113 3116 1747 
z
" transform="scale(0.015625)"/>
      <path id="DejaVuSans-73" d="M 2834 3397 
L 2834 2853 
Q 2591 2978 2328 3040 
Q 2066 3103 1784 3103 
Q 1356 3103 1142 2972 
Q 928 2841 928 2578 
Q 928 2378 1081 2264 
Q 1234 2150 1697 2047 
L 1894 2003 
Q 2506 1872 2764 1633 
Q 3022 1394 3022 966 
Q 3022 478 2636 193 
Q 2250 -91 1575 -91 
Q 1294 -91 989 -36 
Q 684 19 347 128 
L 347 722 
Q 666 556 975 473 
Q 1284 391 1588 391 
Q 1994 391 2212 530 
Q 2431 669 2431 922 
Q 2431 1156 2273 1281 
Q 2116 1406 1581 1522 
L 1381 1569 
Q 847 1681 609 1914 
Q 372 2147 372 2553 
Q 372 3047 722 3315 
Q 1072 3584 1716 3584 
Q 2034 3584 2315 3537 
Q 2597 3491 2834 3397 
z
" transform="scale(0.015625)"/>
      <path id="DejaVuSans-75" d="M 544 1381 
L 544 3500 
L 1119 3500 
L 1119 1403 
Q 1119 906 1312 657 
Q 1506 409 1894 409 
Q 2359 409 2629 706 
Q 2900 1003 2900 1516 
L 2900 3500 
L 3475 3500 
L 3475 0 
L 2900 0 
L 2900 538 
Q 2691 219 2414 64 
Q 2138 -91 1772 -91 
Q 1169 -91 856 284 
Q 544 659 544 1381 
z
M 1991 3584 
L 1991 3584 
z
" transform="scale(0.015625)"/>
      <path id="DejaVuSans-2d" d="M 313 2009 
L 1997 2009 
L 1997 1497 
L 313 1497 
L 313 2009 
z
" transform="scale(0.015625)"/>
      <path id="DejaVuSans-46" d="M 628 4666 
L 3309 4666 
L 3309 4134 
L 1259 4134 
L 1259 2759 
L 3109 2759 
L 3109 2228 
L 1259 2228 
L 1259 0 
L 628 0 
L 628 4666 
z
" transform="scale(0.015625)"/>
      <path id="DejaVuSans-63" d="M 3122 3366 
L 3122 2828 
Q 2878 2963 2633 3030 
Q 2388 3097 2138 3097 
Q 1578 3097 1268 2742 
Q 959 2388 959 1747 
Q 959 1106 1268 751 
Q 1578 397 2138 397 
Q 2388 397 2633 464 
Q 2878 531 3122 666 
L 3122 134 
Q 2881 22 2623 -34 
Q 2366 -91 2075 -91 
Q 1284 -91 818 406 
Q 353 903 353 1747 
Q 353 2603 823 3093 
Q 1294 3584 2113 3584 
Q 2378 3584 2631 3529 
Q 2884 3475 3122 3366 
z
" transform="scale(0.015625)"/>
      <path id="DejaVuSans-3a" d="M 750 794 
L 1409 794 
L 1409 0 
L 750 0 
L 750 794 
z
M 750 3309 
L 1409 3309 
L 1409 2516 
L 750 2516 
L 750 3309 
z
" transform="scale(0.015625)"/>
      <path id="DejaVuSans-2192" d="M 5050 2147 
L 5050 1866 
L 3822 638 
L 3447 1013 
L 4175 1741 
L 366 1741 
L 366 2272 
L 4175 2272 
L 3447 3000 
L 3822 3375 
L 5050 2147 
z
" transform="scale(0.015625)"/>
      <path id="DejaVuSans-41" d="M 2188 4044 
L 1331 1722 
L 3047 1722 
L 2188 4044 
z
M 1831 4666 
L 2547 4666 
L 4325 0 
L 3669 0 
L 3244 1197 
L 1141 1197 
L 716 0 
L 50 0 
L 1831 4666 
z
" transform="scale(0.015625)"/>
      <path id="DejaVuSans-79" d="M 2059 -325 
Q 1816 -950 1584 -1140 
Q 1353 -1331 966 -1331 
L 506 -1331 
L 506 -850 
L 844 -850 
Q 1081 -850 1212 -737 
Q 1344 -625 1503 -206 
L 1606 56 
L 191 3500 
L 800 3500 
L 1894 763 
L 2988 3500 
L 3597 3500 
L 2059 -325 
z
" transform="scale(0.015625)"/>
     </defs>
     <use xlink:href="#DejaVuSans-45"/>
     <use xlink:href="#DejaVuSans-78" transform="translate(63.183594 0)"/>
     <use xlink:href="#DejaVuSans-70" transform="translate(122.363281 0)"/>
     <use xlink:href="#DejaVuSans-6f" transform="translate(185.839844 0)"/>
     <use xlink:href="#DejaVuSans-73" transform="translate(247.021484 0)"/>
     <use xlink:href="#DejaVuSans-75" transform="translate(299.121094 0)"/>
     <use xlink:href="#DejaVuSans-72" transform="translate(362.5 0)"/>
     <use xlink:href="#DejaVuSans-65" transform="translate(401.363281 0)"/>
     <use xlink:href="#DejaVuSans-2d" transform="translate(462.886719 0)"/>
     <use xlink:href="#DejaVuSans-52" transform="translate(498.970703 0)"/>
     <use xlink:href="#DejaVuSans-65" transform="translate(563.953125 0)"/>
     <use xlink:href="#DejaVuSans-73" transform="translate(625.476562 0)"/>
     <use xlink:href="#DejaVuSans-70" transform="translate(677.576172 0)"/>
     <use xlink:href="#DejaVuSans-6f" transform="translate(741.052734 0)"/>
     <use xlink:href="#DejaVuSans-6e" transform="translate(802.234375 0)"/>
     <use xlink:href="#DejaVuSans-73" transform="translate(865.613281 0)"/>
     <use xlink:href="#DejaVuSans-65" transform="translate(917.712891 0)"/>
     <use xlink:href="#DejaVuSans-20" transform="translate(979.236328 0)"/>
     <use xlink:href="#DejaVuSans-46" transform="translate(1011.023438 0)"/>
     <use xlink:href="#DejaVuSans-75" transform="translate(1063.042969 0)"/>
     <use xlink:href="#DejaVuSans-6e" transform="translate(1126.421875 0)"/>
     <use xlink:href="#DejaVuSans-63" transform="translate(1189.800781 0)"/>
     <use xlink:href="#DejaVuSans-74" transform="translate(1244.78125 0)"/>
     <use xlink:href="#DejaVuSans-69" transform="translate(1283.990234 0)"/>
     <use xlink:href="#DejaVuSans-6f" transform="translate(1311.773438 0)"/>
     <use xlink:href="#DejaVuSans-6e" transform="translate(1372.955078 0)"/>
     <use xlink:href="#DejaVuSans-3a" transform="translate(1436.333984 0)"/>
     <use xlink:href="#DejaVuSans-20" transform="translate(1470.025391 0)"/>
     <use xlink:href="#DejaVuSans-50" transform="translate(1501.8125 0)"/>
     <use xlink:href="#DejaVuSans-4d" transform="translate(1562.115234 0)"/>
     <use xlink:href="#DejaVuSans-32" transform="translate(1648.394531 0)"/>
     <use xlink:href="#DejaVuSans-2e" transform="translate(1712.017578 0)"/>
     <use xlink:href="#DejaVuSans-35" transform="translate(1743.804688 0)"/>
     <use xlink:href="#DejaVuSans-20" transform="translate(1807.427734 0)"/>
     <use xlink:href="#DejaVuSans-2192" transform="translate(1839.214844 0)"/>
     <use xlink:href="#DejaVuSans-20" transform="translate(1923.003906 0)"/>
     <use xlink:href="#DejaVuSans-41" transform="translate(1954.791016 0)"/>
     <use xlink:href="#DejaVuSans-6c" transform="translate(2023.199219 0)"/>
     <use xlink:href="#DejaVuSans-6c" transform="translate(2050.982422 0)"/>
     <use xlink:href="#DejaVuSans-2d" transform="translate(2078.765625 0)"/>
     <use xlink:href="#DejaVuSans-63" transform="translate(2114.849609 0)"/>
     <use xlink:href="#DejaVuSans-61" transform="translate(2169.830078 0)"/>
     <use xlink:href="#DejaVuSans-75" transform="translate(2231.109375 0)"/>
     <use xlink:href="#DejaVuSans-73" transform="translate(2294.488281 0)"/>
     <use xlink:href="#DejaVuSans-65" transform="translate(2346.587891 0)"/>
     <use xlink:href="#DejaVuSans-20" transform="translate(2408.111328 0)"/>
     <use xlink:href="#DejaVuSans-4d" transform="translate(2439.898438 0)"/>
     <use xlink:href="#DejaVuSans-6f" transform="translate(2526.177734 0)"/>
     <use xlink:href="#DejaVuSans-72" transform="translate(2587.359375 0)"/>
     <use xlink:href="#DejaVuSans-74" transform="translate(2628.472656 0)"/>
     <use xlink:href="#DejaVuSans-61" transform="translate(2667.681641 0)"/>
     <use xlink:href="#DejaVuSans-6c" transform="translate(2728.960938 0)"/>
     <use xlink:href="#DejaVuSans-69" transform="translate(2756.744141 0)"/>
     <use xlink:href="#DejaVuSans-74" transform="translate(2784.527344 0)"/>
     <use xlink:href="#DejaVuSans-79" transform="translate(2823.736328 0)"/>
    </g>
   </g>
   <g id="legend_1">
    <g id="patch_7">
     <path d="M 356.129392 64.169844 
L 483.585017 64.169844 
Q 485.785017 64.169844 485.785017 61.969844 
L 485.785017 30.777969 
Q 485.785017 28.577969 483.585017 28.577969 
L 356.129392 28.577969 
Q 353.929392 28.577969 353.929392 30.777969 
L 353.929392 61.969844 
Q 353.929392 64.169844 356.129392 64.169844 
z
" style="fill: #ffffff; opacity: 0.8; stroke: #cccccc; stroke-linejoin: miter"/>
    </g>
    <g id="patch_8">
     <path d="M 358.329392 41.33625 
L 380.329392 41.33625 
L 380.329392 33.63625 
L 358.329392 33.63625 
z
" style="fill: #4682b4; fill-opacity: 0.3; stroke: #4682b4; stroke-opacity: 0.3; stroke-linejoin: miter"/>
    </g>
    <g id="text_18">
     <!-- 95% CI (binned) -->
     <g transform="translate(389.129392 41.33625) scale(0.11 -0.11)">
      <defs>
       <path id="DejaVuSans-39" d="M 703 97 
L 703 672 
Q 941 559 1184 500 
Q 1428 441 1663 441 
Q 2288 441 2617 861 
Q 2947 1281 2994 2138 
Q 2813 1869 2534 1725 
Q 2256 1581 1919 1581 
Q 1219 1581 811 2004 
Q 403 2428 403 3163 
Q 403 3881 828 4315 
Q 1253 4750 1959 4750 
Q 2769 4750 3195 4129 
Q 3622 3509 3622 2328 
Q 3622 1225 3098 567 
Q 2575 -91 1691 -91 
Q 1453 -91 1209 -44 
Q 966 3 703 97 
z
M 1959 2075 
Q 2384 2075 2632 2365 
Q 2881 2656 2881 3163 
Q 2881 3666 2632 3958 
Q 2384 4250 1959 4250 
Q 1534 4250 1286 3958 
Q 1038 3666 1038 3163 
Q 1038 2656 1286 2365 
Q 1534 2075 1959 2075 
z
" transform="scale(0.015625)"/>
       <path id="DejaVuSans-25" d="M 4653 2053 
Q 4381 2053 4226 1822 
Q 4072 1591 4072 1178 
Q 4072 772 4226 539 
Q 4381 306 4653 306 
Q 4919 306 5073 539 
Q 5228 772 5228 1178 
Q 5228 1588 5073 1820 
Q 4919 2053 4653 2053 
z
M 4653 2450 
Q 5147 2450 5437 2106 
Q 5728 1763 5728 1178 
Q 5728 594 5436 251 
Q 5144 -91 4653 -91 
Q 4153 -91 3862 251 
Q 3572 594 3572 1178 
Q 3572 1766 3864 2108 
Q 4156 2450 4653 2450 
z
M 1428 4353 
Q 1159 4353 1004 4120 
Q 850 3888 850 3481 
Q 850 3069 1003 2837 
Q 1156 2606 1428 2606 
Q 1700 2606 1854 2837 
Q 2009 3069 2009 3481 
Q 2009 3884 1853 4118 
Q 1697 4353 1428 4353 
z
M 4250 4750 
L 4750 4750 
L 1831 -91 
L 1331 -91 
L 4250 4750 
z
M 1428 4750 
Q 1922 4750 2215 4408 
Q 2509 4066 2509 3481 
Q 2509 2891 2217 2550 
Q 1925 2209 1428 2209 
Q 931 2209 642 2551 
Q 353 2894 353 3481 
Q 353 4063 643 4406 
Q 934 4750 1428 4750 
z
" transform="scale(0.015625)"/>
       <path id="DejaVuSans-43" d="M 4122 4306 
L 4122 3641 
Q 3803 3938 3442 4084 
Q 3081 4231 2675 4231 
Q 1875 4231 1450 3742 
Q 1025 3253 1025 2328 
Q 1025 1406 1450 917 
Q 1875 428 2675 428 
Q 3081 428 3442 575 
Q 3803 722 4122 1019 
L 4122 359 
Q 3791 134 3420 21 
Q 3050 -91 2638 -91 
Q 1578 -91 968 557 
Q 359 1206 359 2328 
Q 359 3453 968 4101 
Q 1578 4750 2638 4750 
Q 3056 4750 3426 4639 
Q 3797 4528 4122 4306 
z
" transform="scale(0.015625)"/>
       <path id="DejaVuSans-49" d="M 628 4666 
L 1259 4666 
L 1259 0 
L 628 0 
L 628 4666 
z
" transform="scale(0.015625)"/>
       <path id="DejaVuSans-62" d="M 3116 1747 
Q 3116 2381 2855 2742 
Q 2594 3103 2138 3103 
Q 1681 3103 1420 2742 
Q 1159 2381 1159 1747 
Q 1159 1113 1420 752 
Q 1681 391 2138 391 
Q 2594 391 2855 752 
Q 3116 1113 3116 1747 
z
M 1159 2969 
Q 1341 3281 1617 3432 
Q 1894 3584 2278 3584 
Q 2916 3584 3314 3078 
Q 3713 2572 3713 1747 
Q 3713 922 3314 415 
Q 2916 -91 2278 -91 
Q 1894 -91 1617 61 
Q 1341 213 1159 525 
L 1159 0 
L 581 0 
L 581 4863 
L 1159 4863 
L 1159 2969 
z
" transform="scale(0.015625)"/>
      </defs>
      <use xlink:href="#DejaVuSans-39"/>
      <use xlink:href="#DejaVuSans-35" transform="translate(63.623047 0)"/>
      <use xlink:href="#DejaVuSans-25" transform="translate(127.246094 0)"/>
      <use xlink:href="#DejaVuSans-20" transform="translate(222.265625 0)"/>
      <use xlink:href="#DejaVuSans-43" transform="translate(254.052734 0)"/>
      <use xlink:href="#DejaVuSans-49" transform="translate(323.876953 0)"/>
      <use xlink:href="#DejaVuSans-20" transform="translate(353.369141 0)"/>
      <use xlink:href="#DejaVuSans-28" transform="translate(385.15625 0)"/>
      <use xlink:href="#DejaVuSans-62" transform="translate(424.169922 0)"/>
      <use xlink:href="#DejaVuSans-69" transform="translate(487.646484 0)"/>
      <use xlink:href="#DejaVuSans-6e" transform="translate(515.429688 0)"/>
      <use xlink:href="#DejaVuSans-6e" transform="translate(578.808594 0)"/>
      <use xlink:href="#DejaVuSans-65" transform="translate(642.1875 0)"/>
      <use xlink:href="#DejaVuSans-64" transform="translate(703.710938 0)"/>
      <use xlink:href="#DejaVuSans-29" transform="translate(767.1875 0)"/>
     </g>
    </g>
    <g id="line2d_31">
     <path d="M 358.329392 53.632187 
L 369.329392 53.632187 
L 380.329392 53.632187 
" style="fill: none; stroke: #0000ff; stroke-width: 2; stroke-linecap: square"/>
    </g>
    <g id="text_19">
     <!-- Smoothed spline -->
     <g transform="translate(389.129392 57.482187) scale(0.11 -0.11)">
      <defs>
       <path id="DejaVuSans-53" d="M 3425 4513 
L 3425 3897 
Q 3066 4069 2747 4153 
Q 2428 4238 2131 4238 
Q 1616 4238 1336 4038 
Q 1056 3838 1056 3469 
Q 1056 3159 1242 3001 
Q 1428 2844 1947 2747 
L 2328 2669 
Q 3034 2534 3370 2195 
Q 3706 1856 3706 1288 
Q 3706 609 3251 259 
Q 2797 -91 1919 -91 
Q 1588 -91 1214 -16 
Q 841 59 441 206 
L 441 856 
Q 825 641 1194 531 
Q 1563 422 1919 422 
Q 2459 422 2753 634 
Q 3047 847 3047 1241 
Q 3047 1584 2836 1778 
Q 2625 1972 2144 2069 
L 1759 2144 
Q 1053 2284 737 2584 
Q 422 2884 422 3419 
Q 422 4038 858 4394 
Q 1294 4750 2059 4750 
Q 2388 4750 2728 4690 
Q 3069 4631 3425 4513 
z
" transform="scale(0.015625)"/>
       <path id="DejaVuSans-68" d="M 3513 2113 
L 3513 0 
L 2938 0 
L 2938 2094 
Q 2938 2591 2744 2837 
Q 2550 3084 2163 3084 
Q 1697 3084 1428 2787 
Q 1159 2491 1159 1978 
L 1159 0 
L 581 0 
L 581 4863 
L 1159 4863 
L 1159 2956 
Q 1366 3272 1645 3428 
Q 1925 3584 2291 3584 
Q 2894 3584 3203 3211 
Q 3513 2838 3513 2113 
z
" transform="scale(0.015625)"/>
      </defs>
      <use xlink:href="#DejaVuSans-53"/>
      <use xlink:href="#DejaVuSans-6d" transform="translate(63.476562 0)"/>
      <use xlink:href="#DejaVuSans-6f" transform="translate(160.888672 0)"/>
      <use xlink:href="#DejaVuSans-6f" transform="translate(222.070312 0)"/>
      <use xlink:href="#DejaVuSans-74" transform="translate(283.251953 0)"/>
      <use xlink:href="#DejaVuSans-68" transform="translate(322.460938 0)"/>
      <use xlink:href="#DejaVuSans-65" transform="translate(385.839844 0)"/>
      <use xlink:href="#DejaVuSans-64" transform="translate(447.363281 0)"/>
      <use xlink:href="#DejaVuSans-20" transform="translate(510.839844 0)"/>
      <use xlink:href="#DejaVuSans-73" transform="translate(542.626953 0)"/>
      <use xlink:href="#DejaVuSans-70" transform="translate(594.726562 0)"/>
      <use xlink:href="#DejaVuSans-6c" transform="translate(658.203125 0)"/>
      <use xlink:href="#DejaVuSans-69" transform="translate(685.986328 0)"/>
      <use xlink:href="#DejaVuSans-6e" transform="translate(713.769531 0)"/>
      <use xlink:href="#DejaVuSans-65" transform="translate(777.148438 0)"/>
     </g>
    </g>
   </g>
  </g>
  <g id="axes_2">
   <g id="patch_9">
    <path d="M 559.435017 382.157969 
L 987.19644 382.157969 
L 987.19644 23.077969 
L 559.435017 23.077969 
z
" style="fill: #ffffff"/>
   </g>
   <g id="FillBetweenPolyCollection_2">
    <defs>
     <path id="mffd5b08120" d="M 578.878718 -261.294224 
L 578.878718 -191.532488 
L 587.800009 -186.644715 
L 596.054722 -119.669604 
L 603.477331 -81.953185 
L 610.81301 -121.846427 
L 617.120753 -176.344945 
L 622.81081 -158.299676 
L 629.235037 -149.182812 
L 636.009673 -233.868978 
L 642.603926 -137.676539 
L 648.87784 -178.239588 
L 655.274178 -136.628673 
L 661.025847 -93.674461 
L 666.527157 -107.196528 
L 673.512607 -154.97874 
L 680.933284 -173.982518 
L 687.810537 -156.810693 
L 694.816358 -166.443803 
L 701.636709 -201.067692 
L 707.794115 -121.251001 
L 714.200083 -169.654583 
L 721.021949 -116.988429 
L 728.01303 -96.555902 
L 735.24182 -170.7817 
L 741.991325 -170.102254 
L 748.991631 -181.965361 
L 755.511063 -141.0328 
L 762.129949 -147.370638 
L 769.334138 -123.855043 
L 775.757873 -101.749479 
L 781.928719 -166.003686 
L 787.477967 -152.407345 
L 792.952299 -128.753663 
L 798.944165 -254.892657 
L 804.832232 -108.141082 
L 811.095769 -127.751085 
L 817.339578 -138.653476 
L 823.615634 -187.938602 
L 830.360413 -202.916652 
L 837.541549 -184.650542 
L 846.009249 -94.451267 
L 855.400042 -56.781506 
L 865.795139 -210.538614 
L 878.781993 -161.683974 
L 897.378107 -182.420859 
L 967.752739 -146.040593 
L 967.752739 -286.813751 
L 967.752739 -286.813751 
L 897.378107 -334.1165 
L 878.781993 -302.189207 
L 865.795139 -338.96968 
L 855.400042 -210.642876 
L 846.009249 -245.098361 
L 837.541549 -347.837815 
L 830.360413 -348.990035 
L 823.615634 -321.836627 
L 817.339578 -297.079751 
L 811.095769 -293.440795 
L 804.832232 -264.573957 
L 798.944165 -383.217869 
L 792.952299 -267.668429 
L 787.477967 -294.982766 
L 781.928719 -313.317603 
L 775.757873 -266.04987 
L 769.334138 -254.624979 
L 762.129949 -308.699742 
L 755.511063 -284.509748 
L 748.991631 -325.587949 
L 741.991325 -307.841998 
L 735.24182 -303.613165 
L 728.01303 -238.398634 
L 721.021949 -254.501089 
L 714.200083 -300.194473 
L 707.794115 -274.592706 
L 701.636709 -346.592052 
L 694.816358 -287.046146 
L 687.810537 -297.672841 
L 680.933284 -307.687353 
L 673.512607 -304.632934 
L 666.527157 -271.920464 
L 661.025847 -243.752785 
L 655.274178 -286.848454 
L 648.87784 -316.945018 
L 642.603926 -290.256152 
L 636.009673 -374.147481 
L 629.235037 -294.815422 
L 622.81081 -291.575267 
L 617.120753 -305.269661 
L 610.81301 -279.65335 
L 603.477331 -227.373511 
L 596.054722 -277.826664 
L 587.800009 -317.237265 
L 578.878718 -261.294224 
z
" style="stroke: #ff8c00; stroke-opacity: 0.3"/>
    </defs>
    <g clip-path="url(#p870d75e965)">
     <use xlink:href="#mffd5b08120" x="0" y="422.617656" style="fill: #ff8c00; fill-opacity: 0.3; stroke: #ff8c00; stroke-opacity: 0.3"/>
    </g>
   </g>
   <g id="matplotlib.axis_3">
    <g id="xtick_7">
     <g id="line2d_32">
      <path d="M 619.380605 382.157969 
L 619.380605 23.077969 
" clip-path="url(#p870d75e965)" style="fill: none; stroke: #b0b0b0; stroke-opacity: 0.3; stroke-width: 0.8; stroke-linecap: square"/>
     </g>
     <g id="line2d_33">
      <g>
       <use xlink:href="#m794716a6d9" x="619.380605" y="382.157969" style="stroke: #000000; stroke-width: 0.8"/>
      </g>
     </g>
     <g id="text_20">
      <!-- 20 -->
      <g transform="translate(612.381855 397.51625) scale(0.11 -0.11)">
       <use xlink:href="#DejaVuSans-32"/>
       <use xlink:href="#DejaVuSans-30" transform="translate(63.623047 0)"/>
      </g>
     </g>
    </g>
    <g id="xtick_8">
     <g id="line2d_34">
      <path d="M 709.471011 382.157969 
L 709.471011 23.077969 
" clip-path="url(#p870d75e965)" style="fill: none; stroke: #b0b0b0; stroke-opacity: 0.3; stroke-width: 0.8; stroke-linecap: square"/>
     </g>
     <g id="line2d_35">
      <g>
       <use xlink:href="#m794716a6d9" x="709.471011" y="382.157969" style="stroke: #000000; stroke-width: 0.8"/>
      </g>
     </g>
     <g id="text_21">
      <!-- 40 -->
      <g transform="translate(702.472261 397.51625) scale(0.11 -0.11)">
       <use xlink:href="#DejaVuSans-34"/>
       <use xlink:href="#DejaVuSans-30" transform="translate(63.623047 0)"/>
      </g>
     </g>
    </g>
    <g id="xtick_9">
     <g id="line2d_36">
      <path d="M 799.561418 382.157969 
L 799.561418 23.077969 
" clip-path="url(#p870d75e965)" style="fill: none; stroke: #b0b0b0; stroke-opacity: 0.3; stroke-width: 0.8; stroke-linecap: square"/>
     </g>
     <g id="line2d_37">
      <g>
       <use xlink:href="#m794716a6d9" x="799.561418" y="382.157969" style="stroke: #000000; stroke-width: 0.8"/>
      </g>
     </g>
     <g id="text_22">
      <!-- 60 -->
      <g transform="translate(792.562668 397.51625) scale(0.11 -0.11)">
       <use xlink:href="#DejaVuSans-36"/>
       <use xlink:href="#DejaVuSans-30" transform="translate(63.623047 0)"/>
      </g>
     </g>
    </g>
    <g id="xtick_10">
     <g id="line2d_38">
      <path d="M 889.651824 382.157969 
L 889.651824 23.077969 
" clip-path="url(#p870d75e965)" style="fill: none; stroke: #b0b0b0; stroke-opacity: 0.3; stroke-width: 0.8; stroke-linecap: square"/>
     </g>
     <g id="line2d_39">
      <g>
       <use xlink:href="#m794716a6d9" x="889.651824" y="382.157969" style="stroke: #000000; stroke-width: 0.8"/>
      </g>
     </g>
     <g id="text_23">
      <!-- 80 -->
      <g transform="translate(882.653074 397.51625) scale(0.11 -0.11)">
       <use xlink:href="#DejaVuSans-38"/>
       <use xlink:href="#DejaVuSans-30" transform="translate(63.623047 0)"/>
      </g>
     </g>
    </g>
    <g id="xtick_11">
     <g id="line2d_40">
      <path d="M 979.742231 382.157969 
L 979.742231 23.077969 
" clip-path="url(#p870d75e965)" style="fill: none; stroke: #b0b0b0; stroke-opacity: 0.3; stroke-width: 0.8; stroke-linecap: square"/>
     </g>
     <g id="line2d_41">
      <g>
       <use xlink:href="#m794716a6d9" x="979.742231" y="382.157969" style="stroke: #000000; stroke-width: 0.8"/>
      </g>
     </g>
     <g id="text_24">
      <!-- 100 -->
      <g transform="translate(969.244106 397.51625) scale(0.11 -0.11)">
       <use xlink:href="#DejaVuSans-31"/>
       <use xlink:href="#DejaVuSans-30" transform="translate(63.623047 0)"/>
       <use xlink:href="#DejaVuSans-30" transform="translate(127.246094 0)"/>
      </g>
     </g>
    </g>
    <g id="text_25">
     <!-- O3 8-hour max (μg/m³) -->
     <g transform="translate(703.677291 412.922031) scale(0.12 -0.12)">
      <defs>
       <path id="DejaVuSans-4f" d="M 2522 4238 
Q 1834 4238 1429 3725 
Q 1025 3213 1025 2328 
Q 1025 1447 1429 934 
Q 1834 422 2522 422 
Q 3209 422 3611 934 
Q 4013 1447 4013 2328 
Q 4013 3213 3611 3725 
Q 3209 4238 2522 4238 
z
M 2522 4750 
Q 3503 4750 4090 4092 
Q 4678 3434 4678 2328 
Q 4678 1225 4090 567 
Q 3503 -91 2522 -91 
Q 1538 -91 948 565 
Q 359 1222 359 2328 
Q 359 3434 948 4092 
Q 1538 4750 2522 4750 
z
" transform="scale(0.015625)"/>
      </defs>
      <use xlink:href="#DejaVuSans-4f"/>
      <use xlink:href="#DejaVuSans-33" transform="translate(78.710938 0)"/>
      <use xlink:href="#DejaVuSans-20" transform="translate(142.333984 0)"/>
      <use xlink:href="#DejaVuSans-38" transform="translate(174.121094 0)"/>
      <use xlink:href="#DejaVuSans-2d" transform="translate(237.744141 0)"/>
      <use xlink:href="#DejaVuSans-68" transform="translate(273.828125 0)"/>
      <use xlink:href="#DejaVuSans-6f" transform="translate(337.207031 0)"/>
      <use xlink:href="#DejaVuSans-75" transform="translate(398.388672 0)"/>
      <use xlink:href="#DejaVuSans-72" transform="translate(461.767578 0)"/>
      <use xlink:href="#DejaVuSans-20" transform="translate(502.880859 0)"/>
      <use xlink:href="#DejaVuSans-6d" transform="translate(534.667969 0)"/>
      <use xlink:href="#DejaVuSans-61" transform="translate(632.080078 0)"/>
      <use xlink:href="#DejaVuSans-78" transform="translate(693.359375 0)"/>
      <use xlink:href="#DejaVuSans-20" transform="translate(752.539062 0)"/>
      <use xlink:href="#DejaVuSans-28" transform="translate(784.326172 0)"/>
      <use xlink:href="#DejaVuSans-3bc" transform="translate(823.339844 0)"/>
      <use xlink:href="#DejaVuSans-67" transform="translate(886.962891 0)"/>
      <use xlink:href="#DejaVuSans-2f" transform="translate(950.439453 0)"/>
      <use xlink:href="#DejaVuSans-6d" transform="translate(984.130859 0)"/>
      <use xlink:href="#DejaVuSans-b3" transform="translate(1081.542969 0)"/>
      <use xlink:href="#DejaVuSans-29" transform="translate(1121.630859 0)"/>
     </g>
    </g>
   </g>
   <g id="matplotlib.axis_4">
    <g id="ytick_9">
     <g id="line2d_42">
      <path d="M 559.435017 376.505258 
L 987.19644 376.505258 
" clip-path="url(#p870d75e965)" style="fill: none; stroke: #b0b0b0; stroke-opacity: 0.3; stroke-width: 0.8; stroke-linecap: square"/>
     </g>
     <g id="line2d_43">
      <g>
       <use xlink:href="#m104f0e63f4" x="559.435017" y="376.505258" style="stroke: #000000; stroke-width: 0.8"/>
      </g>
     </g>
     <g id="text_26">
      <!-- −0.06 -->
      <g transform="translate(518.725173 380.684399) scale(0.11 -0.11)">
       <use xlink:href="#DejaVuSans-2212"/>
       <use xlink:href="#DejaVuSans-30" transform="translate(83.789062 0)"/>
       <use xlink:href="#DejaVuSans-2e" transform="translate(147.412109 0)"/>
       <use xlink:href="#DejaVuSans-30" transform="translate(179.199219 0)"/>
       <use xlink:href="#DejaVuSans-36" transform="translate(242.822266 0)"/>
      </g>
     </g>
    </g>
    <g id="ytick_10">
     <g id="line2d_44">
      <path d="M 559.435017 329.961138 
L 987.19644 329.961138 
" clip-path="url(#p870d75e965)" style="fill: none; stroke: #b0b0b0; stroke-opacity: 0.3; stroke-width: 0.8; stroke-linecap: square"/>
     </g>
     <g id="line2d_45">
      <g>
       <use xlink:href="#m104f0e63f4" x="559.435017" y="329.961138" style="stroke: #000000; stroke-width: 0.8"/>
      </g>
     </g>
     <g id="text_27">
      <!-- −0.04 -->
      <g transform="translate(518.725173 334.140279) scale(0.11 -0.11)">
       <use xlink:href="#DejaVuSans-2212"/>
       <use xlink:href="#DejaVuSans-30" transform="translate(83.789062 0)"/>
       <use xlink:href="#DejaVuSans-2e" transform="translate(147.412109 0)"/>
       <use xlink:href="#DejaVuSans-30" transform="translate(179.199219 0)"/>
       <use xlink:href="#DejaVuSans-34" transform="translate(242.822266 0)"/>
      </g>
     </g>
    </g>
    <g id="ytick_11">
     <g id="line2d_46">
      <path d="M 559.435017 283.417018 
L 987.19644 283.417018 
" clip-path="url(#p870d75e965)" style="fill: none; stroke: #b0b0b0; stroke-opacity: 0.3; stroke-width: 0.8; stroke-linecap: square"/>
     </g>
     <g id="line2d_47">
      <g>
       <use xlink:href="#m104f0e63f4" x="559.435017" y="283.417018" style="stroke: #000000; stroke-width: 0.8"/>
      </g>
     </g>
     <g id="text_28">
      <!-- −0.02 -->
      <g transform="translate(518.725173 287.596158) scale(0.11 -0.11)">
       <use xlink:href="#DejaVuSans-2212"/>
       <use xlink:href="#DejaVuSans-30" transform="translate(83.789062 0)"/>
       <use xlink:href="#DejaVuSans-2e" transform="translate(147.412109 0)"/>
       <use xlink:href="#DejaVuSans-30" transform="translate(179.199219 0)"/>
       <use xlink:href="#DejaVuSans-32" transform="translate(242.822266 0)"/>
      </g>
     </g>
    </g>
    <g id="ytick_12">
     <g id="line2d_48">
      <path d="M 559.435017 236.872897 
L 987.19644 236.872897 
" clip-path="url(#p870d75e965)" style="fill: none; stroke: #b0b0b0; stroke-opacity: 0.3; stroke-width: 0.8; stroke-linecap: square"/>
     </g>
     <g id="line2d_49">
      <g>
       <use xlink:href="#m104f0e63f4" x="559.435017" y="236.872897" style="stroke: #000000; stroke-width: 0.8"/>
      </g>
     </g>
     <g id="text_29">
      <!-- 0.00 -->
      <g transform="translate(527.94283 241.052038) scale(0.11 -0.11)">
       <use xlink:href="#DejaVuSans-30"/>
       <use xlink:href="#DejaVuSans-2e" transform="translate(63.623047 0)"/>
       <use xlink:href="#DejaVuSans-30" transform="translate(95.410156 0)"/>
       <use xlink:href="#DejaVuSans-30" transform="translate(159.033203 0)"/>
      </g>
     </g>
    </g>
    <g id="ytick_13">
     <g id="line2d_50">
      <path d="M 559.435017 190.328777 
L 987.19644 190.328777 
" clip-path="url(#p870d75e965)" style="fill: none; stroke: #b0b0b0; stroke-opacity: 0.3; stroke-width: 0.8; stroke-linecap: square"/>
     </g>
     <g id="line2d_51">
      <g>
       <use xlink:href="#m104f0e63f4" x="559.435017" y="190.328777" style="stroke: #000000; stroke-width: 0.8"/>
      </g>
     </g>
     <g id="text_30">
      <!-- 0.02 -->
      <g transform="translate(527.94283 194.507918) scale(0.11 -0.11)">
       <use xlink:href="#DejaVuSans-30"/>
       <use xlink:href="#DejaVuSans-2e" transform="translate(63.623047 0)"/>
       <use xlink:href="#DejaVuSans-30" transform="translate(95.410156 0)"/>
       <use xlink:href="#DejaVuSans-32" transform="translate(159.033203 0)"/>
      </g>
     </g>
    </g>
    <g id="ytick_14">
     <g id="line2d_52">
      <path d="M 559.435017 143.784657 
L 987.19644 143.784657 
" clip-path="url(#p870d75e965)" style="fill: none; stroke: #b0b0b0; stroke-opacity: 0.3; stroke-width: 0.8; stroke-linecap: square"/>
     </g>
     <g id="line2d_53">
      <g>
       <use xlink:href="#m104f0e63f4" x="559.435017" y="143.784657" style="stroke: #000000; stroke-width: 0.8"/>
      </g>
     </g>
     <g id="text_31">
      <!-- 0.04 -->
      <g transform="translate(527.94283 147.963797) scale(0.11 -0.11)">
       <use xlink:href="#DejaVuSans-30"/>
       <use xlink:href="#DejaVuSans-2e" transform="translate(63.623047 0)"/>
       <use xlink:href="#DejaVuSans-30" transform="translate(95.410156 0)"/>
       <use xlink:href="#DejaVuSans-34" transform="translate(159.033203 0)"/>
      </g>
     </g>
    </g>
    <g id="ytick_15">
     <g id="line2d_54">
      <path d="M 559.435017 97.240536 
L 987.19644 97.240536 
" clip-path="url(#p870d75e965)" style="fill: none; stroke: #b0b0b0; stroke-opacity: 0.3; stroke-width: 0.8; stroke-linecap: square"/>
     </g>
     <g id="line2d_55">
      <g>
       <use xlink:href="#m104f0e63f4" x="559.435017" y="97.240536" style="stroke: #000000; stroke-width: 0.8"/>
      </g>
     </g>
     <g id="text_32">
      <!-- 0.06 -->
      <g transform="translate(527.94283 101.419677) scale(0.11 -0.11)">
       <use xlink:href="#DejaVuSans-30"/>
       <use xlink:href="#DejaVuSans-2e" transform="translate(63.623047 0)"/>
       <use xlink:href="#DejaVuSans-30" transform="translate(95.410156 0)"/>
       <use xlink:href="#DejaVuSans-36" transform="translate(159.033203 0)"/>
      </g>
     </g>
    </g>
    <g id="ytick_16">
     <g id="line2d_56">
      <path d="M 559.435017 50.696416 
L 987.19644 50.696416 
" clip-path="url(#p870d75e965)" style="fill: none; stroke: #b0b0b0; stroke-opacity: 0.3; stroke-width: 0.8; stroke-linecap: square"/>
     </g>
     <g id="line2d_57">
      <g>
       <use xlink:href="#m104f0e63f4" x="559.435017" y="50.696416" style="stroke: #000000; stroke-width: 0.8"/>
      </g>
     </g>
     <g id="text_33">
      <!-- 0.08 -->
      <g transform="translate(527.94283 54.875557) scale(0.11 -0.11)">
       <use xlink:href="#DejaVuSans-30"/>
       <use xlink:href="#DejaVuSans-2e" transform="translate(63.623047 0)"/>
       <use xlink:href="#DejaVuSans-30" transform="translate(95.410156 0)"/>
       <use xlink:href="#DejaVuSans-38" transform="translate(159.033203 0)"/>
      </g>
     </g>
    </g>
    <g id="text_34">
     <!-- log(RR) relative to median -->
     <g transform="translate(512.229548 281.650156) rotate(-90) scale(0.12 -0.12)">
      <use xlink:href="#DejaVuSans-6c"/>
      <use xlink:href="#DejaVuSans-6f" transform="translate(27.783203 0)"/>
      <use xlink:href="#DejaVuSans-67" transform="translate(88.964844 0)"/>
      <use xlink:href="#DejaVuSans-28" transform="translate(152.441406 0)"/>
      <use xlink:href="#DejaVuSans-52" transform="translate(191.455078 0)"/>
      <use xlink:href="#DejaVuSans-52" transform="translate(260.9375 0)"/>
      <use xlink:href="#DejaVuSans-29" transform="translate(330.419922 0)"/>
      <use xlink:href="#DejaVuSans-20" transform="translate(369.433594 0)"/>
      <use xlink:href="#DejaVuSans-72" transform="translate(401.220703 0)"/>
      <use xlink:href="#DejaVuSans-65" transform="translate(440.083984 0)"/>
      <use xlink:href="#DejaVuSans-6c" transform="translate(501.607422 0)"/>
      <use xlink:href="#DejaVuSans-61" transform="translate(529.390625 0)"/>
      <use xlink:href="#DejaVuSans-74" transform="translate(590.669922 0)"/>
      <use xlink:href="#DejaVuSans-69" transform="translate(629.878906 0)"/>
      <use xlink:href="#DejaVuSans-76" transform="translate(657.662109 0)"/>
      <use xlink:href="#DejaVuSans-65" transform="translate(716.841797 0)"/>
      <use xlink:href="#DejaVuSans-20" transform="translate(778.365234 0)"/>
      <use xlink:href="#DejaVuSans-74" transform="translate(810.152344 0)"/>
      <use xlink:href="#DejaVuSans-6f" transform="translate(849.361328 0)"/>
      <use xlink:href="#DejaVuSans-20" transform="translate(910.542969 0)"/>
      <use xlink:href="#DejaVuSans-6d" transform="translate(942.330078 0)"/>
      <use xlink:href="#DejaVuSans-65" transform="translate(1039.742188 0)"/>
      <use xlink:href="#DejaVuSans-64" transform="translate(1101.265625 0)"/>
      <use xlink:href="#DejaVuSans-69" transform="translate(1164.742188 0)"/>
      <use xlink:href="#DejaVuSans-61" transform="translate(1192.525391 0)"/>
      <use xlink:href="#DejaVuSans-6e" transform="translate(1253.804688 0)"/>
     </g>
    </g>
   </g>
   <g id="line2d_58">
    <path d="M 578.878718 200.79241 
L 582.806739 201.049841 
L 586.734759 201.288219 
L 590.662779 201.507946 
L 594.5908 201.709425 
L 598.51882 201.89306 
L 602.446841 202.059253 
L 606.374861 202.208406 
L 610.302881 202.340924 
L 614.230902 202.45721 
L 618.158922 202.557665 
L 622.086943 202.642693 
L 626.014963 202.712698 
L 629.942984 202.768082 
L 633.871004 202.809248 
L 637.799024 202.836599 
L 641.727045 202.850538 
L 645.655065 202.851468 
L 649.583086 202.839792 
L 653.511106 202.815913 
L 657.439126 202.780235 
L 661.367147 202.733159 
L 665.295167 202.675089 
L 669.223188 202.606429 
L 673.151208 202.52758 
L 677.079229 202.438947 
L 681.007249 202.340931 
L 684.935269 202.233936 
L 688.86329 202.118366 
L 692.79131 201.994622 
L 696.719331 201.863108 
L 700.647351 201.724227 
L 704.575371 201.578382 
L 708.503392 201.425976 
L 712.431412 201.267412 
L 716.359433 201.103093 
L 720.287453 200.933422 
L 724.215474 200.758801 
L 728.143494 200.579634 
L 732.071514 200.396325 
L 735.999535 200.209275 
L 739.927555 200.018887 
L 743.855576 199.825566 
L 747.783596 199.629714 
L 751.711616 199.431733 
L 755.639637 199.232027 
L 759.567657 199.030999 
L 763.495678 198.829051 
L 767.423698 198.626587 
L 771.351719 198.42401 
L 775.279739 198.221723 
L 779.207759 198.020129 
L 783.13578 197.81963 
L 787.0638 197.62063 
L 790.991821 197.423531 
L 794.919841 197.228737 
L 798.847861 197.036651 
L 802.775882 196.847676 
L 806.703902 196.662214 
L 810.631923 196.480669 
L 814.559943 196.303443 
L 818.487964 196.13094 
L 822.415984 195.963563 
L 826.344004 195.801714 
L 830.272025 195.645797 
L 834.200045 195.496214 
L 838.128066 195.353369 
L 842.056086 195.217664 
L 845.984106 195.089503 
L 849.912127 194.969289 
L 853.840147 194.857424 
L 857.768168 194.754311 
L 861.696188 194.660354 
L 865.624209 194.575956 
L 869.552229 194.501519 
L 873.480249 194.437446 
L 877.40827 194.384141 
L 881.33629 194.342006 
L 885.264311 194.311445 
L 889.192331 194.29286 
L 893.120351 194.286654 
L 897.048372 194.293231 
L 900.976392 194.312993 
L 904.904413 194.346344 
L 908.832433 194.393686 
L 912.760454 194.455422 
L 916.688474 194.531956 
L 920.616494 194.62369 
L 924.544515 194.731027 
L 928.472535 194.854371 
L 932.400556 194.994123 
L 936.328576 195.150689 
L 940.256596 195.324469 
L 944.184617 195.515868 
L 948.112637 195.725288 
L 952.040658 195.953132 
L 955.968678 196.199803 
L 959.896699 196.465705 
L 963.824719 196.75124 
L 967.752739 197.056811 
" clip-path="url(#p870d75e965)" style="fill: none; stroke: #ff8c00; stroke-width: 2; stroke-linecap: square"/>
   </g>
   <g id="line2d_59">
    <path d="M 559.435017 236.872897 
L 987.19644 236.872897 
" clip-path="url(#p870d75e965)" style="fill: none; stroke-dasharray: 5.55,2.4; stroke-dashoffset: 0; stroke: #ff0000; stroke-opacity: 0.5; stroke-width: 1.5"/>
   </g>
   <g id="patch_10">
    <path d="M 559.435017 382.157969 
L 559.435017 23.077969 
" style="fill: none; stroke: #000000; stroke-width: 0.8; stroke-linejoin: miter; stroke-linecap: square"/>
   </g>
   <g id="patch_11">
    <path d="M 987.19644 382.157969 
L 987.19644 23.077969 
" style="fill: none; stroke: #000000; stroke-width: 0.8; stroke-linejoin: miter; stroke-linecap: square"/>
   </g>
   <g id="patch_12">
    <path d="M 559.435017 382.157969 
L 987.19644 382.157969 
" style="fill: none; stroke: #000000; stroke-width: 0.8; stroke-linejoin: miter; stroke-linecap: square"/>
   </g>
   <g id="patch_13">
    <path d="M 559.435017 23.077969 
L 987.19644 23.077969 
" style="fill: none; stroke: #000000; stroke-width: 0.8; stroke-linejoin: miter; stroke-linecap: square"/>
   </g>
   <g id="PathCollection_2">
    <defs>
     <path id="ma5799f1a2b" d="M 0 1.936492 
C 0.513564 1.936492 1.006162 1.732451 1.369306 1.369306 
C 1.732451 1.006162 1.936492 0.513564 1.936492 0 
C 1.936492 -0.513564 1.732451 -1.006162 1.369306 -1.369306 
C 1.006162 -1.732451 0.513564 -1.936492 0 -1.936492 
C -0.513564 -1.936492 -1.006162 -1.732451 -1.369306 -1.369306 
C -1.732451 -1.006162 -1.936492 -0.513564 -1.936492 0 
C -1.936492 0.513564 -1.732451 1.006162 -1.369306 1.369306 
C -1.006162 1.732451 -0.513564 1.936492 0 1.936492 
z
" style="stroke: #ff8c00; stroke-opacity: 0.7"/>
    </defs>
    <g clip-path="url(#p870d75e965)">
     <use xlink:href="#ma5799f1a2b" x="578.878718" y="196.2043" style="fill: #ff8c00; fill-opacity: 0.7; stroke: #ff8c00; stroke-opacity: 0.7"/>
     <use xlink:href="#ma5799f1a2b" x="587.800009" y="170.676667" style="fill: #ff8c00; fill-opacity: 0.7; stroke: #ff8c00; stroke-opacity: 0.7"/>
     <use xlink:href="#ma5799f1a2b" x="596.054722" y="223.869522" style="fill: #ff8c00; fill-opacity: 0.7; stroke: #ff8c00; stroke-opacity: 0.7"/>
     <use xlink:href="#ma5799f1a2b" x="603.477331" y="267.954308" style="fill: #ff8c00; fill-opacity: 0.7; stroke: #ff8c00; stroke-opacity: 0.7"/>
     <use xlink:href="#ma5799f1a2b" x="610.81301" y="221.867768" style="fill: #ff8c00; fill-opacity: 0.7; stroke: #ff8c00; stroke-opacity: 0.7"/>
     <use xlink:href="#ma5799f1a2b" x="617.120753" y="181.810353" style="fill: #ff8c00; fill-opacity: 0.7; stroke: #ff8c00; stroke-opacity: 0.7"/>
     <use xlink:href="#ma5799f1a2b" x="622.81081" y="197.680185" style="fill: #ff8c00; fill-opacity: 0.7; stroke: #ff8c00; stroke-opacity: 0.7"/>
     <use xlink:href="#ma5799f1a2b" x="629.235037" y="200.618539" style="fill: #ff8c00; fill-opacity: 0.7; stroke: #ff8c00; stroke-opacity: 0.7"/>
     <use xlink:href="#ma5799f1a2b" x="636.009673" y="118.609427" style="fill: #ff8c00; fill-opacity: 0.7; stroke: #ff8c00; stroke-opacity: 0.7"/>
     <use xlink:href="#ma5799f1a2b" x="642.603926" y="208.651311" style="fill: #ff8c00; fill-opacity: 0.7; stroke: #ff8c00; stroke-opacity: 0.7"/>
     <use xlink:href="#ma5799f1a2b" x="648.87784" y="175.025353" style="fill: #ff8c00; fill-opacity: 0.7; stroke: #ff8c00; stroke-opacity: 0.7"/>
     <use xlink:href="#ma5799f1a2b" x="655.274178" y="210.879092" style="fill: #ff8c00; fill-opacity: 0.7; stroke: #ff8c00; stroke-opacity: 0.7"/>
     <use xlink:href="#ma5799f1a2b" x="661.025847" y="253.904033" style="fill: #ff8c00; fill-opacity: 0.7; stroke: #ff8c00; stroke-opacity: 0.7"/>
     <use xlink:href="#ma5799f1a2b" x="666.527157" y="233.05916" style="fill: #ff8c00; fill-opacity: 0.7; stroke: #ff8c00; stroke-opacity: 0.7"/>
     <use xlink:href="#ma5799f1a2b" x="673.512607" y="192.811819" style="fill: #ff8c00; fill-opacity: 0.7; stroke: #ff8c00; stroke-opacity: 0.7"/>
     <use xlink:href="#ma5799f1a2b" x="680.933284" y="181.782721" style="fill: #ff8c00; fill-opacity: 0.7; stroke: #ff8c00; stroke-opacity: 0.7"/>
     <use xlink:href="#ma5799f1a2b" x="687.810537" y="195.375889" style="fill: #ff8c00; fill-opacity: 0.7; stroke: #ff8c00; stroke-opacity: 0.7"/>
     <use xlink:href="#ma5799f1a2b" x="694.816358" y="195.872682" style="fill: #ff8c00; fill-opacity: 0.7; stroke: #ff8c00; stroke-opacity: 0.7"/>
     <use xlink:href="#ma5799f1a2b" x="701.636709" y="148.787784" style="fill: #ff8c00; fill-opacity: 0.7; stroke: #ff8c00; stroke-opacity: 0.7"/>
     <use xlink:href="#ma5799f1a2b" x="707.794115" y="224.695803" style="fill: #ff8c00; fill-opacity: 0.7; stroke: #ff8c00; stroke-opacity: 0.7"/>
     <use xlink:href="#ma5799f1a2b" x="714.200083" y="187.693128" style="fill: #ff8c00; fill-opacity: 0.7; stroke: #ff8c00; stroke-opacity: 0.7"/>
     <use xlink:href="#ma5799f1a2b" x="721.021949" y="236.872897" style="fill: #ff8c00; fill-opacity: 0.7; stroke: #ff8c00; stroke-opacity: 0.7"/>
     <use xlink:href="#ma5799f1a2b" x="728.01303" y="255.140388" style="fill: #ff8c00; fill-opacity: 0.7; stroke: #ff8c00; stroke-opacity: 0.7"/>
     <use xlink:href="#ma5799f1a2b" x="735.24182" y="185.420223" style="fill: #ff8c00; fill-opacity: 0.7; stroke: #ff8c00; stroke-opacity: 0.7"/>
     <use xlink:href="#ma5799f1a2b" x="741.991325" y="183.64553" style="fill: #ff8c00; fill-opacity: 0.7; stroke: #ff8c00; stroke-opacity: 0.7"/>
     <use xlink:href="#ma5799f1a2b" x="748.991631" y="168.841001" style="fill: #ff8c00; fill-opacity: 0.7; stroke: #ff8c00; stroke-opacity: 0.7"/>
     <use xlink:href="#ma5799f1a2b" x="755.511063" y="209.846382" style="fill: #ff8c00; fill-opacity: 0.7; stroke: #ff8c00; stroke-opacity: 0.7"/>
     <use xlink:href="#ma5799f1a2b" x="762.129949" y="194.582466" style="fill: #ff8c00; fill-opacity: 0.7; stroke: #ff8c00; stroke-opacity: 0.7"/>
     <use xlink:href="#ma5799f1a2b" x="769.334138" y="233.377645" style="fill: #ff8c00; fill-opacity: 0.7; stroke: #ff8c00; stroke-opacity: 0.7"/>
     <use xlink:href="#ma5799f1a2b" x="775.757873" y="238.717982" style="fill: #ff8c00; fill-opacity: 0.7; stroke: #ff8c00; stroke-opacity: 0.7"/>
     <use xlink:href="#ma5799f1a2b" x="781.928719" y="182.957012" style="fill: #ff8c00; fill-opacity: 0.7; stroke: #ff8c00; stroke-opacity: 0.7"/>
     <use xlink:href="#ma5799f1a2b" x="787.477967" y="198.922601" style="fill: #ff8c00; fill-opacity: 0.7; stroke: #ff8c00; stroke-opacity: 0.7"/>
     <use xlink:href="#ma5799f1a2b" x="792.952299" y="224.40661" style="fill: #ff8c00; fill-opacity: 0.7; stroke: #ff8c00; stroke-opacity: 0.7"/>
     <use xlink:href="#ma5799f1a2b" x="798.944165" y="103.562393" style="fill: #ff8c00; fill-opacity: 0.7; stroke: #ff8c00; stroke-opacity: 0.7"/>
     <use xlink:href="#ma5799f1a2b" x="804.832232" y="236.260136" style="fill: #ff8c00; fill-opacity: 0.7; stroke: #ff8c00; stroke-opacity: 0.7"/>
     <use xlink:href="#ma5799f1a2b" x="811.095769" y="212.021716" style="fill: #ff8c00; fill-opacity: 0.7; stroke: #ff8c00; stroke-opacity: 0.7"/>
     <use xlink:href="#ma5799f1a2b" x="817.339578" y="204.751043" style="fill: #ff8c00; fill-opacity: 0.7; stroke: #ff8c00; stroke-opacity: 0.7"/>
     <use xlink:href="#ma5799f1a2b" x="823.615634" y="167.730042" style="fill: #ff8c00; fill-opacity: 0.7; stroke: #ff8c00; stroke-opacity: 0.7"/>
     <use xlink:href="#ma5799f1a2b" x="830.360413" y="146.664313" style="fill: #ff8c00; fill-opacity: 0.7; stroke: #ff8c00; stroke-opacity: 0.7"/>
     <use xlink:href="#ma5799f1a2b" x="837.541549" y="156.373478" style="fill: #ff8c00; fill-opacity: 0.7; stroke: #ff8c00; stroke-opacity: 0.7"/>
     <use xlink:href="#ma5799f1a2b" x="846.009249" y="252.842842" style="fill: #ff8c00; fill-opacity: 0.7; stroke: #ff8c00; stroke-opacity: 0.7"/>
     <use xlink:href="#ma5799f1a2b" x="855.400042" y="288.905465" style="fill: #ff8c00; fill-opacity: 0.7; stroke: #ff8c00; stroke-opacity: 0.7"/>
     <use xlink:href="#ma5799f1a2b" x="865.795139" y="147.863509" style="fill: #ff8c00; fill-opacity: 0.7; stroke: #ff8c00; stroke-opacity: 0.7"/>
     <use xlink:href="#ma5799f1a2b" x="878.781993" y="190.681066" style="fill: #ff8c00; fill-opacity: 0.7; stroke: #ff8c00; stroke-opacity: 0.7"/>
     <use xlink:href="#ma5799f1a2b" x="897.378107" y="164.348976" style="fill: #ff8c00; fill-opacity: 0.7; stroke: #ff8c00; stroke-opacity: 0.7"/>
     <use xlink:href="#ma5799f1a2b" x="967.752739" y="206.190484" style="fill: #ff8c00; fill-opacity: 0.7; stroke: #ff8c00; stroke-opacity: 0.7"/>
    </g>
   </g>
   <g id="text_35">
    <!-- Exposure-Response Function: O3 → All-cause Mortality -->
    <g transform="translate(596.540104 17.077969) scale(0.13 -0.13)">
     <use xlink:href="#DejaVuSans-45"/>
     <use xlink:href="#DejaVuSans-78" transform="translate(63.183594 0)"/>
     <use xlink:href="#DejaVuSans-70" transform="translate(122.363281 0)"/>
     <use xlink:href="#DejaVuSans-6f" transform="translate(185.839844 0)"/>
     <use xlink:href="#DejaVuSans-73" transform="translate(247.021484 0)"/>
     <use xlink:href="#DejaVuSans-75" transform="translate(299.121094 0)"/>
     <use xlink:href="#DejaVuSans-72" transform="translate(362.5 0)"/>
     <use xlink:href="#DejaVuSans-65" transform="translate(401.363281 0)"/>
     <use xlink:href="#DejaVuSans-2d" transform="translate(462.886719 0)"/>
     <use xlink:href="#DejaVuSans-52" transform="translate(498.970703 0)"/>
     <use xlink:href="#DejaVuSans-65" transform="translate(563.953125 0)"/>
     <use xlink:href="#DejaVuSans-73" transform="translate(625.476562 0)"/>
     <use xlink:href="#DejaVuSans-70" transform="translate(677.576172 0)"/>
     <use xlink:href="#DejaVuSans-6f" transform="translate(741.052734 0)"/>
     <use xlink:href="#DejaVuSans-6e" transform="translate(802.234375 0)"/>
     <use xlink:href="#DejaVuSans-73" transform="translate(865.613281 0)"/>
     <use xlink:href="#DejaVuSans-65" transform="translate(917.712891 0)"/>
     <use xlink:href="#DejaVuSans-20" transform="translate(979.236328 0)"/>
     <use xlink:href="#DejaVuSans-46" transform="translate(1011.023438 0)"/>
     <use xlink:href="#DejaVuSans-75" transform="translate(1063.042969 0)"/>
     <use xlink:href="#DejaVuSans-6e" transform="translate(1126.421875 0)"/>
     <use xlink:href="#DejaVuSans-63" transform="translate(1189.800781 0)"/>
     <use xlink:href="#DejaVuSans-74" transform="translate(1244.78125 0)"/>
     <use xlink:href="#DejaVuSans-69" transform="translate(1283.990234 0)"/>
     <use xlink:href="#DejaVuSans-6f" transform="translate(1311.773438 0)"/>
     <use xlink:href="#DejaVuSans-6e" transform="translate(1372.955078 0)"/>
     <use xlink:href="#DejaVuSans-3a" transform="translate(1436.333984 0)"/>
     <use xlink:href="#DejaVuSans-20" transform="translate(1470.025391 0)"/>
     <use xlink:href="#DejaVuSans-4f" transform="translate(1501.8125 0)"/>
     <use xlink:href="#DejaVuSans-33" transform="translate(1580.523438 0)"/>
     <use xlink:href="#DejaVuSans-20" transform="translate(1644.146484 0)"/>
     <use xlink:href="#DejaVuSans-2192" transform="translate(1675.933594 0)"/>
     <use xlink:href="#DejaVuSans-20" transform="translate(1759.722656 0)"/>
     <use xlink:href="#DejaVuSans-41" transform="translate(1791.509766 0)"/>
     <use xlink:href="#DejaVuSans-6c" transform="translate(1859.917969 0)"/>
     <use xlink:href="#DejaVuSans-6c" transform="translate(1887.701172 0)"/>
     <use xlink:href="#DejaVuSans-2d" transform="translate(1915.484375 0)"/>
     <use xlink:href="#DejaVuSans-63" transform="translate(1951.568359 0)"/>
     <use xlink:href="#DejaVuSans-61" transform="translate(2006.548828 0)"/>
     <use xlink:href="#DejaVuSans-75" transform="translate(2067.828125 0)"/>
     <use xlink:href="#DejaVuSans-73" transform="translate(2131.207031 0)"/>
     <use xlink:href="#DejaVuSans-65" transform="translate(2183.306641 0)"/>
     <use xlink:href="#DejaVuSans-20" transform="translate(2244.830078 0)"/>
     <use xlink:href="#DejaVuSans-4d" transform="translate(2276.617188 0)"/>
     <use xlink:href="#DejaVuSans-6f" transform="translate(2362.896484 0)"/>
     <use xlink:href="#DejaVuSans-72" transform="translate(2424.078125 0)"/>
     <use xlink:href="#DejaVuSans-74" transform="translate(2465.191406 0)"/>
     <use xlink:href="#DejaVuSans-61" transform="translate(2504.400391 0)"/>
     <use xlink:href="#DejaVuSans-6c" transform="translate(2565.679688 0)"/>
     <use xlink:href="#DejaVuSans-69" transform="translate(2593.462891 0)"/>
     <use xlink:href="#DejaVuSans-74" transform="translate(2621.246094 0)"/>
     <use xlink:href="#DejaVuSans-79" transform="translate(2660.455078 0)"/>
    </g>
   </g>
   <g id="legend_2">
    <g id="patch_14">
     <path d="M 852.040815 64.169844 
L 979.49644 64.169844 
Q 981.69644 64.169844 981.69644 61.969844 
L 981.69644 30.777969 
Q 981.69644 28.577969 979.49644 28.577969 
L 852.040815 28.577969 
Q 849.840815 28.577969 849.840815 30.777969 
L 849.840815 61.969844 
Q 849.840815 64.169844 852.040815 64.169844 
z
" style="fill: #ffffff; opacity: 0.8; stroke: #cccccc; stroke-linejoin: miter"/>
    </g>
    <g id="patch_15">
     <path d="M 854.240815 41.33625 
L 876.240815 41.33625 
L 876.240815 33.63625 
L 854.240815 33.63625 
z
" style="fill: #ff8c00; fill-opacity: 0.3; stroke: #ff8c00; stroke-opacity: 0.3; stroke-linejoin: miter"/>
    </g>
    <g id="text_36">
     <!-- 95% CI (binned) -->
     <g transform="translate(885.040815 41.33625) scale(0.11 -0.11)">
      <use xlink:href="#DejaVuSans-39"/>
      <use xlink:href="#DejaVuSans-35" transform="translate(63.623047 0)"/>
      <use xlink:href="#DejaVuSans-25" transform="translate(127.246094 0)"/>
      <use xlink:href="#DejaVuSans-20" transform="translate(222.265625 0)"/>
      <use xlink:href="#DejaVuSans-43" transform="translate(254.052734 0)"/>
      <use xlink:href="#DejaVuSans-49" transform="translate(323.876953 0)"/>
      <use xlink:href="#DejaVuSans-20" transform="translate(353.369141 0)"/>
      <use xlink:href="#DejaVuSans-28" transform="translate(385.15625 0)"/>
      <use xlink:href="#DejaVuSans-62" transform="translate(424.169922 0)"/>
      <use xlink:href="#DejaVuSans-69" transform="translate(487.646484 0)"/>
      <use xlink:href="#DejaVuSans-6e" transform="translate(515.429688 0)"/>
      <use xlink:href="#DejaVuSans-6e" transform="translate(578.808594 0)"/>
      <use xlink:href="#DejaVuSans-65" transform="translate(642.1875 0)"/>
      <use xlink:href="#DejaVuSans-64" transform="translate(703.710938 0)"/>
      <use xlink:href="#DejaVuSans-29" transform="translate(767.1875 0)"/>
     </g>
    </g>
    <g id="line2d_60">
     <path d="M 854.240815 53.632187 
L 865.240815 53.632187 
L 876.240815 53.632187 
" style="fill: none; stroke: #ff8c00; stroke-width: 2; stroke-linecap: square"/>
    </g>
    <g id="text_37">
     <!-- Smoothed spline -->
     <g transform="translate(885.040815 57.482187) scale(0.11 -0.11)">
      <use xlink:href="#DejaVuSans-53"/>
      <use xlink:href="#DejaVuSans-6d" transform="translate(63.476562 0)"/>
      <use xlink:href="#DejaVuSans-6f" transform="translate(160.888672 0)"/>
      <use xlink:href="#DejaVuSans-6f" transform="translate(222.070312 0)"/>
      <use xlink:href="#DejaVuSans-74" transform="translate(283.251953 0)"/>
      <use xlink:href="#DejaVuSans-68" transform="translate(322.460938 0)"/>
      <use xlink:href="#DejaVuSans-65" transform="translate(385.839844 0)"/>
      <use xlink:href="#DejaVuSans-64" transform="translate(447.363281 0)"/>
      <use xlink:href="#DejaVuSans-20" transform="translate(510.839844 0)"/>
      <use xlink:href="#DejaVuSans-73" transform="translate(542.626953 0)"/>
      <use xlink:href="#DejaVuSans-70" transform="translate(594.726562 0)"/>
      <use xlink:href="#DejaVuSans-6c" transform="translate(658.203125 0)"/>
      <use xlink:href="#DejaVuSans-69" transform="translate(685.986328 0)"/>
      <use xlink:href="#DejaVuSans-6e" transform="translate(713.769531 0)"/>
      <use xlink:href="#DejaVuSans-65" transform="translate(777.148438 0)"/>
     </g>
    </g>
   </g>
  </g>
 </g>
 <defs>
  <clipPath id="p040607974f">
   <rect x="63.523594" y="23.077969" width="427.761423" height="359.08"/>
  </clipPath>
  <clipPath id="p870d75e965">
   <rect x="559.435017" y="23.077969" width="427.761423" height="359.08"/>
  </clipPath>
 </defs>
</svg>
